<?xml version="1.0" encoding="utf-8"?>
<!-- Generator: Adobe Illustrator 27.2.0, SVG Export Plug-In . SVG Version: 6.00 Build 0)  -->
<!DOCTYPE svg PUBLIC "-//W3C//DTD SVG 1.1//EN" "http://www.w3.org/Graphics/SVG/1.1/DTD/svg11.dtd" [
	<!ENTITY ns_flows "http://ns.adobe.com/Flows/1.0/">
	<!ENTITY ns_extend "http://ns.adobe.com/Extensibility/1.0/">
	<!ENTITY ns_ai "http://ns.adobe.com/AdobeIllustrator/10.0/">
	<!ENTITY ns_graphs "http://ns.adobe.com/Graphs/1.0/">
	<!ENTITY ns_vars "http://ns.adobe.com/Variables/1.0/">
	<!ENTITY ns_imrep "http://ns.adobe.com/ImageReplacement/1.0/">
	<!ENTITY ns_sfw "http://ns.adobe.com/SaveForWeb/1.0/">
	<!ENTITY ns_custom "http://ns.adobe.com/GenericCustomNamespace/1.0/">
	<!ENTITY ns_adobe_xpath "http://ns.adobe.com/XPath/1.0/">
]>
<svg version="1.1" xmlns:x="&ns_extend;" xmlns:i="&ns_ai;" xmlns:graph="&ns_graphs;"
	 xmlns="http://www.w3.org/2000/svg" xmlns:xlink="http://www.w3.org/1999/xlink" xmlns:a="http://ns.adobe.com/AdobeSVGViewerExtensions/3.0/"
	 x="0px" y="0px" width="750px" height="750px" viewBox="0 0 750 750" enable-background="new 0 0 750 750" xml:space="preserve">
<metadata>
	<sfw  xmlns="&ns_sfw;">
		<slices></slices>
		<sliceSourceBounds  bottomLeftOrigin="true" height="7426.084" width="7441.529" x="-3309.529" y="-1058"></sliceSourceBounds>
	</sfw>
</metadata>
<g id="FILL-BACKGROUND">
	<rect fill="transparent" width="750" height="750"/>
</g>
<g id="N-TEXT">
</g>
<g id="N-DIMENSIONS">
</g>
<g id="_x32_D_x24_AG-DIAGRAM">
</g>
<g id="_x32_D_x24_AG-DETAILS-DIAGRAM">
</g>
<g id="_x32_D_x24_AG-DETAILS">
</g>
<g id="_x32_D_x24_AG-BUILDINGS">
	<g id="POLYLINE_00000123442415363759104370000010278646784440501437_">

			<path fill="none" stroke="#000000" stroke-width="2.75" stroke-linecap="round" stroke-linejoin="round" stroke-miterlimit="10" d="
			M325.171,267.74c-0.899,0.002-1.796-0.295-2.517-0.832c-0.703-0.52-1.237-1.266-1.503-2.099c-0.133-0.416-0.202-0.855-0.202-1.291
			c0.006-0.22-0.011-86.163,0.006-86.364c0.015-0.289,0.061-0.584,0.135-0.863c0.136-0.516,0.373-1.008,0.692-1.436
			c0.506-0.683,1.225-1.208,2.03-1.48c0.782-0.267,1.643-0.297,2.441-0.084c1.083,0.283,2.038,1.017,2.588,1.992
			c0.24,0.421,0.408,0.887,0.491,1.365c0.037,0.214,0.058,0.436,0.062,0.652c-0.011,0.325,0.012,86.056-0.002,86.364
			c-0.013,0.387-0.081,0.777-0.2,1.145c-0.273,0.856-0.83,1.62-1.562,2.142C326.919,267.461,326.045,267.742,325.171,267.74z"/>
	</g>
	<g id="POLYLINE_00000104698271069945511980000008142402229879882157_">

			<path fill="none" stroke="#000000" stroke-width="2.75" stroke-linecap="round" stroke-linejoin="round" stroke-miterlimit="10" d="
			M424.829,267.74c-0.899,0.002-1.796-0.295-2.517-0.832c-0.703-0.52-1.237-1.266-1.503-2.099c-0.133-0.416-0.202-0.855-0.202-1.291
			c0.006-0.22-0.011-86.163,0.006-86.364c0.015-0.289,0.061-0.584,0.135-0.863c0.136-0.516,0.373-1.008,0.692-1.436
			c0.506-0.683,1.225-1.208,2.03-1.48c0.782-0.267,1.643-0.297,2.441-0.084c1.083,0.283,2.038,1.017,2.588,1.992
			c0.24,0.421,0.408,0.887,0.491,1.365c0.037,0.214,0.058,0.436,0.062,0.652c-0.011,0.325,0.012,86.056-0.002,86.364
			c-0.013,0.387-0.081,0.777-0.2,1.145c-0.273,0.856-0.83,1.62-1.562,2.142C426.578,267.461,425.704,267.742,424.829,267.74z"/>
	</g>
	<g id="POLYLINE_00000011723021536162541350000011796286761017401760_">

			<path fill="none" stroke="#000000" stroke-width="2.75" stroke-linecap="round" stroke-linejoin="round" stroke-miterlimit="10" d="
			M375,630.904c-8.585,0.034-17.278-3.845-22.429-10.813c-2.079-2.793-3.551-6.054-4.202-9.478
			c-0.157-0.826-0.272-1.687-0.334-2.525c-0.022-0.347-0.048-0.752-0.054-1.099c0.009-0.149-0.016-0.398-0.007-0.543
			c0,0,0-59.189,0-59.189c-0.001-2.476,0.422-4.96,1.232-7.3c3.653-10.534,14.29-16.975,25.194-17.152
			c11.101-0.265,22.182,5.956,26.189,16.582c0.91,2.422,1.405,5.01,1.435,7.598c0.027,0.603-0.014,59.12,0,59.73
			c-0.008,0.238-0.01,0.581-0.025,0.82c-0.037,0.734-0.113,1.501-0.223,2.228c-0.043,0.246-0.094,0.602-0.145,0.848
			c-0.651,3.424-2.123,6.685-4.202,9.478C392.278,627.057,383.586,630.938,375,630.904z"/>
	</g>
	<g id="POLYLINE_00000013172549528656483290000017600359898354043315_">

			<path fill="none" stroke="#000000" stroke-width="2.75" stroke-linecap="round" stroke-linejoin="round" stroke-miterlimit="10" d="
			M304.056,541.438c-22.843-4.275-44.234-14.789-56.646-35.179c-6.763-11.041-10.18-23.932-10.793-36.813
			c-0.368-8.106,0.25-16.359,2.159-24.255c1.168-4.8,2.893-9.543,5.065-13.98c2.298-4.719,5.168-9.256,8.204-13.534
			c7.465-10.395,19.565-24.548,26.998-34.944c10.397-14.262,19.672-29.623,26.645-45.857c6.588-15.267,11.229-31.488,13.514-47.965
			c0.792-5.7,1.34-11.786,1.582-17.537c0.366-3.015,0.076-78.42,0.165-83.342c-1.691,0.014-6.908-0.046-8.491,0.06
			c-1.547,0.086-3.125,0.271-4.648,0.557c-3.218,0.601-6.361,1.689-9.246,3.239c-2.954,1.581-5.654,3.647-8.02,6.015
			c-0.086,8.071,0.268,48.341-0.305,55.217c-0.397,6.285-1.199,12.805-2.307,19.002c-3.464,19.222-10.019,37.95-19.158,55.205
			c-6.246,11.797-13.872,22.993-22.266,33.367c-9.178,11.536-23.371,25.751-33.161,36.875c-3.848,4.424-7.738,9.138-11.086,13.945
			c-5.408,7.709-9.753,16.26-12.83,25.159c-5.39,15.708-7.314,32.592-6.329,49.14c1.063,16.975,5.674,33.74,13.289,48.94
			c5.577,11.165,12.803,21.574,21.011,30.962c5.8,6.648,12.215,12.931,19.311,18.191c19.533,14.594,43.568,21.639,67.346,25.578
			V541.438z"/>
	</g>
	<g id="POLYLINE_00000160870762756299556370000016039061757584171191_">

			<polyline fill="none" stroke="#000000" stroke-width="2.75" stroke-linecap="round" stroke-linejoin="round" stroke-miterlimit="10" points="
			348.373,610.634 342.906,610.634 342.906,543.069 348.373,543.069 		"/>
	</g>
	<g id="POLYLINE_00000003100291679342383370000018166831469358508432_">

			<path fill="none" stroke="#000000" stroke-width="2.75" stroke-linecap="round" stroke-linejoin="round" stroke-miterlimit="10" d="
			M304.056,612.656c-0.006,3.598,2.852,6.595,6.455,6.75c1.97,0.07,4.024-0.528,5.491-1.878c0.785-0.725,1.371-1.697,1.523-2.764
			c0.028-0.194,0.043-0.394,0.043-0.591c0.005-0.026-0.003-74.676,0-74.702c-0.002-0.113-0.009-0.24-0.02-0.353
			c-0.053-0.528-0.212-1.046-0.454-1.517c-0.836-1.624-2.527-2.653-4.266-3.072c-1.162-0.276-2.393-0.336-3.561-0.06
			c-1.814,0.418-3.425,1.624-4.335,3.249c-0.315,0.557-0.552,1.162-0.698,1.785c-0.095,0.407-0.154,0.826-0.172,1.243
			C304.016,540.857,304.083,612.472,304.056,612.656z"/>
	</g>
	<g id="POLYLINE_00000172398828793955916590000010523787840188109742_">

			<path fill="none" stroke="#000000" stroke-width="2.75" stroke-linecap="round" stroke-linejoin="round" stroke-miterlimit="10" d="
			M317.145,616.002c2.643-0.469,5.208-2.022,6.506-4.419c0.417-0.785,0.676-1.667,0.676-2.56
			c-0.017-0.521,0.026-64.197-0.011-64.667c-0.015-0.224-0.047-0.455-0.093-0.675c-0.112-0.544-0.312-1.071-0.572-1.561
			c-1.298-2.398-3.862-3.95-6.506-4.419"/>
	</g>
	<g id="POLYLINE_00000121974650098919345020000017837395270007695763_">

			<path fill="none" stroke="#000000" stroke-width="2.75" stroke-linecap="round" stroke-linejoin="round" stroke-miterlimit="10" d="
			M324.325,609.136c1.218-4.344,5.411-7.255,9.906-6.879c4.496,0.349,8.17,3.896,8.676,8.378"/>
	</g>
	<g id="POLYLINE_00000182516187013222112360000017485534969972603552_">

			<path fill="none" stroke="#000000" stroke-width="2.75" stroke-linecap="round" stroke-linejoin="round" stroke-miterlimit="10" d="
			M324.325,544.567c1.218,4.344,5.411,7.255,9.906,6.879c4.496-0.349,8.17-3.896,8.676-8.378"/>
	</g>
	<g id="POLYLINE_00000077317461307262671920000011290155333356198542_">

			<path fill="none" stroke="#000000" stroke-width="2.75" stroke-linecap="round" stroke-linejoin="round" stroke-miterlimit="10" d="
			M352.956,533.107c-8.159,4.098-15.132,10.548-19.853,18.363"/>
	</g>
	<g id="POLYLINE_00000070832997120324893450000016433817864309557435_">

			<path fill="none" stroke="#000000" stroke-width="2.75" stroke-linecap="round" stroke-linejoin="round" stroke-miterlimit="10" d="
			M333.104,602.232c4.721,7.816,11.693,14.265,19.853,18.363"/>
	</g>
	<g id="POLYLINE_00000096021543000219989300000003808487933497415831_">

			<polyline fill="none" stroke="#000000" stroke-width="2.75" stroke-linecap="round" stroke-linejoin="round" stroke-miterlimit="10" points="
			401.627,610.634 407.094,610.634 407.094,543.069 401.627,543.069 		"/>
	</g>
	<g id="POLYLINE_00000132770244594571773740000003513766483808675242_">

			<path fill="none" stroke="#000000" stroke-width="2.75" stroke-linecap="round" stroke-linejoin="round" stroke-miterlimit="10" d="
			M445.944,612.656c0.006,3.598-2.852,6.595-6.455,6.75c-1.97,0.07-4.024-0.528-5.491-1.878c-0.785-0.725-1.371-1.697-1.523-2.764
			c-0.028-0.194-0.043-0.394-0.043-0.591c-0.005-0.026,0.003-74.676,0-74.702c0.002-0.113,0.009-0.24,0.02-0.353
			c0.053-0.528,0.212-1.046,0.454-1.517c0.836-1.624,2.527-2.653,4.266-3.072c1.162-0.276,2.393-0.336,3.561-0.06
			c1.814,0.418,3.425,1.624,4.336,3.249c0.315,0.557,0.552,1.162,0.698,1.785c0.095,0.407,0.154,0.826,0.172,1.243
			C445.984,540.857,445.917,612.472,445.944,612.656z"/>
	</g>
	<g id="POLYLINE_00000141432248093427561330000007107527601924282510_">

			<path fill="none" stroke="#000000" stroke-width="2.75" stroke-linecap="round" stroke-linejoin="round" stroke-miterlimit="10" d="
			M432.855,616.002c-2.643-0.469-5.208-2.022-6.506-4.419c-0.417-0.785-0.676-1.667-0.676-2.56
			c0.017-0.521-0.026-64.197,0.011-64.667c0.015-0.224,0.047-0.455,0.093-0.675c0.112-0.544,0.312-1.071,0.572-1.561
			c1.298-2.398,3.863-3.95,6.506-4.419"/>
	</g>
	<g id="POLYLINE_00000108304068167502813080000008712816900746051734_">

			<path fill="none" stroke="#000000" stroke-width="2.75" stroke-linecap="round" stroke-linejoin="round" stroke-miterlimit="10" d="
			M425.675,609.136c-1.218-4.344-5.411-7.255-9.906-6.879c-4.496,0.349-8.17,3.896-8.676,8.378"/>
	</g>
	<g id="POLYLINE_00000089543057399693811350000013228914231571515583_">

			<path fill="none" stroke="#000000" stroke-width="2.75" stroke-linecap="round" stroke-linejoin="round" stroke-miterlimit="10" d="
			M425.675,544.567c-1.218,4.344-5.411,7.255-9.906,6.879c-4.496-0.349-8.17-3.896-8.676-8.378"/>
	</g>
	<g id="POLYLINE_00000112620518981364315310000016072500098499238285_">

			<path fill="none" stroke="#000000" stroke-width="2.75" stroke-linecap="round" stroke-linejoin="round" stroke-miterlimit="10" d="
			M397.044,620.596c8.159-4.098,15.132-10.548,19.853-18.363"/>
	</g>
	<g id="POLYLINE_00000152233999553065938400000011810533530192216462_">

			<path fill="none" stroke="#000000" stroke-width="2.75" stroke-linecap="round" stroke-linejoin="round" stroke-miterlimit="10" d="
			M416.896,551.47c-4.721-7.816-11.693-14.265-19.853-18.363"/>
	</g>
	<g id="POLYLINE_00000057115410018158893700000012739970273259847078_">

			<path fill="none" stroke="#000000" stroke-width="2.75" stroke-linecap="round" stroke-linejoin="round" stroke-miterlimit="10" d="
			M316.506,616.995c13.131,19.209,35.228,30.843,58.494,30.8c23.263,0.044,45.367-11.594,58.494-30.8"/>
	</g>
	<g id="POLYLINE_00000105404805676492198070000011650965615840156563_">

			<path fill="none" stroke="#000000" stroke-width="2.75" stroke-linecap="round" stroke-linejoin="round" stroke-miterlimit="10" d="
			M323.368,612.066c11.549,17.004,31.079,27.323,51.632,27.283c20.551,0.042,40.087-10.281,51.632-27.283"/>
	</g>
	<g id="POLYLINE_00000001654127694232672570000014156229487266240687_">

			<path fill="none" stroke="#000000" stroke-width="2.75" stroke-linecap="round" stroke-linejoin="round" stroke-miterlimit="10" d="
			M433.494,536.708c-13.131-19.209-35.228-30.843-58.494-30.8c-23.263-0.044-45.367,11.594-58.494,30.8"/>
	</g>
	<g id="POLYLINE_00000127741113422987140910000000462221645672573605_">

			<path fill="none" stroke="#000000" stroke-width="2.75" stroke-linecap="round" stroke-linejoin="round" stroke-miterlimit="10" d="
			M426.632,541.636c-11.549-17.004-31.079-27.323-51.632-27.283c-20.551-0.042-40.087,10.281-51.632,27.283"/>
	</g>
	<g id="POLYLINE_00000125589391752752015930000008192939794747490999_">

			<path fill="none" stroke="#000000" stroke-width="2.75" stroke-linecap="round" stroke-linejoin="round" stroke-miterlimit="10" d="
			M290.543,199.225c-9.114-5.814-20.45-3.629-27.285,4.586c-7.837,9.37-7.837,23.898,0,33.267
			c6.837,8.215,18.168,10.401,27.285,4.586"/>
	</g>
	<g id="POLYLINE_00000145019473855173394820000007171494703518834622_">

			<path fill="none" stroke="#000000" stroke-width="2.75" stroke-linecap="round" stroke-linejoin="round" stroke-miterlimit="10" d="
			M272.918,243.829c2.697,11.784,7.49,23.163,14.038,33.324"/>
	</g>
	<g id="POLYLINE_00000181068386305612149490000006315558927629367213_">

			<path fill="none" stroke="#000000" stroke-width="2.75" stroke-linecap="round" stroke-linejoin="round" stroke-miterlimit="10" d="
			M420.607,177.712c-24.745-26.339-66.476-26.331-91.213,0"/>
	</g>
	<g id="POLYLINE_00000014606318235363988040000017458715940708867202_">

			<path fill="none" stroke="#000000" stroke-width="2.75" stroke-linecap="round" stroke-linejoin="round" stroke-miterlimit="10" d="
			M329.393,263.176c24.745,26.339,66.476,26.331,91.213,0"/>
	</g>
	<g id="POLYLINE_00000111168154443274103460000008848394925344908417_">

			<path fill="none" stroke="#000000" stroke-width="2.75" stroke-linecap="round" stroke-linejoin="round" stroke-miterlimit="10" d="
			M445.944,541.438c22.843-4.275,44.234-14.789,56.646-35.179c6.763-11.041,10.18-23.932,10.793-36.813
			c0.368-8.106-0.25-16.359-2.159-24.255c-1.168-4.8-2.893-9.543-5.065-13.98c-2.298-4.719-5.168-9.256-8.204-13.534
			c-7.465-10.395-19.565-24.548-26.998-34.944c-10.397-14.262-19.672-29.623-26.645-45.857
			c-6.588-15.267-11.229-31.488-13.514-47.965c-0.792-5.7-1.34-11.786-1.582-17.537c-0.366-3.015-0.076-78.42-0.165-83.342
			c1.691,0.014,6.908-0.046,8.491,0.06c1.547,0.086,3.125,0.271,4.648,0.557c3.218,0.601,6.361,1.689,9.246,3.239
			c2.954,1.581,5.654,3.647,8.02,6.015c0.086,8.071-0.268,48.341,0.305,55.217c0.397,6.285,1.199,12.805,2.307,19.002
			c3.464,19.222,10.019,37.95,19.158,55.205c6.246,11.797,13.872,22.993,22.266,33.367c9.178,11.536,23.371,25.751,33.161,36.875
			c3.848,4.424,7.738,9.138,11.086,13.945c5.408,7.709,9.753,16.26,12.83,25.159c5.39,15.708,7.314,32.592,6.329,49.14
			c-1.063,16.975-5.674,33.74-13.289,48.94c-5.577,11.165-12.803,21.574-21.011,30.962c-5.8,6.648-12.215,12.931-19.311,18.191
			c-19.533,14.594-43.568,21.639-67.346,25.578V541.438z"/>
	</g>
	<g id="POLYLINE_00000073001104240302151200000012840903548545971861_">

			<path fill="none" stroke="#000000" stroke-width="2.75" stroke-linecap="round" stroke-linejoin="round" stroke-miterlimit="10" d="
			M459.457,199.225c9.114-5.814,20.45-3.629,27.285,4.586c7.837,9.37,7.837,23.898,0,33.267
			c-6.837,8.215-18.168,10.401-27.285,4.586"/>
	</g>
	<g id="POLYLINE_00000063601420831509015940000003822873126871992767_">

			<path fill="none" stroke="#000000" stroke-width="2.75" stroke-linecap="round" stroke-linejoin="round" stroke-miterlimit="10" d="
			M315.782,306.82c35.607,24.447,82.834,24.444,118.436,0"/>
	</g>
	<g id="POLYLINE_00000022546665614082765390000010177858296655414404_">

			<path fill="none" stroke="#000000" stroke-width="2.75" stroke-linecap="round" stroke-linejoin="round" stroke-miterlimit="10" d="
			M311.904,320.441c38.448,24.303,87.75,24.3,126.193,0"/>
	</g>
	<g id="POLYLINE_00000127002304213599284490000017739953416671217069_">

			<path fill="none" stroke="#000000" stroke-width="2.75" stroke-linecap="round" stroke-linejoin="round" stroke-miterlimit="10" d="
			M467.448,294.159c29.914-37.47,34.179-89.573,10.761-131.407c-20.802-37.304-60.5-60.592-103.209-60.547
			c-42.708-0.046-82.411,23.245-103.209,60.547c-23.418,41.828-19.153,93.942,10.761,131.407"/>
	</g>
	<g id="POLYLINE_00000067226120690922399750000000877689478844775581_">

			<path fill="none" stroke="#000000" stroke-width="2.75" stroke-linecap="round" stroke-linejoin="round" stroke-miterlimit="10" d="
			M463.044,277.153c6.548-10.161,11.342-21.54,14.038-33.324"/>
	</g>
	<g id="POLYLINE_00000134941459930818346560000012560803576556670868_">

			<path fill="none" stroke="#000000" stroke-width="2.75" stroke-linecap="round" stroke-linejoin="round" stroke-miterlimit="10" d="
			M477.082,197.06c-10.814-47.231-52.733-80.923-101.173-81.338c-49.126-0.431-92.026,33.449-102.991,81.338"/>
	</g>
</g>
<g id="_x32_D_x24_AG-OUTLINE">
	<g id="POLYLINE_00000116954362956814765330000016851452900578051005_">

			<path fill="none" stroke="#000000" stroke-width="3.5" stroke-linecap="round" stroke-linejoin="round" stroke-miterlimit="10" d="
			M316.506,536.708c13.134-19.212,35.224-30.842,58.494-30.8c23.267-0.043,45.363,11.591,58.494,30.8
			c1.356-1.626,3.522-2.393,5.599-2.418c1.192-0.018,2.387,0.288,3.424,0.877c1.035,0.584,1.91,1.449,2.507,2.476
			c0.678,1.146,0.968,2.47,0.92,3.795c26.175-4.9,49.438-17.763,60.709-42.891c3.686-8.203,5.793-17.095,6.531-26.045
			c0.634-7.888,0.286-15.946-1.181-23.727c-0.875-4.583-2.221-9.169-4.005-13.481c-1.841-4.466-4.201-8.791-6.813-12.851
			c-2.724-4.243-5.925-8.517-9.023-12.496c-8.177-10.293-19.957-24.831-27.155-35.685c-11.264-16.618-20.688-34.703-26.91-53.821
			c-38.473,24.309-87.725,24.306-126.193,0c-6.67,20.517-17.036,39.801-29.396,57.436c-6.864,10.026-18.625,24.324-26.186,34.029
			c-2.794,3.658-5.675,7.594-8.113,11.493c-2.566,4.087-4.861,8.446-6.628,12.94c-1.727,4.38-3.002,9.03-3.808,13.667
			c-1.312,7.645-1.581,15.542-0.889,23.265c0.792,8.687,2.883,17.308,6.464,25.274c11.272,25.129,34.537,37.992,60.709,42.891
			c-0.046-1.296,0.229-2.592,0.877-3.721c0.584-1.035,1.449-1.91,2.476-2.507c1.026-0.6,2.215-0.921,3.404-0.92
			C312.92,534.292,315.13,535.058,316.506,536.708z"/>
	</g>
	<g id="POLYLINE_00000069363600776864387110000017328991862909811101_">

			<path fill="none" stroke="#000000" stroke-width="3.5" stroke-linecap="round" stroke-linejoin="round" stroke-miterlimit="10" d="
			M282.552,294.159c-29.636-37.134-34.125-88.601-11.369-130.304c20.646-37.945,60.622-61.681,103.818-61.65
			c43.194-0.033,83.174,23.707,103.818,61.65c22.754,41.697,18.266,93.175-11.369,130.304c6.695,21.758,17.433,42.266,31.217,60.365
			c4.579,6.056,9.848,12.329,14.926,17.968c6.528,7.242,19.258,20.486,25.441,27.837c4.503,5.311,8.844,10.958,12.448,16.924
			c4.531,7.486,8.088,15.655,10.577,24.04c2.28,7.666,3.737,15.665,4.493,23.623c0.864,9.073,0.817,18.323-0.232,27.378
			c-1.696,14.735-6.072,29.199-12.708,42.459c-5.577,11.165-12.803,21.574-21.011,30.962c-5.8,6.648-12.215,12.931-19.311,18.191
			c-19.533,14.594-43.568,21.639-67.346,25.578c-0.006,0.11,0.009,3.494-0.007,3.473c-0.015,0.336-0.056,0.677-0.121,1.007
			c-0.173,0.877-0.523,1.72-1.021,2.461c-1.182,1.781-3.246,2.925-5.382,2.983c-2.18,0.056-4.492-0.707-5.919-2.414
			c-13.134,19.212-35.224,30.842-58.494,30.8c-23.267,0.043-45.363-11.591-58.494-30.8c-1.427,1.707-3.739,2.47-5.919,2.414
			c-2.136-0.058-4.2-1.203-5.382-2.983c-0.514-0.763-0.869-1.635-1.036-2.54c-0.056-0.304-0.092-0.619-0.106-0.928
			c-0.008,0-0.008-3.353-0.007-3.473c-23.777-3.939-47.813-10.983-67.346-25.578c-7.096-5.261-13.511-11.54-19.311-18.191
			c-8.208-9.389-15.434-19.796-21.011-30.962c-6.636-13.26-11.012-27.723-12.708-42.459c-1.048-9.055-1.097-18.306-0.232-27.378
			c0.757-7.958,2.212-15.958,4.493-23.623c2.49-8.385,6.046-16.555,10.577-24.04c3.604-5.964,7.945-11.615,12.448-16.924
			c6.183-7.37,18.95-20.615,25.441-27.837c5.532-6.135,11.18-12.913,16.107-19.544C265.743,335.253,276.046,315.282,282.552,294.159
			z"/>
	</g>
</g>
</svg>
