<?xml version="1.0" encoding="utf-8"?>
<!-- Generator: Adobe Illustrator 23.0.3, SVG Export Plug-In . SVG Version: 6.00 Build 0)  -->
<!DOCTYPE svg PUBLIC "-//W3C//DTD SVG 1.1//EN" "http://www.w3.org/Graphics/SVG/1.1/DTD/svg11.dtd" [
	<!ENTITY ns_extend "http://ns.adobe.com/Extensibility/1.0/">
	<!ENTITY ns_ai "http://ns.adobe.com/AdobeIllustrator/10.0/">
	<!ENTITY ns_graphs "http://ns.adobe.com/Graphs/1.0/">
	<!ENTITY ns_vars "http://ns.adobe.com/Variables/1.0/">
	<!ENTITY ns_imrep "http://ns.adobe.com/ImageReplacement/1.0/">
	<!ENTITY ns_sfw "http://ns.adobe.com/SaveForWeb/1.0/">
	<!ENTITY ns_custom "http://ns.adobe.com/GenericCustomNamespace/1.0/">
	<!ENTITY ns_adobe_xpath "http://ns.adobe.com/XPath/1.0/">
]>
<svg version="1.1" xmlns:x="&ns_extend;" xmlns:i="&ns_ai;" xmlns:graph="&ns_graphs;"
	 xmlns="http://www.w3.org/2000/svg" xmlns:xlink="http://www.w3.org/1999/xlink" x="0px" y="0px" viewBox="0 0 750 750"
	 enable-background="new 0 0 750 750" xml:space="preserve">
<metadata>
	<sfw  xmlns="&ns_sfw;">
		<slices></slices>
		<sliceSourceBounds  bottomLeftOrigin="true" height="8986.979" width="10022.196" x="-5527" y="-2231.979"></sliceSourceBounds>
	</sfw>
</metadata>
<g id="FILL-BACKGROUND">
	<rect fill="transparent" width="750" height="750"/>
</g>
<g id="N-DIMENSIONS">
</g>
<g id="N-TEXT">
</g>
<g id="AG-DIAGRAM">
	<g id="POLYLINE_95_">
		<g>
			<g>

					<line fill="none" stroke="#000000" stroke-width="3.25" stroke-linecap="round" stroke-linejoin="round" x1="649.126" y1="528.438" x2="647.126" y2="528.438"/>

					<line fill="none" stroke="#000000" stroke-width="3.25" stroke-linecap="round" stroke-linejoin="round" stroke-dasharray="4.019,7.0332" x1="640.093" y1="528.438" x2="113.105" y2="528.438"/>

					<line fill="none" stroke="#000000" stroke-width="3.25" stroke-linecap="round" stroke-linejoin="round" x1="109.589" y1="528.438" x2="107.589" y2="528.438"/>
			</g>
		</g>
	</g>
</g>
<g id="AG-DETAILS">
	<g id="POLYLINE_91_">
		<path fill="none" stroke="#000000" stroke-width="2" stroke-linecap="round" stroke-linejoin="round" stroke-miterlimit="10" d="
			M138.47,440.875c0-4.924,0-9.848,0-14.772c0-2.668,0-5.335,0-8.003c0-1.016-0.003-2.022,0.168-3.028
			c0.435-2.563,1.722-4.947,3.624-6.718c1.88-1.752,4.318-2.86,6.873-3.128c0.966-0.101,1.95-0.065,2.92-0.065
			c2.058,0,4.117,0,6.175,0c3.375,0,6.75,0,10.125,0c4.508,0,9.016,0,13.524,0c5.39,0,10.78,0,16.17,0c6.084,0,12.167,0,18.251,0
			c6.602,0,13.205,0,19.807,0c6.85,0,13.7,0,20.549,0c6.921,0,13.841,0,20.762,0c6.816,0,13.632,0,20.448,0
			c6.438,0,12.876,0,19.314,0c5.886,0,11.772,0,17.658,0c5.149,0,10.298,0,15.447,0c4.155,0,8.309,0,12.464,0
			c2.98,0,5.959,0,8.939,0c1.601,0,3.203,0,4.804,0c0.416,0,0.832,0,1.247,0c1.58,0,3.16,0,4.74,0c2.985,0,5.971,0,8.956,0
			c4.153,0,8.306,0,12.459,0c5.123,0,10.247,0,15.37,0c5.885,0,11.771,0,17.656,0c6.471,0,12.941,0,19.412,0
			c6.785,0,13.569,0,20.354,0c6.92,0,13.84,0,20.76,0c6.879,0,13.758,0,20.637,0c6.563,0,13.126,0,19.69,0
			c6.072,0,12.144,0,18.216,0c5.396,0,10.792,0,16.188,0c4.459,0,8.919,0,13.378,0c3.342,0,6.683,0,10.025,0
			c2.022,0,4.043,0,6.065,0c1.004,0,2.015-0.033,3.013,0.092c2.559,0.32,4.982,1.486,6.83,3.286
			c1.863,1.816,3.096,4.233,3.472,6.808c0.152,1.039,0.125,2.083,0.125,3.13c0,2.77,0,5.54,0,8.31c0,4.696,0,9.392,0,14.088"/>
	</g>
	<g id="POLYLINE_90_">
		<path fill="none" stroke="#000000" stroke-width="2" stroke-linecap="round" stroke-linejoin="round" stroke-miterlimit="10" d="
			M203.59,405.16c4.97-0.004,9.94-0.007,14.91-0.011c6.374-0.005,12.749-0.009,19.123-0.014c3.987-0.003,8.014-0.193,11.95-0.862
			c3.68-0.626,7.744-1.684,10.373-4.525c1.988-2.149,2.878-5.057,2.816-7.951c-0.064-2.951-1.05-5.878-2.711-8.311
			c-2.27-3.324-5.705-5.658-9.265-7.42c-4.126-2.042-8.605-3.558-13.101-4.531c-4.858-1.052-9.852-1.436-14.806-1.693
			c-5.281-0.274-10.567-0.331-15.854-0.369c-5.225-0.038-10.451-0.004-15.674,0.11c-4.948,0.108-9.913,0.321-14.835,0.856
			c-4.848,0.527-9.553,1.533-14.155,3.153c-4.128,1.453-8.263,3.268-11.669,6.066c-2.556,2.1-4.561,4.78-5.565,7.951
			c-0.876,2.765-1.011,5.838-0.027,8.595c1.062,2.974,3.365,5.088,6.223,6.328c4.14,1.796,8.856,2.237,13.317,2.473
			c4.327,0.228,8.671,0.135,13.003,0.138c7.221,0.005,14.441,0.011,21.662,0.016C200.732,405.158,202.161,405.159,203.59,405.16z"/>
	</g>
</g>
<g id="AG-PEOPLE">
</g>
<g id="AG-DETAIL-DIAGRAM">
</g>
<g id="AG-DETAIL">
</g>
<g id="AG-FURNITURE">
	<g id="POLYLINE_52_">

			<path fill="none" stroke="#000000" stroke-width="2.75" stroke-linecap="round" stroke-linejoin="round" stroke-miterlimit="10" d="
			M615.082,528.438c0-3.543,0-7.087,0-10.63c0-8.186,0-16.373,0-24.559c0-9.396,0-18.792,0-28.188c0-6.96,0-13.92,0-20.881
			c0-0.965,0-1.931,0-2.896c0-0.479-0.122-1.148,0-1.614c0.131-0.498,0.362-0.283,1.007-0.283c2.137,0,4.275,0,6.412,0
			c0.529,0,1.325-0.233,1.51,0.201c0.15,0.351,0,1.105,0,1.48c0,2.209,0,4.419,0,6.628c0,7.826,0,15.652,0,23.479
			c0,9.413,0,18.827,0,28.24c0,7.469,0,14.939,0,22.408c0,1.898,0,3.797,0,5.695c0,0.139,0.099,0.8,0,0.91
			c-0.096,0.107-0.867,0.01-1.007,0.01c-1.053,0-2.105,0-3.158,0C618.258,528.438,616.67,528.438,615.082,528.438z"/>
	</g>
	<g id="POLYLINE_42_">

			<path fill="none" stroke="#000000" stroke-width="2.75" stroke-linecap="round" stroke-linejoin="round" stroke-miterlimit="10" d="
			M138.47,440.875c0,0.992,0,1.984,0,2.976c0,0.644,0,1.288,0,1.932c0,0.122-0.1,0.947,0,1.044c0.032,0.032,0.173-0.017,0.215,0
			c0.419,0.164,1.243,0,1.687,0c2.722,0,5.443,0,8.165,0c4.654,0,9.309,0,13.963,0c6.315,0,12.631,0,18.946,0
			c7.818,0,15.636,0,23.454,0c9.058,0,18.116,0,27.174,0c10.037,0,20.074,0,30.11,0c10.81,0,21.62,0,32.431,0
			c11.387,0,22.774,0,34.161,0c11.703,0,23.405,0,35.108,0c11.754,0,23.507,0,35.261,0c11.608,0,23.216,0,34.824,0
			c11.264,0,22.528,0,33.793,0c10.656,0,21.311,0,31.967,0c9.763,0,19.526,0,29.289,0c8.751,0,17.502,0,26.254,0
			c7.45,0,14.9,0,22.35,0c5.917,0,11.834,0,17.752,0c4.135,0,8.27,0,12.405,0c2.17,0,4.339,0,6.509,0
			c0.291,0,0.67,0.079,0.795-0.104c0.134-0.197,0-1.026,0-1.266c0-0.765,0-1.53,0-2.295c0-0.303,0.229-2.064-0.001-2.287
			c-0.036-0.035-0.197,0.016-0.244,0c-0.46-0.158-1.262,0-1.743,0c-1.13,0-2.261,0-3.391,0c-3.729,0-7.457,0-11.186,0
			c-5.558,0-11.116,0-16.674,0c-7.14,0-14.281,0-21.421,0c-8.466,0-16.931,0-25.397,0c-9.58,0-19.159,0-28.739,0
			c-10.495,0-20.99,0-31.485,0c-11.153,0-22.306,0-33.459,0c-11.547,0-23.094,0-34.64,0c-11.742,0-23.483,0-35.225,0
			c-11.74,0-23.48,0-35.221,0c-11.474,0-22.948,0-34.423,0c-10.917,0-21.833,0-32.75,0c-10.253,0-20.506,0-30.758,0
			c-9.294,0-18.588,0-27.882,0c-8.104,0-16.207,0-24.311,0c-6.649,0-13.298,0-19.946,0c-5.039,0-10.078,0-15.118,0
			c-3.156,0-6.312,0-9.468,0C140.557,440.875,139.513,440.875,138.47,440.875z"/>
	</g>
	<g id="POLYLINE_41_">

			<line fill="none" stroke="#000000" stroke-width="2.75" stroke-linecap="round" stroke-linejoin="round" stroke-miterlimit="10" x1="138.47" y1="476.589" x2="615.082" y2="476.589"/>
	</g>
	<g id="POLYLINE_40_">

			<path fill="none" stroke="#000000" stroke-width="2.75" stroke-linecap="round" stroke-linejoin="round" stroke-miterlimit="10" d="
			M129.541,528.438c0-2.265,0-4.529,0-6.794c0-6.091,0-12.182,0-18.273c0-8.944,0-17.889,0-26.833c0-10.825,0-21.65,0-32.475
			c0-11.732,0-23.465,0-35.197c0-11.698,0-23.397,0-35.095c0-10.651,0-21.303,0-31.954c0-8.602,0-17.205,0-25.807
			c0-5.612,0-11.225,0-16.837c0-1.381,0-2.762,0-4.142c0-0.166-0.095-0.704,0-0.847c0.23-0.347,2.157-0.09,2.616-0.09
			c1.439,0,2.877,0,4.316,0c0.246,0,1.812-0.197,1.997,0.001c0.052,0.056-0.002,0.401,0,0.472c0.028,1.152,0,2.308,0,3.461
			c0,5.255,0,10.51,0,15.766c0,8.364,0,16.728,0,25.091c0,10.46,0,20.92,0,31.379c0,11.602,0,23.205,0,34.807
			c0,11.772,0,23.543,0,35.315c0,10.968,0,21.936,0,32.905c0,9.236,0,18.473,0,27.709c0,6.424,0,12.848,0,19.271
			c0,1.875,0,3.749,0,5.624c0,0.545,0,1.09,0,1.635c0,0.155,0.092,0.696,0,0.828c-0.233,0.332-2.173,0.082-2.616,0.082
			C133.749,528.438,131.645,528.438,129.541,528.438z"/>
	</g>
</g>
<g id="AG-OUTLINE">
	<g id="POLYLINE_39_">

			<path fill="none" stroke="#000000" stroke-width="3.25" stroke-linecap="round" stroke-linejoin="round" stroke-miterlimit="10" d="
			M138.47,440.875c0-2.277,0-4.554,0-6.83c0-5.964,0-11.928,0-17.891c0-8.319,0-16.638,0-24.957c0-9.403,0-18.806,0-28.209
			c0-9.231,0-18.462,0-27.693c0-7.727,0-15.454,0-23.182c0-4.913,0-9.825,0-14.738c0-0.646,0-1.292,0-1.938
			c0-0.307,0.096-0.799,0-1.093c-0.111-0.342,0.115-0.224-0.44-0.251c-2.066-0.103-4.164,0-6.233,0
			c-0.365,0-2.034-0.219-2.256,0.044c-0.056,0.067,0,0.429,0,0.514c0,0.882,0,1.764,0,2.646c0,3.705,0,7.41,0,11.115
			c0,5.897,0,11.793,0,17.69c0,7.541,0,15.083,0,22.624c0,8.699,0,17.397,0,26.096c0,9.384,0,18.769,0,28.153
			c0,9.532,0,19.064,0,28.596c0,9.139,0,18.278,0,27.416c0,8.274,0,16.549,0,24.823c0,6.927,0,13.853,0,20.78
			c0,5.038,0,10.077,0,15.115c0,2.636,0,5.272,0,7.908c0,0.758-0.192,0.827,0.643,0.827c2.096,0,4.193,0,6.289,0
			c0.321,0,1.703,0.215,1.959,0c0.066-0.056,0-0.122,0.038-0.225c0.209-0.566,0-1.62,0-2.215c0-1.393,0-2.787,0-4.18
			c0-4.063,0-8.126,0-12.189c0-8.806,0-17.613,0-26.419c0-1.378,0-2.756,0-4.134c0-0.601-0.214-1.675,0-2.245
			c0.132-0.352-0.06-0.171,0.347-0.241c1.228-0.209,2.678,0,3.919,0c2.673,0,5.346,0,8.02,0c3.915,0,7.829,0,11.744,0
			c5.014,0,10.027,0,15.041,0c6.002,0,12.004,0,18.006,0c6.894,0,13.788,0,20.682,0c7.643,0,15.286,0,22.93,0
			c8.239,0,16.479,0,24.718,0c8.739,0,17.478,0,26.217,0c9.149,0,18.298,0,27.447,0c9.406,0,18.812,0,28.217,0
			c9.506,0,19.012,0,28.518,0c9.517,0,19.034,0,28.55,0c9.438,0,18.876,0,28.314,0c9.171,0,18.342,0,27.513,0
			c8.845,0,17.691,0,26.536,0c8.336,0,16.671,0,25.007,0c7.735,0,15.471,0,23.206,0c7.036,0,14.072,0,21.108,0
			c6.185,0,12.371,0,18.557,0c5.195,0,10.391,0,15.586,0c4.106,0,8.212,0,12.318,0c2.903,0,5.806,0,8.708,0c1.56,0,3.12,0,4.68,0
			c0.103,0,0.633-0.076,0.713,0c0.077,0.073,0.01,0.556,0.01,0.664c0,0.956,0,1.912,0,2.868c0,8.163,0,16.327,0,24.49
			c0,7.419,0,14.839,0,22.258c0,0.241-0.169,1.353,0,1.544c0.096,0.109,0.724,0.025,0.878,0.025c1.029,0,2.058,0,3.088,0
			c1.125,0,2.251,0,3.376,0c0.232,0,1.417,0.17,1.587,0c0.079-0.079,0-0.644,0-0.748c0-5.003,0-10.005,0-15.008
			c0-8.79,0-17.581,0-26.371c0-9.112,0-18.224,0-27.335c0-5.876,0-11.752,0-17.628c0-0.499,0.112-1.15,0-1.638
			c-0.112-0.486-0.064-0.323-0.757-0.323c-2.142,0-4.283,0-6.425,0c-0.275,0-1.523-0.19-1.741,0
			c-0.249,0.218,0.239,1.268-0.009,1.488c-0.079,0.071-0.543,0-0.643,0c-0.579,0-1.158,0-1.737,0c-2.202,0-4.404,0-6.607,0
			c-3.488,0-6.975,0-10.463,0c-4.632,0-9.263,0-13.895,0c-5.664,0-11.327,0-16.991,0c-6.598,0-13.196,0-19.794,0
			c-7.364,0-14.728,0-22.092,0c-8.059,0-16.117,0-24.176,0c-8.575,0-17.15,0-25.724,0c-8.996,0-17.992,0-26.988,0
			c-9.328,0-18.656,0-27.983,0c-9.506,0-19.011,0-28.517,0c-9.527,0-19.054,0-28.581,0c-9.459,0-18.918,0-28.377,0
			c-9.301,0-18.602,0-27.904,0c-8.987,0-17.974,0-26.96,0c-8.52,0-17.04,0-25.56,0c-7.963,0-15.927,0-23.89,0
			c-7.309,0-14.618,0-21.926,0c-6.502,0-13.004,0-19.506,0c-5.554,0-11.108,0-16.663,0c-4.509,0-9.017,0-13.526,0
			c-3.35,0-6.701,0-10.051,0c-2.051,0-4.103,0-6.154,0C139.737,440.875,139.103,440.875,138.47,440.875z"/>
	</g>
</g>
</svg>
