<?xml version="1.0" encoding="utf-8"?>
<!-- Generator: Adobe Illustrator 27.5.0, SVG Export Plug-In . SVG Version: 6.00 Build 0)  -->
<!DOCTYPE svg PUBLIC "-//W3C//DTD SVG 1.1//EN" "http://www.w3.org/Graphics/SVG/1.1/DTD/svg11.dtd" [
	<!ENTITY ns_extend "http://ns.adobe.com/Extensibility/1.0/">
	<!ENTITY ns_ai "http://ns.adobe.com/AdobeIllustrator/10.0/">
	<!ENTITY ns_graphs "http://ns.adobe.com/Graphs/1.0/">
	<!ENTITY ns_vars "http://ns.adobe.com/Variables/1.0/">
	<!ENTITY ns_imrep "http://ns.adobe.com/ImageReplacement/1.0/">
	<!ENTITY ns_sfw "http://ns.adobe.com/SaveForWeb/1.0/">
	<!ENTITY ns_custom "http://ns.adobe.com/GenericCustomNamespace/1.0/">
	<!ENTITY ns_adobe_xpath "http://ns.adobe.com/XPath/1.0/">
]>
<svg version="1.1" xmlns:x="&ns_extend;" xmlns:i="&ns_ai;" xmlns:graph="&ns_graphs;"
	 xmlns="http://www.w3.org/2000/svg" xmlns:xlink="http://www.w3.org/1999/xlink" x="0px" y="0px" width="750px" height="750px"
	 viewBox="0 0 750 750" enable-background="new 0 0 750 750" xml:space="preserve">
<metadata>
	<sfw  xmlns="&ns_sfw;">
		<slices></slices>
		<sliceSourceBounds  bottomLeftOrigin="true" height="7771.218" width="4329.244" x="-2249.244" y="-33"></sliceSourceBounds>
	</sfw>
</metadata>
<g id="FILL-BACKGROUND">
	<rect fill="transparent" width="750" height="750"/>
</g>
<g id="N-TEXT">
</g>
<g id="N-DIMENSIONS">
</g>
<g id="_x32_D_x24_AG-DIAGRAM">
	<g id="POLYLINE_00000080195302718866631980000017793276399767773320_">
		<g>
			<g>

					<line fill="none" stroke="#000000" stroke-width="3.25" stroke-linecap="round" stroke-linejoin="round" x1="620.15" y1="606" x2="618.15" y2="606"/>

					<line fill="none" stroke="#000000" stroke-width="3.25" stroke-linecap="round" stroke-linejoin="round" stroke-dasharray="3.9617,6.933" x1="611.217" y1="606" x2="135.316" y2="606"/>

					<line fill="none" stroke="#000000" stroke-width="3.25" stroke-linecap="round" stroke-linejoin="round" x1="131.85" y1="606" x2="129.85" y2="606"/>
			</g>
		</g>
	</g>
</g>
<g id="_x32_D_x24_AG-DETAILS-DIAGRAM">
</g>
<g id="_x32_D_x24_AG-BUILDINGS">
	<g id="POLYLINE_00000090263937767432096460000003023240540847377570_">

			<polyline fill="none" stroke="#000000" stroke-width="2.75" stroke-linecap="round" stroke-linejoin="round" stroke-miterlimit="10" points="
			598.423,606 154.311,606 154.383,603.228 		"/>
	</g>
	<g id="POLYLINE_00000147192041535321543090000004207978203338850214_">

			<line fill="none" stroke="#000000" stroke-width="2.75" stroke-linecap="round" stroke-linejoin="round" stroke-miterlimit="10" x1="512.165" y1="164.933" x2="514.44" y2="164.926"/>
	</g>
	<g id="POLYLINE_00000145032994973991679160000011418522263204840601_">

			<line fill="none" stroke="#000000" stroke-width="2.75" stroke-linecap="round" stroke-linejoin="round" stroke-miterlimit="10" x1="453.217" y1="165.093" x2="455.395" y2="165.09"/>
	</g>
	<g id="POLYLINE_00000137104127097566001750000013734706592624836523_">

			<line fill="none" stroke="#000000" stroke-width="2.75" stroke-linecap="round" stroke-linejoin="round" stroke-miterlimit="10" x1="379.241" y1="164.26" x2="382.487" y2="164.326"/>
	</g>
	<g id="POLYLINE_00000058584712636130727280000005399219194371688860_">

			<line fill="none" stroke="#000000" stroke-width="2.75" stroke-linecap="round" stroke-linejoin="round" stroke-miterlimit="10" x1="301.488" y1="163.611" x2="304.339" y2="163.594"/>
	</g>
	<g id="POLYLINE_00000004504179641748052240000017972448939634480020_">

			<line fill="none" stroke="#000000" stroke-width="2.75" stroke-linecap="round" stroke-linejoin="round" stroke-miterlimit="10" x1="220.382" y1="164.945" x2="223.938" y2="164.849"/>
	</g>
	<g id="POLYLINE_00000026133877376617239960000008133421796494516142_">

			<line fill="none" stroke="#000000" stroke-width="2.75" stroke-linecap="round" stroke-linejoin="round" stroke-miterlimit="10" x1="160.782" y1="223.824" x2="160.83" y2="220.818"/>
	</g>
	<g id="POLYLINE_00000080908313743571300460000015159790750967489189_">

			<line fill="none" stroke="#000000" stroke-width="2.75" stroke-linecap="round" stroke-linejoin="round" stroke-miterlimit="10" x1="160.386" y1="298.215" x2="160.39" y2="295.192"/>
	</g>
	<g id="POLYLINE_00000179647245078101004280000009548875221945138318_">

			<line fill="none" stroke="#000000" stroke-width="2.75" stroke-linecap="round" stroke-linejoin="round" stroke-miterlimit="10" x1="158.677" y1="382.349" x2="158.802" y2="379.461"/>
	</g>
	<g id="POLYLINE_00000109720827329360986010000004942452410561674892_">

			<line fill="none" stroke="#000000" stroke-width="2.75" stroke-linecap="round" stroke-linejoin="round" stroke-miterlimit="10" x1="157.966" y1="444.979" x2="157.843" y2="440.94"/>
	</g>
	<g id="POLYLINE_00000028286214885020503740000003514103814749676960_">

			<line fill="none" stroke="#000000" stroke-width="2.75" stroke-linecap="round" stroke-linejoin="round" stroke-miterlimit="10" x1="156.804" y1="541.624" x2="156.97" y2="537.318"/>
	</g>
	<g id="POLYLINE_00000173143612826932689580000011844362578154607004_">

			<path fill="none" stroke="#000000" stroke-width="2.75" stroke-linecap="round" stroke-linejoin="round" stroke-miterlimit="10" d="
			M598.423,603.099c-3.494-0.285-9.058-0.617-12.549-0.927l-12.949-1.304c-2.71-0.225-5.557-0.394-8.276-0.336
			c-2.035,0.051-5.217,0.256-7.201,0.055c-1.173-0.12-2.371-0.389-3.362-1.054c-1.441-0.972-2.295-2.562-3.013-4.1
			c-0.549-1.134-3.188-7.915-3.729-9.236c-1.454-3.534-3.656-8.742-5.221-12.18c-2.942-6.643-7.188-14.542-10.337-21.107
			c-0.724-1.563-1.475-3.235-2.026-4.866c-0.288-0.863-0.545-1.756-0.635-2.664c-0.075-0.747-0.016-1.522,0.275-2.221
			c0.272-0.666,0.737-1.237,1.263-1.72c1.161-1.051,2.582-1.784,3.987-2.451c6.631-2.985,18.499-6.695,25.311-9.353
			c3.588-1.351,7.436-2.916,10.926-4.503c4.499-2.024,13.971-6.805,18.471-9.03c2.92-1.396,6.016-2.803,9.065-3.885"/>
	</g>
	<g id="POLYLINE_00000104692166038550593910000003136153206835107200_">

			<path fill="none" stroke="#000000" stroke-width="2.75" stroke-linecap="round" stroke-linejoin="round" stroke-miterlimit="10" d="
			M598.423,156.379c-1.9-0.382-3.907-0.376-5.84-0.379c-13.522,0.232-28.666,0.489-42.107,1.695
			c-5.733,0.506-13.464,1.495-19.147,1.376c-2.976-0.011-6.497-0.547-9.457-0.183c-1.27,0.156-2.543,0.505-3.627,1.202
			c-1.561,1.008-2.618,2.609-3.486,4.217c-1.2,2.242-2.442,5.621-3.404,8.014c-0.856,2.117-1.938,4.422-2.961,6.472
			c-1.751,3.559-3.824,7.405-5.093,11.151c-1.313,3.752-2.062,7.716-2.179,11.69c-0.14,4.698,0.463,9.496,1.148,14.139
			c1.184,7.33,2.565,15.966,4.156,23.201c0.471,2.013,0.991,4.082,1.835,5.975c0.567,1.269,1.343,2.508,2.527,3.282
			c0.914,0.611,1.993,0.924,3.065,1.12c1.741,0.317,3.578,0.394,5.346,0.448c6.082,0.066,28.8-0.143,34.77-0.213
			c4.348-0.114,8.969-0.257,13.279-0.84c2.143-0.299,4.312-0.709,6.321-1.537c1.086-0.441,2.125-1.02,3.098-1.672
			c0.492-0.314,1.003-0.713,1.475-1.053c5.647-4.292,14.646-10.723,20.281-15.027"/>
	</g>
	<g id="POLYLINE_00000164492645041623660850000008947573023450098308_">

			<path fill="none" stroke="#000000" stroke-width="2.75" stroke-linecap="round" stroke-linejoin="round" stroke-miterlimit="10" d="
			M598.423,236.504c-3.743,2.609-8.511,5.638-12.028,8.51c-0.701,0.586-1.388,1.217-1.968,1.924c-0.553,0.67-1.014,1.42-1.362,2.216
			c-0.541,1.238-0.842,2.581-1.079,3.906c-0.612,3.557-1.042,9.982-1.414,13.634c-0.289,2.904-0.878,7.514-1.262,10.436
			l-5.362,35.698c-0.284,1.364-0.547,2.79-0.418,4.187c0.051,0.409,0.136,0.846,0.415,1.165c0.228,0.259,0.586,0.346,0.92,0.333
			c0.494-0.018,0.972-0.18,1.429-0.359c0.511-0.204,1.024-0.461,1.51-0.719c2.601-1.408,5.836-3.484,8.355-5.077
			c3-1.961,9.344-6.147,12.265-8.131"/>
	</g>
	<g id="POLYLINE_00000150091980492837258230000017419051525010707875_">

			<path fill="none" stroke="#000000" stroke-width="2.75" stroke-linecap="round" stroke-linejoin="round" stroke-miterlimit="10" d="
			M598.423,310.764l-2.739,2.294L574.45,329.89c-3.116,2.566-6.245,5.359-9.019,8.285c-2.795,2.927-5.479,6.214-7.921,9.441
			c-3.887,5.187-7.651,10.647-10.852,16.287c-1.444,2.589-2.781,5.348-3.078,8.335c-0.084,0.894-0.12,1.861,0.242,2.701
			c0.126,0.281,0.312,0.54,0.56,0.726c0.283,0.214,0.626,0.336,0.971,0.406c0.969,0.183,1.971,0.06,2.939-0.072
			c4.916-0.864,10.931-2.018,15.752-3.25c7.28-1.884,14.693-4.398,21.708-7.113l12.671-5.12"/>
	</g>
	<g id="POLYLINE_00000176765052999785334610000000621273633428694689_">

			<path fill="none" stroke="#000000" stroke-width="2.75" stroke-linecap="round" stroke-linejoin="round" stroke-miterlimit="10" d="
			M598.423,448.316c-9.717,0.006-21.633-1.498-31.333-0.977c-2.371,0.121-7.477,0.481-9.782,0.467
			c-1.394-0.013-2.82-0.087-4.158-0.506c-0.833-0.263-1.641-0.693-2.214-1.366c-0.475-0.553-0.76-1.246-0.93-1.949
			c-0.458-2.013-0.222-4.169,0.036-6.197c1.658-10.304,4.027-20.872,6.785-30.934c1.747-6.216,3.893-13.707,6.024-19.776
			c0.888-2.48,1.991-4.975,3.857-6.881c1.312-1.359,2.902-2.434,4.536-3.369c1.478-0.847,3.095-1.6,4.656-2.282
			c6.641-2.858,15.619-5.698,22.523-8.009"/>
	</g>
	<g id="POLYLINE_00000011032287878302061280000012569012209328803516_">

			<path fill="none" stroke="#000000" stroke-width="2.75" stroke-linecap="round" stroke-linejoin="round" stroke-miterlimit="10" d="
			M598.423,509.924c-11.151,4.399-55.399,21.526-66.115,26.24c-0.939,0.443-3.186,1.505-4.107,1.855
			c-0.484,0.178-0.985,0.327-1.497,0.399c-0.967,0.148-1.953-0.029-2.872-0.339c-0.821-0.274-1.625-0.653-2.394-1.051
			c-4.516-2.477-9.648-5.751-14.026-8.494c-6.12-3.996-12.723-7.998-18.027-13.053c-1.875-1.825-3.604-3.899-4.552-6.366
			c-0.601-1.526-0.903-3.164-1.041-4.794c-0.158-1.87-0.145-3.852-0.102-5.728c0.196-6.07,0.945-14.931,1.307-21.017
			c0.344-4.5,1.004-9.088,2.127-13.462l2.182-8.27c0.041-0.116,0.096-0.378,0.135-0.487c0.108-0.369,0.232-0.747,0.389-1.099
			c0.237-0.542,0.574-1.047,1.022-1.436c0.705-0.614,1.605-0.951,2.492-1.21c1.772-0.493,3.642-0.676,5.472-0.807
			c1.768-0.126,4.022-0.16,5.806-0.183c15.047-0.071,41.849,0.651,56.94,0.65c6.443-0.007,30.885-0.666,36.862-0.219"/>
	</g>
	<g id="POLYLINE_00000026869713833688273570000014079905931849818791_">

			<path fill="none" stroke="#000000" stroke-width="2.75" stroke-linecap="round" stroke-linejoin="round" stroke-miterlimit="10" d="
			M489.965,322.52c-0.334-1.188-0.224-2.453-0.09-3.664c0.141-1.175,0.397-2.466,0.646-3.627c1.1-4.768,4.371-17.651,5.599-22.376
			c1.631-6.037,3.432-12.183,6.477-17.679l2.823-5.094c1.045-1.891,2.183-4.484,3.054-6.485c0.612-1.358,1.277-2.87,2.048-4.137
			c0.427-0.698,0.905-1.384,1.513-1.937c0.697-0.643,1.582-1.049,2.499-1.268c0.49-0.122,1.025-0.208,1.526-0.28
			c2.637-0.352,5.68-0.648,8.337-0.864c11.999-1.089,29.311-0.387,41.385-1.046l4.024-0.317c0.906-0.049,1.861-0.116,2.766-0.008
			c0.57,0.065,1.142,0.198,1.652,0.468c1.091,0.574,1.755,1.707,2.093,2.859c0.322,1.082,0.401,2.225,0.386,3.349
			c-0.024,1.709-0.27,3.511-0.503,5.205c-2.546,15.812-4.512,36.134-6.352,52.147c-0.204,1.227-0.428,2.54-1.179,3.564
			c-0.365,0.491-0.872,0.861-1.422,1.119c-0.605,0.286-1.265,0.459-1.919,0.593c-1.321,0.273-2.884,0.408-4.229,0.561
			c-4.488,0.477-10.066,0.57-14.607,0.687c-5.869,0.062-44.597,1.038-49.614,0.774c-1.042-0.049-2.198-0.085-3.235-0.224
			c-0.573-0.079-1.166-0.179-1.714-0.372c-0.484-0.168-0.952-0.416-1.309-0.789C490.307,323.357,490.092,322.948,489.965,322.52z"/>
	</g>
	<g id="POLYLINE_00000165224906154082863300000003135423149944882101_">

			<path fill="none" stroke="#000000" stroke-width="2.75" stroke-linecap="round" stroke-linejoin="round" stroke-miterlimit="10" d="
			M301.778,268.054c-1.093-1.173-2.697-1.674-4.236-1.935c-1.177-0.197-2.405-0.26-3.598-0.284
			c-3.636-0.058-8.824,0.299-12.454,0.208c-2.346-0.047-4.773-0.281-7.096-0.617c-5.642-0.895-17.279-3.177-22.835-4.236
			l-5.331-1.133c-1.141-0.212-2.328-0.459-3.495-0.406c-0.56,0.027-1.148,0.166-1.561,0.568c-0.404,0.39-0.603,0.937-0.741,1.47
			c-0.184,0.717-0.271,1.496-0.36,2.232c-0.362,2.857-1.034,18.402-1.213,21.595c-0.145,3.852-0.401,7.889,0.035,11.722
			c0.204,1.556,0.55,3.26,1.766,4.356c1.009,0.893,2.364,1.246,3.657,1.503c1.804,0.335,3.789,0.465,5.532,1.062
			c3.926,1.334,7.604,3.608,11.162,5.712c4.944,3,13.152,8.052,17.915,11.229c1.003,0.62,2.176,1.371,3.23,1.901
			c0.802,0.405,1.642,0.798,2.538,0.936c0.776,0.126,1.534-0.015,2.251-0.336c0.754-0.32,1.428-0.825,1.944-1.462
			c0.508-0.618,0.884-1.337,1.184-2.076c0.411-1,0.716-2.102,0.997-3.147c0.81-3.255,1.664-7.497,2.621-10.694
			c1.478-4.995,4.604-13.334,6.026-18.317c0.99-3.386,2.033-7.063,2.708-10.521c0.307-1.609,0.596-3.274,0.642-4.913
			C303.108,270.915,302.897,269.225,301.778,268.054z"/>
	</g>
	<g id="POLYLINE_00000085234345574364788900000010731690492322783113_">

			<path fill="none" stroke="#000000" stroke-width="2.75" stroke-linecap="round" stroke-linejoin="round" stroke-miterlimit="10" d="
			M208.807,227.155c0.579-0.234,1.214-0.299,1.833-0.34c3.103-0.138,7.807,0.583,10.934,0.867c1.306,0.132,6.79,0.525,8.203,0.63
			c1.415,0.137,2.89,0.263,4.266,0.631c0.592,0.162,1.175,0.387,1.694,0.718c0.462,0.293,0.872,0.671,1.214,1.097
			c0.344,0.428,0.566,0.943,0.681,1.478c0.144,0.654,0.174,1.344,0.188,2.013c0.014,3.413-0.511,7.883-0.683,11.306
			c-0.606,12.211-1.362,28.096-2.748,40.13c-0.329,2.789-0.698,5.84-1.271,8.588c-0.231,1.031-0.468,2.11-0.934,3.066
			c-0.121,0.234-0.26,0.469-0.456,0.647l-0.015,0.013l-0.015,0.013l-0.015,0.012l-0.015,0.012l-0.015,0.011l-0.015,0.011
			l-0.015,0.01l-0.015,0.01l-0.015,0.009l-0.015,0.009l-0.015,0.009l-0.015,0.008l-0.015,0.008l-0.015,0.007l-0.015,0.007
			l-0.015,0.006l-0.015,0.006l-0.015,0.005l-0.015,0.005l-0.015,0.005l-0.015,0.004l-0.015,0.004l-0.016,0.003l-0.016,0.003
			l-0.016,0.002l-0.016,0.002l-0.016,0.001l-0.016,0.001l-0.016,0.001l-0.016,0l-0.016,0l-0.016-0.001l-0.016-0.001l-0.016-0.002
			l-0.016-0.002l-0.016-0.003l-0.016-0.003l-0.016-0.003l-0.016-0.004l-0.016-0.004l-0.016-0.005l-0.016-0.005l-0.016-0.006
			l-0.016-0.006l-0.016-0.007l-0.016-0.007l-0.016-0.007l-0.016-0.008l-0.016-0.008l-0.017-0.009l-0.017-0.009l-0.017-0.01
			l-0.017-0.01l-0.017-0.011c-0.191-0.126-0.346-0.301-0.484-0.482c-0.248-0.329-0.452-0.7-0.637-1.069
			c-0.439-0.887-0.803-1.869-1.136-2.801c-1.504-4.292-3.312-11.114-4.875-15.372c-3.994-10.618-11.885-30.136-15.083-40.74
			c-0.483-1.64-0.995-3.399-1.284-5.082c-0.108-0.651-0.179-1.318-0.151-1.978c0.025-0.619,0.143-1.239,0.303-1.837
			c0.099-0.354,0.246-0.704,0.488-0.985C208.234,227.462,208.51,227.277,208.807,227.155z"/>
	</g>
	<g id="POLYLINE_00000162334491427404283800000015806445409009180807_">

			<path fill="none" stroke="#000000" stroke-width="2.75" stroke-linecap="round" stroke-linejoin="round" stroke-miterlimit="10" d="
			M157.93,294.74c-0.858-0.272-1.67-0.774-2.165-1.542c-0.407-0.617-0.621-1.341-0.749-2.063c-0.205-1.191-0.212-2.445-0.216-3.652
			c0.102-7.384,0.379-23.494,0.602-30.74l0.653-13.215c0.07-1.981,0.059-4.082-0.055-6.061c-0.126-2.777-0.716-7.78-0.413-10.53
			c0.065-0.537,0.16-1.087,0.397-1.579c0.138-0.288,0.333-0.551,0.582-0.752c0.334-0.272,0.746-0.43,1.16-0.534
			c0.997-0.245,2.049-0.254,3.071-0.246c0.322-0.062,26.325,1.859,27.365,1.946c2.177,0.209,5.186,0.376,7.341,0.652
			c1.328,0.168,2.692,0.39,3.888,1.021c1.565,0.812,2.616,2.306,3.461,3.807c0.762,1.36,1.412,2.837,2.002,4.279
			c0.737,1.762,1.562,4.165,2.204,5.981c2.468,7.407,8.033,23.942,10.573,31.158c0.989,2.817,2.354,6.464,3.473,9.22
			c0.655,1.632,2.861,6.625,3.401,8.273c0.469,1.375,0.919,2.808,0.934,4.273c0.003,0.66-0.129,1.335-0.476,1.904
			c-0.43,0.724-1.147,1.237-1.922,1.542c-1.414,0.565-2.979,0.47-4.461,0.287c-12.019-1.927-24.606-2.851-36.773-3.145
			c-4.645-0.124-11.702,0.123-16.4,0.27c-1.459,0.009-3.116,0.051-4.571-0.065C159.861,295.153,158.866,295.041,157.93,294.74z"/>
	</g>
	<g id="POLYLINE_00000016068280651217304530000010488503106671182492_">

			<path fill="none" stroke="#000000" stroke-width="2.75" stroke-linecap="round" stroke-linejoin="round" stroke-miterlimit="10" d="
			M241.092,252.046c-0.221-0.168-0.416-0.374-0.557-0.614c-0.311-0.53-0.433-1.148-0.522-1.75c-0.145-1.049-0.152-2.142-0.142-3.2
			c0.28-8.598,1.591-20.108,2.28-28.737c0.135-1.127,0.244-2.398,0.456-3.513c0.1-0.502,0.198-1.027,0.383-1.506
			c0.112-0.292,0.26-0.586,0.505-0.789c0.154-0.127,0.34-0.209,0.532-0.26c0.639-0.15,1.342-0.158,1.997-0.197
			c7.002-0.268,27.778,0.603,35.098,0.752c4.549,0.127,13.391-0.117,17.926,0.098c1.465,0.087,2.973,0.195,4.397,0.574
			c0.75,0.204,1.505,0.513,2.05,1.086c0.543,0.565,0.81,1.328,0.997,2.075c0.373,1.536,0.432,3.144,0.398,4.718
			c-0.027,1.179-0.15,2.447-0.289,3.619c-0.335,2.628-3.268,22.261-3.67,24.688c-0.42,2.296-0.821,4.704-1.622,6.902
			c-0.342,0.904-0.783,1.799-1.463,2.498c-0.607,0.632-1.419,1.026-2.26,1.243c-1.118,0.292-2.3,0.335-3.45,0.359
			c-3.636-0.017-17.908,0.107-21.232-0.041c-2.778-0.111-5.626-0.369-8.367-0.827c-7.385-1.227-15.109-4.115-22.203-6.526
			C241.893,252.536,241.461,252.336,241.092,252.046z"/>
	</g>
	<g id="POLYLINE_00000146482726782525451610000012835549673886990747_">

			<path fill="none" stroke="#000000" stroke-width="2.75" stroke-linecap="round" stroke-linejoin="round" stroke-miterlimit="10" d="
			M495.551,271.929c-0.95-0.356-1.769-0.991-2.516-1.664c-1.397-1.281-2.598-2.804-3.72-4.327
			c-3.351-4.619-6.388-10.089-9.209-15.061c-5.255-9.548-11.284-20.398-15.692-30.328c-0.569-1.324-1.163-2.713-1.562-4.099
			c-0.306-1.109-0.565-2.327-0.195-3.45c0.174-0.516,0.508-0.967,0.918-1.321c0.525-0.457,1.155-0.78,1.795-1.045
			c1.104-0.451,2.295-0.74,3.457-1.001c3.431-0.739,9.384-1.594,12.791-2.383c2.712-0.569,5.8-1.644,8.45-2.492
			c0.89-0.264,1.814-0.525,2.735-0.652c0.56-0.076,1.136-0.109,1.697-0.021c0.465,0.072,0.921,0.241,1.293,0.534
			c0.543,0.425,0.894,1.044,1.147,1.675c0.299,0.752,0.475,1.558,0.609,2.354c0.421,2.57,0.55,7.284,0.725,9.94
			c0.161,2.735,0.416,5.651,0.798,8.359c0.362,2.605,0.983,5.723,1.54,8.309c0.916,4.319,2.731,11.759,3.234,16.075
			c0.19,1.553,0.282,3.15,0.203,4.714c-0.089,2.181-0.584,4.427-1.022,6.561c-0.357,1.654-0.747,3.382-1.378,4.956
			c-0.465,1.16-1.07,2.292-1.938,3.203c-0.556,0.582-1.24,1.07-2.024,1.282C496.987,272.241,496.23,272.182,495.551,271.929z"/>
	</g>
	<g id="POLYLINE_00000047019505234239951840000005455931672941992355_">

			<path fill="none" stroke="#000000" stroke-width="2.75" stroke-linecap="round" stroke-linejoin="round" stroke-miterlimit="10" d="
			M457.6,158.991c0.656-0.272,1.365-0.424,2.065-0.539c1.31-0.208,2.691-0.277,4.018-0.309c5.349-0.113,15.26,0.664,20.651,0.775
			c7.591,0.266,16.619-0.111,24.25-0.48c1.046-0.022,2.288-0.062,3.325-0.004c0.294,0.019,0.596,0.048,0.884,0.108
			c0.371,0.079,0.761,0.215,1.005,0.521c0.21,0.262,0.257,0.614,0.246,0.94c-0.037,0.745-0.296,1.464-0.563,2.154
			c-0.515,1.283-1.199,2.572-1.861,3.787c-1.073,2.037-7.7,12.72-9.005,14.895c-1.873,3.102-6.041,10.596-7.927,13.786
			c-0.371,0.6-0.778,1.215-1.207,1.774c-0.591,0.773-1.263,1.494-2.017,2.112c-1.655,1.355-3.666,2.207-5.663,2.926
			c-2.628,0.956-6.957,1.98-9.708,2.696c-1.537,0.391-3.203,0.793-4.765,1.055c-1.941,0.329-3.96,0.526-5.925,0.636
			c-1.64,0.085-3.346,0.122-4.986,0.016c-0.592-0.043-1.196-0.105-1.768-0.269c-0.4-0.116-0.791-0.29-1.107-0.566
			c-0.262-0.225-0.46-0.519-0.591-0.838c-0.169-0.405-0.254-0.842-0.31-1.275c-0.165-1.213-0.069-3.944-0.087-5.197
			c-0.18-6.401-0.862-27.289-1.189-33.383c-0.018-0.589-0.026-1.21,0.018-1.797c0.041-0.526,0.121-1.057,0.293-1.558
			c0.143-0.42,0.366-0.816,0.673-1.138C456.693,159.454,457.136,159.185,457.6,158.991z"/>
	</g>
	<g id="POLYLINE_00000013885129146273143190000010009434916904213428_">

			<path fill="none" stroke="#000000" stroke-width="2.75" stroke-linecap="round" stroke-linejoin="round" stroke-miterlimit="10" d="
			M306.771,173.952c-0.743-0.486-1.43-1.083-1.937-1.818c-0.438-0.629-0.725-1.362-0.837-2.12c-0.267-1.846,0.155-4.01,0.296-5.86
			c0.1-1.142,0.175-2.951,0.414-4.057c0.089-0.425,0.208-0.852,0.391-1.247c0.198-0.434,0.493-0.833,0.89-1.104
			c0.494-0.344,1.089-0.507,1.678-0.596c1.746-0.274,4.978,0.101,6.763,0.141c7.837,0.159,22.294,0.473,30.192,0.783
			c9.69,0.184,19.65-0.547,29.263-1.746c1.001-0.094,2.03-0.176,3.03-0.038c0.658,0.093,1.326,0.31,1.822,0.768
			c0.352,0.32,0.593,0.744,0.757,1.187c0.243,0.661,0.339,1.371,0.365,2.072c0.037,1.35-0.162,2.718-0.634,3.986
			c-0.719,1.923-2.351,3.579-3.559,5.207c-2.506,3.339-4.747,7.022-6.853,10.623c-1.812,3.138-3.601,6.438-4.985,9.79
			c-0.25,0.539-0.515,1.099-0.957,1.509c-0.335,0.314-0.779,0.485-1.228,0.555c-0.563,0.09-1.142,0.061-1.707,0
			c-1.227-0.141-2.461-0.47-3.649-0.803c-1.827-0.515-4.161-1.314-5.966-1.92c-8.752-3.141-22.056-7.891-30.824-10.74
			c-1.633-0.528-7.825-2.443-9.324-2.983C308.998,175.119,307.818,174.635,306.771,173.952z"/>
	</g>
	<g id="POLYLINE_00000099630124835891562840000007438549837481757873_">

			<path fill="none" stroke="#000000" stroke-width="2.75" stroke-linecap="round" stroke-linejoin="round" stroke-miterlimit="10" d="
			M365.335,202.958c-0.224-0.57-0.347-1.182-0.431-1.787c-0.127-0.934-0.148-1.906-0.125-2.848c0.099-3.175,0.744-6.354,2.016-9.271
			c0.627-1.469,1.423-2.931,2.229-4.311c3.853-6.501,10.696-15.914,14.699-22.337c0.764-1.137,1.54-2.319,2.596-3.207
			c0.853-0.725,1.925-1.108,3.019-1.285c1.255-0.21,2.614-0.248,3.887-0.297c6.556-0.107,17.09,0.086,23.565-0.242
			c6.043-0.261,19.553-1.168,25.446-1.017c1.995,0.044,4.076,0.14,6.049,0.449c1.1,0.182,2.23,0.417,3.203,0.984
			c0.403,0.239,0.771,0.547,1.046,0.928c0.253,0.348,0.422,0.752,0.532,1.166c0.15,0.557,0.203,1.142,0.229,1.716
			c0.077,1.187-0.194,5.906-0.224,7.177c-0.147,6.066-0.132,12.476,0.214,18.532c0.106,1.716,0.443,4.839,0.334,6.518
			c-0.045,0.687-0.159,1.378-0.406,2.022c-0.199,0.524-0.49,1.019-0.874,1.429c-0.349,0.375-0.774,0.676-1.234,0.896
			c-0.846,0.404-1.786,0.598-2.705,0.754c-1.121,0.188-3.669,0.466-4.81,0.635c-1.175,0.169-2.478,0.419-3.642,0.669
			c-6.204,1.377-13.084,3.475-19.407,4.136c-3.11,0.375-6.509,0.573-9.645,0.702c-8.387,0.22-26.06,0.629-34.304,0.622
			c-1.942-0.026-4.075-0.076-6.009-0.261c-0.951-0.099-1.948-0.216-2.872-0.471c-0.554-0.156-1.104-0.382-1.54-0.765
			C365.791,203.867,365.519,203.426,365.335,202.958z"/>
	</g>
	<g id="POLYLINE_00000081612565903422087750000008038273801861062539_">

			<path fill="none" stroke="#000000" stroke-width="2.75" stroke-linecap="round" stroke-linejoin="round" stroke-miterlimit="10" d="
			M246.711,204.573c-0.536-0.354-1.002-0.812-1.426-1.292c-0.759-0.867-1.424-1.861-2.051-2.828
			c-1.113-1.77-6.003-9.654-7.202-11.584c-1.608-2.695-3.303-5.702-4.712-8.496c-1.798-3.521-5.992-12.522-7.694-16.224
			c-0.203-0.498-0.383-1.022-0.4-1.565c-0.024-0.638,0.216-1.267,0.609-1.764c0.541-0.694,1.346-1.128,2.178-1.376
			c1.35-0.399,2.784-0.474,4.183-0.521c0.967-0.044,7.186,0.029,8.283,0.031c1.889,0.004,7.037-0.1,8.984-0.14
			c12.478-0.414,29.493-0.946,41.916-1.804c0.637-0.07,6.399-0.55,6.868-0.585c0.915-0.053,1.856-0.096,2.765,0.048
			c0.447,0.074,0.895,0.202,1.279,0.449c0.269,0.171,0.494,0.406,0.66,0.678c0.235,0.382,0.364,0.821,0.449,1.259
			c0.25,1.408,0.138,2.96,0.104,4.386c-0.088,2.024-0.26,4.087-0.692,6.068c-0.27,1.225-0.651,2.444-1.246,3.553
			c-0.827,1.572-2.084,2.88-3.488,3.951c-1.161,0.893-2.46,1.682-3.725,2.42c-3.024,1.732-6.647,3.638-9.539,5.569
			c-4.801,3.206-9.07,7.222-13.004,11.43l-3.619,4.001c-1.039,1.115-2.159,2.194-3.462,2.998c-1.179,0.738-2.503,1.243-3.861,1.535
			c-1.876,0.402-3.851,0.505-5.766,0.567c-1.238,0.009-2.897,0.112-4.12-0.007C248.181,205.254,247.384,205.023,246.711,204.573z"/>
	</g>
	<g id="POLYLINE_00000149358294591184504520000002055807634068664479_">

			<path fill="none" stroke="#000000" stroke-width="2.75" stroke-linecap="round" stroke-linejoin="round" stroke-miterlimit="10" d="
			M156.754,220.138c-1.037-0.655-1.55-1.861-1.802-3.019c-0.156-0.72-0.236-1.471-0.288-2.205c-0.129-1.778-0.096-5.773-0.128-7.6
			c-0.222-11.567-1.679-27.467-1.485-38.99c0.054-1.827,0.108-3.734,0.44-5.532c0.129-0.628,0.289-1.28,0.673-1.806
			c0.238-0.327,0.582-0.561,0.955-0.709c1.138-0.421,2.466-0.599,3.668-0.757c3.927-0.458,7.984-0.42,11.929-0.227
			c5.648,0.326,16.806,1.214,22.317,1.074c4.239-0.005,10.231-0.666,14.501-1.054c11.4-0.925,10.921,0.91,14.827,10.622
			c3.577,8.634,8.985,17.483,13.679,25.591c1.291,2.284,2.698,4.647,3.358,7.203c0.591,2.244,0.213,5.077,0.131,7.377
			c-0.068,2.191-0.144,6.424-0.318,8.548c-0.104,1.256-0.238,2.543-0.54,3.768c-0.184,0.729-0.435,1.463-0.889,2.072
			c-0.305,0.411-0.712,0.749-1.182,0.954c-0.777,0.34-1.652,0.349-2.483,0.269c-0.906-0.081-2.75-0.453-3.675-0.613
			c-2.01-0.356-4.262-0.617-6.296-0.826c-19.689-1.717-45.578-2.743-65.362-3.568C158.082,220.645,157.358,220.521,156.754,220.138z
			"/>
	</g>
	<g id="POLYLINE_00000019666627802455335610000008890938955578886021_">

			<path fill="none" stroke="#000000" stroke-width="2.75" stroke-linecap="round" stroke-linejoin="round" stroke-miterlimit="10" d="
			M361.684,204.949c0.335-0.54,0.482-1.176,0.58-1.797c0.171-1.199,0.152-2.431-0.025-3.628c-0.109-0.693-0.308-1.382-0.658-1.994
			c-0.339-0.6-0.821-1.113-1.367-1.53c-0.984-0.747-2.129-1.269-3.272-1.723c-2.005-0.782-4.195-1.358-6.285-1.876l-7.977-1.851
			c-7.954-1.906-15.72-5.086-23.229-8.294c-3.292-1.414-8.553-3.911-11.89-5.033c-0.96-0.317-1.957-0.604-2.961-0.738
			c-0.679-0.09-1.381-0.102-2.049,0.068c-0.815,0.2-1.539,0.659-2.217,1.14c-3.09,2.363-10.154,6.799-13.48,9.001
			c-4.224,2.814-8.418,5.917-12.179,9.324c-1.92,1.754-3.854,3.61-5.473,5.648c-0.868,1.115-1.637,2.376-1.851,3.795
			c-0.085,0.57-0.089,1.171,0.108,1.72c0.092,0.254,0.234,0.491,0.423,0.685c0.296,0.305,0.681,0.508,1.075,0.655
			c0.834,0.305,1.74,0.414,2.619,0.51c5.428,0.45,12.082,0.921,17.505,0.974c9.03,0.109,19.141-0.392,28.172-0.993
			c4.086-0.333,18.725-1.546,22.537-1.805c1.742-0.115,18.239-1.007,19.48-1.159c0.36-0.039,0.729-0.088,1.079-0.182
			c0.286-0.077,0.567-0.188,0.81-0.36C361.369,205.358,361.547,205.166,361.684,204.949z"/>
	</g>
	<g id="POLYLINE_00000021839033251559451580000007875095828998643586_">

			<path fill="none" stroke="#000000" stroke-width="2.75" stroke-linecap="round" stroke-linejoin="round" stroke-miterlimit="10" d="
			M339.445,291.319c-1.029-0.873-2.094-2.704-2.891-3.811c-4.861-6.722-13.557-15.694-19.018-22.026
			c-2.495-2.887-5.011-5.919-7.088-9.123c-0.837-1.318-1.625-2.708-2.044-4.223c-0.474-1.731-0.559-3.566-0.625-5.351
			c-0.101-3.593,0.155-7.287,0.584-10.855c0.54-4.007,1.704-12.851,2.155-16.776c0.115-0.921,0.246-2.012,0.432-2.915
			c0.159-0.774,0.359-1.556,0.699-2.272c0.227-0.474,0.528-0.925,0.943-1.253c0.509-0.408,1.147-0.616,1.781-0.728
			c0.462-0.082,0.946-0.119,1.415-0.144c1.405-0.042,3.265-0.136,4.657-0.269c10.582-1.126,22.394-2.514,33.002-2.808
			c7.157-0.174,20.204-0.307,27.17-0.964c1.373-0.075,2.792-0.143,4.159,0.024c0.879,0.11,1.765,0.339,2.518,0.818
			c0.595,0.374,1.085,0.913,1.389,1.547c0.25,0.515,0.39,1.08,0.479,1.644c0.137,0.885,0.162,1.815,0.178,2.71
			c0.018,4.209-0.064,15.491,0.088,19.451c0.168,6.782,1.322,26.306,1.424,33.007c0.054,3.682,0.064,7.581-0.239,11.247
			c-0.144,1.568-0.3,3.185-0.733,4.703c-0.184,0.635-0.424,1.263-0.741,1.844c-0.281,0.519-0.631,1.01-1.005,1.466
			c-0.669,0.837-3.411,3.559-4.199,4.383c-0.617,0.614-1.26,1.236-1.978,1.73c-0.419,0.288-0.877,0.523-1.36,0.682
			c-0.611,0.203-1.258,0.295-1.897,0.356c-2.618,0.216-5.583,0.233-8.216,0.272c-6.068,0.026-13.101-0.008-19.156-0.238
			c-2.186-0.102-4.685-0.223-6.852-0.492c-0.905-0.116-1.851-0.251-2.732-0.493C340.916,292.237,340.102,291.885,339.445,291.319z"
			/>
	</g>
	<g id="POLYLINE_00000121275968815397841350000008308809791870822560_">

			<path fill="none" stroke="#000000" stroke-width="2.75" stroke-linecap="round" stroke-linejoin="round" stroke-miterlimit="10" d="
			M151.702,601.36c-0.606-1.079-0.954-2.292-1.234-3.491c-0.42-1.881-0.622-3.826-0.643-5.752
			c-0.056-3.592,0.831-9.359,1.139-12.976c0.421-4.861,0.449-10.115,0.364-15.002c-0.028-2.743-0.393-10.616-0.45-13.434
			c0.014-0.49,0.018-1.004,0.093-1.49c0.108-0.811,0.366-1.603,0.763-2.319c0.494-0.9,1.159-1.705,1.86-2.451
			c1.014-1.074,2.178-2.045,3.358-2.933c3.349-2.487,7.114-4.443,11.03-5.871c7.911-2.908,17.673-4.139,25.986-5.564
			c9.724-1.555,19.721-1.794,29.542-1.256c7.466,0.515,15.294,1.329,21.856,5.215c4.186,2.466,7.508,6.142,10.445,9.958
			c4.714,6.124,9.258,13.452,14.643,19.006c1.969,2.007,4.217,3.775,6.525,5.376c3.841,2.69,8.49,5.416,11.491,9.074
			c0.652,0.809,1.232,1.694,1.649,2.648c0.453,1.029,0.731,2.138,0.824,3.258c0.122,1.466-0.07,2.961-0.571,4.345
			c-0.472,1.324-1.232,2.673-1.717,3.992c-0.299,0.797-0.512,1.634-0.598,2.481c-0.192,1.777,0.033,3.709-0.15,5.486
			c-0.08,0.68-0.239,1.406-0.738,1.907c-0.542,0.537-1.323,0.712-2.057,0.795c-0.546,0.063-1.133,0.067-1.684,0.065
			c-2.836-0.097-6.896-0.167-9.728-0.157c-18.69,0.327-64.604,1.045-82.733,0.846l-24.734,0.592
			c-3.28,0.016-6.793,0.052-10.056-0.227c-0.754-0.074-1.526-0.162-2.255-0.371c-0.47-0.136-0.93-0.336-1.313-0.645
			C152.231,602.168,151.939,601.775,151.702,601.36z"/>
	</g>
	<g id="POLYLINE_00000164501444201889898200000000844717530430596520_">

			<path fill="none" stroke="#000000" stroke-width="2.75" stroke-linecap="round" stroke-linejoin="round" stroke-miterlimit="10" d="
			M253.364,533.195c0.433,1.217,1.255,2.265,2.023,3.287c1.034,1.318,3.024,3.8,3.96,5.14c1.279,1.787,4.369,6.467,5.634,8.349
			c1.873,2.728,3.88,5.441,6.497,7.505c1.648,1.308,4.249,3.145,5.848,4.495c2.246,1.89,5.989,5.299,8.254,7.189
			c0.865,0.703,1.768,1.424,2.71,2.02c0.477,0.296,0.976,0.578,1.511,0.752c0.421,0.138,0.876,0.204,1.316,0.124
			c0.446-0.077,0.854-0.299,1.207-0.577c0.793-0.636,1.399-1.483,1.977-2.311c0.794-1.157,2.457-3.887,3.239-5.06
			c0.516-0.903,14.35-20.46,15.388-21.957c1.567-2.218,3.315-4.619,5.084-6.672c1.459-1.699,3.108-3.327,4.768-4.828
			c1.81-1.652,4.643-3.994,6.357-5.737c0.767-0.789,1.508-1.635,2.075-2.582c0.347-0.584,0.63-1.218,0.764-1.887
			c0.201-0.988,0.049-2.024-0.318-2.956c-0.831-2.103-2.538-3.698-4.217-5.146c-1.693-1.442-3.947-3.174-5.384-4.849
			c-1.964-2.232-3.552-5.403-5.052-7.973c-1.016-1.71-2.096-3.433-3.493-4.861c-0.94-0.957-2.055-1.753-3.39-2.022
			c-0.88-0.19-1.795-0.183-2.687-0.094c-1.333,0.134-2.877,0.491-4.204,0.707c-4.101,0.63-8.869,1.341-12.914,2.221
			c-4.449,0.932-9.402,2.109-13.78,3.332c-2.182,0.626-4.491,1.297-6.595,2.146c-1.356,0.556-2.704,1.211-3.848,2.139
			c-0.734,0.595-1.368,1.323-1.811,2.16c-0.613,1.142-0.908,2.433-1.023,3.717c-0.173,1.683,0.082,3.848,0.201,5.54
			c0.25,3.081-0.248,6.214-1.402,9.08c-0.608,1.496-1.429,2.939-2.586,4.08c-0.823,0.822-1.83,1.453-2.922,1.852l-1.415,0.508
			c-0.561,0.217-1.16,0.451-1.557,0.923C253.057,531.573,253.112,532.468,253.364,533.195z"/>
	</g>
	<g id="POLYLINE_00000025439964379638973760000002345108224810709927_">

			<path fill="none" stroke="#000000" stroke-width="2.75" stroke-linecap="round" stroke-linejoin="round" stroke-miterlimit="10" d="
			M293.458,602.31c-0.361-0.32-0.633-0.73-0.854-1.156c-0.312-0.61-0.522-1.272-0.643-1.946c-0.466-2.384,0.623-4.892,1.305-7.138
			c0.699-2.228,1.066-4.608,1.362-6.921c0.512-3.92,0.78-8.653,2.121-12.372c0.465-1.282,1.121-2.505,1.872-3.641
			c0.657-1.006,1.488-2.088,2.225-3.042c3.779-4.819,9.693-12.29,13.218-17.209l5.573-7.935c2.427-3.392,5.276-6.625,8.16-9.638
			c1.425-1.464,6.344-6.493,7.643-7.88c0.232-0.238,0.483-0.491,0.735-0.706c0.32-0.275,0.673-0.518,1.056-0.697
			c0.725-0.339,1.528-0.478,2.317-0.57c2.411-0.246,4.883-0.057,7.289,0.177c3.853,0.366,11.268,1.733,15.165,2.36
			c4.514,0.71,10.296,1.398,14.856,1.876c2.3,0.23,10.401,0.887,12.524,1.236c1.198,0.182,2.422,0.417,3.584,0.765
			c2.018,0.606,4.066,1.629,5.24,3.448c0.376,0.587,0.638,1.248,0.758,1.935c0.125,0.704,0.115,1.431,0.046,2.141
			c-0.192,2-1.043,4.86-1.503,6.834c-1.871,8.027-2.297,17.664-4.38,25.644c-0.63,2.424-1.404,4.856-2.534,7.097
			c-0.661,1.311-1.466,2.562-2.398,3.696c-1.13,1.426-3.197,3.259-4.513,4.54c-1.068,1.044-2.109,2.162-2.98,3.378
			c-1.094,1.524-1.995,3.221-2.816,4.905c-0.949,1.932-2.184,4.856-3.272,6.69c-0.396,0.666-0.838,1.322-1.363,1.894
			c-0.676,0.752-1.549,1.321-2.514,1.625c-0.799,0.26-1.645,0.378-2.48,0.446c-2.684,0.231-8.205-0.095-10.953-0.125
			c-4.683-0.13-15.338,0.527-20.149,0.731c-4.9,0.248-13.103-0.135-18.093-0.282c-6.677-0.111-14.115-0.107-20.78,0.223
			c-0.958,0.037-2.884,0.295-3.785,0.119C294.115,602.742,293.75,602.571,293.458,602.31z"/>
	</g>
	<g id="POLYLINE_00000048498963538071207150000015137204949719562425_">

			<path fill="none" stroke="#000000" stroke-width="2.75" stroke-linecap="round" stroke-linejoin="round" stroke-miterlimit="10" d="
			M208.291,495.961c-0.491-0.35-0.811-0.888-1.041-1.436c-0.587-1.449-0.649-3.051-0.611-4.596c0.031-1.083,0.143-2.267,0.261-3.346
			c0.381-2.943,1.52-12.629,2.01-15.517c0.324-1.836,0.728-3.698,1.449-5.423c0.499-1.199,1.213-2.316,2.122-3.245
			c1.088-1.127,2.426-1.992,3.775-2.772c2.78-1.562,6.683-3.643,9.248-5.458c1.692-1.163,3.321-2.517,4.847-3.892
			c3.06-2.736,6.44-6.219,9.842-8.515c1.241-0.848,2.601-1.645,3.927-2.354c0.802-0.492,21.565-10.53,23.081-11.283
			c0.962-0.436,5.764-2.685,6.632-3.035c0.338-0.138,0.694-0.271,1.046-0.37c0.499-0.142,1.023-0.221,1.542-0.183
			c0.65,0.044,1.274,0.274,1.853,0.563c1.003,0.506,1.931,1.189,2.823,1.868c3.241,2.65,10.024,7.711,13.448,10.261
			c3.447,2.669,7.068,5.543,10.199,8.567c1.129,1.129,2.286,2.298,3.178,3.628c0.52,0.787,0.918,1.659,1.16,2.571
			c0.226,0.844,0.331,1.727,0.391,2.597c0.205,2.598-0.222,7.637-0.329,10.287c-0.114,4.602-0.54,13.651-0.333,18.138
			c0.009,1.136-0.023,2.319-0.491,3.373c-0.706,1.577-2.143,2.738-3.718,3.384c-0.717,0.293-1.479,0.494-2.238,0.648
			c-2.363,0.495-8.116,0.959-10.579,1.242c-1.26,0.145-2.838,0.367-4.088,0.575c-2.237,0.39-7.552,1.364-9.716,1.637
			c-3.091,0.421-6.568,0.749-9.682,0.926c-5.348,0.371-14.888,0.017-20.342-0.063c-10.887-0.112-27.339,1.09-38.313,1.626
			C209.169,496.344,208.682,496.241,208.291,495.961z"/>
	</g>
	<g id="POLYLINE_00000050650661215744238010000012376810084716887691_">

			<path fill="none" stroke="#000000" stroke-width="2.75" stroke-linecap="round" stroke-linejoin="round" stroke-miterlimit="10" d="
			M153.243,538.038c-0.242-0.117-0.418-0.335-0.532-0.574c-0.219-0.467-0.283-0.993-0.341-1.5
			c-0.335-4.438-0.507-8.991-0.058-13.425c0.257-2.581,1.097-5.486,1.391-8.062c0.49-4.145-0.909-8.49-1.906-12.475
			c-0.633-2.421-0.903-4.954-0.971-7.451c-0.108-3.538,0.001-7.276,0.251-10.808c0.199-2.501,0.651-7.413,0.688-9.874
			c0.037-4.614,0.167-13.442,0.312-18.114c0.015-1.695-0.036-3.461-0.216-5.147c-0.135-1.427-0.412-3.197-0.332-4.619
			c0.037-0.599,0.14-1.213,0.435-1.743c0.334-0.609,0.919-1.103,1.612-1.232c0.413-0.082,0.84,0.006,1.224,0.169
			c0.825,0.359,1.696,1.008,2.486,1.435c1.44,0.799,3.03,1.42,4.568,2.004l8.197,2.94c1.574,0.588,18.91,7.537,20.476,8.175
			c0.927,0.393,4.305,1.902,5.192,2.206c1.05,0.398,3.495,1.116,4.596,1.461c1.448,0.478,2.935,0.975,4.238,1.78
			c0.55,0.348,1.076,0.78,1.383,1.364c0.29,0.536,0.367,1.161,0.32,1.763c-0.12,1.389-0.724,2.818-1.107,4.151
			c-0.453,1.485-0.715,3.04-0.874,4.583c-0.575,5.353-0.269,12.686-0.57,18.073c-0.071,1.468-0.404,3.587-0.606,5.047
			c-0.198,1.444-0.335,3.119-0.435,4.576c-0.332,5.694-0.652,14.141-1.39,19.708c-0.099,0.666-0.223,1.344-0.459,1.977
			c-0.178,0.481-0.442,0.94-0.827,1.284c-0.345,0.315-0.763,0.541-1.193,0.716c-1.616,0.615-3.38,0.939-5.073,1.273
			c-7.442,1.352-17.82,2.859-24.984,4.99c-3.695,1.024-8.086,3.023-11.62,4.569c-0.953,0.385-1.934,0.807-2.965,0.908
			C153.844,538.189,153.523,538.175,153.243,538.038z"/>
	</g>
	<g id="POLYLINE_00000076562735253564279060000010006510636813017012_">

			<path fill="none" stroke="#000000" stroke-width="2.75" stroke-linecap="round" stroke-linejoin="round" stroke-miterlimit="10" d="
			M331.167,442.913c0.234-0.521,0.34-1.095,0.423-1.657c0.201-1.45,0.194-3.004,0.201-4.468c-0.017-2.036-0.091-5.953-0.047-7.935
			c0-0.404,0.233-7.334,0.258-7.971c0.021-1.337,0.055-2.762-0.06-4.094c-0.091-1.083-0.29-2.199-0.876-3.133
			c-0.314-0.487-0.713-0.981-1.215-1.283c-0.375-0.223-0.812-0.321-1.245-0.343c-0.487-0.025-0.984,0.024-1.466,0.089
			c-0.885,0.121-1.855,0.339-2.729,0.54c-1.648,0.392-5.048,1.255-6.658,1.535c-1.641,0.305-3.429,0.548-5.088,0.723
			c-3.705,0.387-9.552,0.733-13.237,1.199c-3.44,0.416-6.945,1.016-10.299,1.892c-1.507,0.4-3.064,0.86-4.508,1.45
			c-0.766,0.318-1.539,0.675-2.222,1.15c-0.453,0.325-0.933,0.729-1.086,1.283c-0.174,0.695,0.284,1.346,0.736,1.831
			c0.925,0.964,2.096,1.676,3.236,2.358c2.444,1.381,5.392,3.002,7.671,4.604c4.07,2.803,9.353,6.991,13.539,9.586
			c0.773,0.476,5.258,3.246,5.922,3.644c0.84,0.502,1.735,0.948,2.694,1.166c1.691,0.375,3.461,0.24,5.175,0.115
			c1.796-0.193,6.959-0.6,8.651-0.904c0.344-0.062,0.7-0.131,1.028-0.253c0.268-0.099,0.523-0.243,0.73-0.442
			C330.897,443.405,331.052,443.166,331.167,442.913z"/>
	</g>
	<g id="POLYLINE_00000163773247848429113140000005582923162277546890_">

			<path fill="none" stroke="#000000" stroke-width="2.75" stroke-linecap="round" stroke-linejoin="round" stroke-miterlimit="10" d="
			M251.831,429.79c-0.39-0.764-0.539-1.63-0.674-2.47c-0.246-1.703-0.311-3.492-0.341-5.212c-0.047-3.564,0.135-7.513,0.343-11.08
			c0.337-4.579,1.41-17.868,1.696-22.181c0.08-1.138,0.241-2.529,0.376-3.646c0.165-1.145,0.33-2.312,0.704-3.408
			c0.39-1.185,1.089-2.241,1.826-3.237c4.757-6.289,12.738-12.746,18.396-18.26c4.008-3.733,9.432-9.757,13.169-13.862
			c1.829-1.95,3.933-4.24,5.916-6.013c2.077-1.898,4.422-3.553,7.038-4.616c1.087-0.432,2.301-0.874,3.452-1.074
			c0.581-0.092,1.184-0.083,1.751,0.082c1.07,0.318,1.972,1.031,2.809,1.745c0.771,0.663,1.558,1.464,2.273,2.19
			c5.634,6.015,14.352,14.436,19.353,20.859c1.619,2.091,3.156,4.325,4.066,6.825c1.145,3.134,1.168,6.558,0.855,9.844
			c-0.902,8.587-4.277,20.003-5.852,28.517c-0.21,0.952-0.474,1.93-1.059,2.727c-0.357,0.492-0.82,0.9-1.318,1.244
			c-0.755,0.519-1.597,0.915-2.45,1.246c-2.855,1.077-5.919,1.549-8.945,1.825c-5.593,0.492-12.213,0.273-17.794,0.911
			c-4.986,0.557-9.839,2.083-14.441,4.045c-8.09,3.413-18.273,9.206-26.331,12.736c-0.9,0.372-1.918,0.838-2.871,1.064
			c-0.397,0.086-0.828,0.124-1.209-0.045C252.239,430.399,251.997,430.104,251.831,429.79z"/>
	</g>
	<g id="POLYLINE_00000045591116899793233080000001348685850997556638_">

			<path fill="none" stroke="#000000" stroke-width="2.75" stroke-linecap="round" stroke-linejoin="round" stroke-miterlimit="10" d="
			M334.825,442.45c-0.453-1.034-0.558-2.183-0.603-3.3c-0.045-2.304,0.32-31.293,0.383-33.504c0.085-2.921,0.332-6.062,0.639-8.973
			l1.35-11.449c0.035-0.333,0.564-5.687,0.593-5.84c0.169-1.286,0.348-2.617,0.911-3.798c0.336-0.709,0.865-1.298,1.545-1.692
			c0.822-0.483,1.768-0.711,2.699-0.879c1.612-0.274,3.36-0.421,4.991-0.558c3.982-0.278,17.691-1.076,21.593-1.238
			c2.59-0.067,5.266-0.15,7.826,0.303c0.774,0.149,1.55,0.368,2.237,0.764c0.514,0.295,0.966,0.702,1.306,1.188
			c0.514,0.734,0.802,1.603,1.01,2.467c0.553,2.524,0.716,5.143,0.657,7.722c-0.051,3.793-1.475,14.256-1.876,18.159
			c-0.866,7.678-1.106,16.241-1.264,23.983c-0.118,3.015-0.295,6.117-0.91,9.073c-0.258,1.186-0.571,2.389-1.164,3.456
			c-0.706,1.269-1.815,2.284-3.063,3.01c-1.037,0.604-2.185,1.014-3.338,1.335c-2.839,0.768-5.885,1.124-8.803,1.471
			c-5.332,0.477-12.693,1.428-17.976,1.543c-1.376,0.014-2.785-0.021-4.144-0.243c-1.052-0.174-2.111-0.479-3-1.084
			C335.722,443.897,335.161,443.224,334.825,442.45z"/>
	</g>
	<g id="POLYLINE_00000057125871784323892040000003812304472053407369_">

			<path fill="none" stroke="#000000" stroke-width="2.75" stroke-linecap="round" stroke-linejoin="round" stroke-miterlimit="10" d="
			M214.237,365.148c-0.49-0.444-0.95-0.949-1.218-1.56c-0.19-0.429-0.266-0.906-0.227-1.373c0.041-0.515,0.196-1.017,0.381-1.497
			c0.847-2.067,2.334-4.258,3.399-6.222c3.654-6.716,7.631-16.284,11.183-23.067c2.72-5.354,8.739-16.201,11.276-21.591
			c0.298-0.575,0.624-1.153,1.023-1.665c0.421-0.544,0.949-1.041,1.609-1.271c0.665-0.241,1.395-0.164,2.064,0.021
			c1.317,0.37,2.547,1.042,3.74,1.7c1.346,0.781,3.943,2.309,5.289,3.016c0.581,0.324,5.589,2.858,6.31,3.227l10.324,5.479
			l12.094,6.11c3.499,1.807,6.952,3.916,9.586,6.889c0.51,0.58,1.024,1.208,1.238,1.964c0.32,1.109-0.324,2.194-0.968,3.055
			c-0.547,0.722-1.2,1.393-1.852,2.022c-2.131,2.064-6.268,5.252-8.592,7.173c-4.117,3.402-8.119,7.276-11.79,11.159
			c-3.548,3.675-10.269,11.827-13.647,15.81c-2.16,2.467-4.425,5.082-6.912,7.217c-1.126,0.949-2.338,1.848-3.713,2.401
			c-0.707,0.283-1.467,0.45-2.23,0.427c-0.969-0.023-1.915-0.319-2.778-0.749c-0.954-0.476-1.83-1.113-2.64-1.803
			c-0.997-0.866-2.51-2.306-3.514-3.152c-1.526-1.309-3.408-2.789-5.014-4.011c-2.463-1.85-5.164-3.774-7.785-5.385
			C219.089,368.345,215.798,366.559,214.237,365.148z"/>
	</g>
	<g id="POLYLINE_00000072278580167030415780000006447016114209568690_">

			<path fill="none" stroke="#000000" stroke-width="2.75" stroke-linecap="round" stroke-linejoin="round" stroke-miterlimit="10" d="
			M153.469,438.979c-0.458-0.459-0.784-1.035-1.018-1.635c-0.328-0.844-0.498-1.749-0.605-2.646
			c-0.152-1.306-0.173-2.683-0.161-3.998c-0.013-2.409,0.756-12.965,0.899-15.546c0.246-4.965,0.797-21.136,1.275-25.78
			c0.098-0.902,0.188-1.847,0.386-2.732c0.164-0.747,0.433-1.494,0.935-2.084c0.537-0.637,1.251-1.099,1.978-1.493
			c0.706-0.38,1.496-0.715,2.242-1.012c4.955-1.87,12.176-4.069,17.255-5.695c6.55-2.009,15.061-4.615,21.661-6.348
			c1.869-0.478,3.873-0.964,5.775-1.288c1.343-0.216,2.729-0.415,4.09-0.262c1.067,0.119,2.08,0.532,3.026,1.023
			c0.959,0.493,1.913,1.104,2.815,1.695c3.486,2.317,21.29,15.347,24.714,17.674c0.819,0.575,4.223,2.802,4.921,3.371
			c0.368,0.291,0.722,0.609,1.034,0.96c0.986,1.119,1.61,2.514,2.111,3.905c0.605,1.732,0.984,3.556,1.144,5.383
			c0.293,3.071-0.108,7.71-0.162,10.82c-0.122,4.624,0.541,10.761,0.477,15.386c-0.022,0.849-0.08,1.716-0.243,2.551
			c-0.177,0.914-0.499,1.814-1.032,2.583c-0.97,1.382-2.442,2.309-3.873,3.154l-2.867,1.614c-1.888,1.083-3.816,2.384-5.586,3.654
			l-11.339,8.377c-3.354,2.363-6.868,4.973-10.545,6.786c-1.027,0.487-2.108,0.901-3.235,1.081
			c-1.393,0.233-2.818,0.038-4.185-0.263c-1.381-0.305-2.838-0.779-4.181-1.232c-13.105-4.576-32.451-12.411-45.625-16.808
			C154.798,439.899,154.04,439.557,153.469,438.979z"/>
	</g>
	<g id="POLYLINE_00000126308697111236219610000013856318862081961625_">

			<path fill="none" stroke="#000000" stroke-width="2.75" stroke-linecap="round" stroke-linejoin="round" stroke-miterlimit="10" d="
			M156.585,379.803c-0.301-0.135-0.542-0.374-0.738-0.634c-0.507-0.693-0.781-1.528-0.999-2.35
			c-0.548-2.216-0.638-4.599-0.744-6.874c-0.46-19.561-0.318-42.438,0.194-61.991c0.087-2.02,0.142-4.163,0.612-6.132
			c0.244-0.965,0.604-1.978,1.391-2.634c0.618-0.517,1.422-0.736,2.206-0.845c0.924-0.129,1.971-0.129,2.907-0.146
			c7.468-0.088,15.511,0.013,22.95,0.584c6.203,0.456,18.831,1.9,25.058,2.386c3.007,0.268,12.188,0.696,15.282,0.863
			c1.948,0.131,4.07,0.292,5.994,0.599c0.996,0.163,2.007,0.365,2.962,0.693c0.928,0.325,1.914,0.808,2.37,1.729
			c0.492,1.016,0.231,2.209-0.075,3.242c-0.618,1.948-1.622,3.802-2.585,5.598c-5.988,10.535-12.268,21.901-17.14,32.961
			c-1.417,3.217-3.654,8.894-5.337,11.9c-0.585,1.051-1.237,2.092-2.008,3.018c-0.764,0.925-1.687,1.727-2.722,2.335
			c-1.551,0.919-3.319,1.456-5.046,1.939l-9.158,2.425c-6.096,1.715-13.32,3.924-19.339,5.894
			c-3.591,1.204-7.965,2.656-11.446,4.083c-0.902,0.354-2.731,1.26-3.664,1.434C157.201,379.939,156.873,379.935,156.585,379.803z"
			/>
	</g>
	<g id="POLYLINE_00000078744014796015305990000007415657190565293461_">

			<path fill="none" stroke="#000000" stroke-width="2.75" stroke-linecap="round" stroke-linejoin="round" stroke-miterlimit="10" d="
			M495.178,382.441c-0.701-0.532-1.214-1.28-1.581-2.072c-0.669-1.458-0.858-3.106-0.694-4.693c0.124-1.235,0.428-2.463,0.791-3.647
			c0.897-2.993,3.472-8.681,4.669-11.633c1.577-3.92,3.168-8.29,4.431-12.317c0.963-2.972,2.213-7.817,3.025-10.883
			c0.525-1.832,1.085-3.71,1.977-5.4c0.516-0.964,1.179-1.89,2.105-2.496c1.635-1.069,3.702-1.09,5.592-1.122l6.852,0.053
			c10.78-0.055,28.364-1.148,38.973-0.48c1.21,0.114,2.461,0.226,3.601,0.676c0.501,0.207,1.013,0.533,1.207,1.064
			c0.102,0.275,0.107,0.576,0.061,0.863c-0.077,0.477-0.271,0.931-0.487,1.36c-1.026,1.921-2.52,3.587-3.937,5.225
			c-2.281,2.53-6.847,7.446-8.911,10.005c-1.806,2.205-3.561,4.575-5.095,6.974c-3.075,4.798-6.146,10.796-8.988,15.755
			c-0.904,1.554-1.891,3.203-2.94,4.659c-1.119,1.553-2.427,3.028-4.082,4.023c-1.186,0.723-2.515,1.188-3.859,1.517
			c-4.196,1.006-9.744,1.188-14.062,1.607c-3.57,0.311-10.522,1.324-14.127,1.688c-0.627,0.056-1.287,0.105-1.916,0.083
			C496.864,383.224,495.918,383.012,495.178,382.441z"/>
	</g>
	<g id="POLYLINE_00000044172989081277193230000016352371653890171286_">

			<path fill="none" stroke="#000000" stroke-width="2.75" stroke-linecap="round" stroke-linejoin="round" stroke-miterlimit="10" d="
			M383.958,436.194c-0.28-0.526-0.464-1.106-0.616-1.68c-0.279-1.077-0.444-2.216-0.568-3.322c-0.296-2.743-0.348-5.627-0.322-8.387
			c0.043-3.562,0.278-7.288,0.683-10.828c0.364-3.185,1.239-9.083,1.475-12.248c0.261-3.145,0.329-6.653,0.349-9.816
			c0.012-1.248-0.241-15.627-0.109-16.4c0.051-0.754,0.147-1.518,0.361-2.244c0.44-1.568,1.551-2.861,2.85-3.804
			c0.516-0.372,1.074-0.698,1.672-0.92c0.418-0.154,0.867-0.251,1.314-0.213c0.383,0.03,0.753,0.152,1.103,0.307
			c0.171,0.076,0.36,0.17,0.526,0.258c0.083,0.034,0.261,0.148,0.343,0.186c0,0,10.148,5.756,10.148,5.756
			c12.161,6.72,25.111,12.397,38.512,16.138c1.382,0.446,2.813,0.911,4.083,1.626c0.681,0.387,1.331,0.861,1.807,1.49
			c0.73,0.959,0.97,2.182,1.098,3.355c0.148,1.517,0.26,4.217,0.353,5.771c0.107,2.569,0.225,5.255-0.035,7.813
			c-0.168,1.677-0.568,3.401-1.652,4.736c-0.898,1.111-2.086,1.961-3.297,2.7c-1.127,0.68-2.384,1.293-3.579,1.849
			c-6.042,2.766-14.791,6.024-21.052,8.453c-8.978,3.272-20.003,7.597-29.186,10.091c-0.882,0.219-1.894,0.459-2.79,0.62
			c-0.343,0.058-0.71,0.115-1.059,0.122c-0.501,0.016-1.019-0.066-1.45-0.332C384.498,437.019,384.185,436.622,383.958,436.194z"/>
	</g>
	<g id="POLYLINE_00000068646064931340626050000013018742727571914914_">

			<path fill="none" stroke="#000000" stroke-width="2.75" stroke-linecap="round" stroke-linejoin="round" stroke-miterlimit="10" d="
			M401.033,491.122c-1.793-15.151-1.81-33.041-2.119-48.371c-0.003-0.751,0.011-1.527,0.247-2.248
			c0.174-0.54,0.488-1.027,0.867-1.446c0.95-1.037,2.18-1.782,3.404-2.453c2.816-1.501,5.967-2.638,8.976-3.697
			c7.603-2.522,17.134-5.547,24.323-8.91c3.381-1.503,7.43-3.807,10.932-4.98c1.167-0.383,2.386-0.661,3.619-0.668
			c0.982-0.012,1.967,0.138,2.919,0.371c1.371,0.276,11.393,3.855,12.936,4.354c2.386,0.808,5.593,1.677,7.999,2.446
			c0.75,0.252,1.519,0.537,2.234,0.874c0.779,0.368,1.535,0.813,2.178,1.39c0.868,0.774,1.485,1.792,1.932,2.857
			c0.514,1.215,0.869,2.592,1.195,3.872c0.609,2.461,1.184,5.131,1.588,7.63c0.438,2.726,0.755,5.542,0.743,8.305
			c-0.002,2.938-0.367,5.911-0.862,8.804l-2.117,11.429c-0.424,2.513-0.819,5.268-1.063,7.797c-0.375,3.784-0.668,9.586-1.199,13.31
			c-0.196,1.288-0.42,2.605-0.9,3.821c-0.218,0.543-0.503,1.067-0.881,1.514c-0.344,0.409-0.768,0.752-1.229,1.019
			c-1.308,0.74-2.821,1.024-4.294,1.231c-3.613,0.454-7.413,0.326-11.05,0.225c-8.698-0.367-24.878-1.314-33.389-1.114
			c-5.266,0.063-14.115,0.62-19.257,0.092c-1.213-0.131-2.444-0.32-3.605-0.703c-0.784-0.262-1.554-0.626-2.165-1.194
			c-0.647-0.591-1.069-1.387-1.331-2.215C401.325,493.39,401.179,492.236,401.033,491.122z"/>
	</g>
	<g id="POLYLINE_00000131325517014093662550000003560514569211489164_">

			<path fill="none" stroke="#000000" stroke-width="2.75" stroke-linecap="round" stroke-linejoin="round" stroke-miterlimit="10" d="
			M453.917,410.949c-0.551-0.849-0.906-1.817-1.116-2.804c-0.504-2.41-0.438-5.449-0.588-7.915c-0.05-1.958-0.079-3.989,0.152-5.936
			c0.11-0.858,0.261-1.73,0.599-2.53c0.219-0.515,0.547-0.993,0.993-1.338c0.545-0.426,1.217-0.648,1.884-0.8
			c0.905-0.202,1.888-0.305,2.81-0.404c4.52-0.433,13.428-0.745,17.918-1.244c2.727-0.246,6.305-0.995,9.037-1.137
			c0.839-0.024,1.714-0.001,2.497,0.332c0.394,0.17,0.746,0.439,1.005,0.782c0.279,0.365,0.452,0.804,0.537,1.253
			c0.193,1.025-0.039,2.075-0.352,3.052c-0.986,2.878-2.86,6.221-3.966,9.055c-1.806,4.405-3.335,10.121-5.346,14.435
			c-0.798,1.638-1.738,3.373-3.334,4.352c-1.327,0.819-2.961,0.844-4.459,0.602c-1.801-0.293-3.564-0.885-5.264-1.536
			c-2.82-1.105-5.606-2.475-8.196-4.045C456.927,414.002,455.098,412.749,453.917,410.949z"/>
	</g>
	<g id="POLYLINE_00000059297623733964911690000007871796594309832879_">

			<path fill="none" stroke="#000000" stroke-width="2.75" stroke-linecap="round" stroke-linejoin="round" stroke-miterlimit="10" d="
			M313.541,489.895c-1.099-2.263-1.36-4.819-1.4-7.304c-0.103-5.106,0.755-13.853,1.112-19.044c0.164-1.973,0.349-4.197,0.659-6.147
			c0.27-1.614,0.588-3.264,1.299-4.75c0.446-0.924,1.105-1.753,1.947-2.345c1.298-0.913,2.88-1.309,4.42-1.592
			c2.517-0.437,5.156-0.513,7.708-0.535c4.822-0.01,11.504,0.331,16.318,0.264c2.923-0.033,6.019-0.205,8.924-0.537
			c3.398-0.387,7.126-1.08,10.483-1.762c3.705-0.78,13.068-2.93,16.651-3.488c2.837-0.444,5.907-0.786,8.776-0.914
			c0.722-0.011,1.46,0.015,2.164,0.19c0.558,0.139,1.109,0.393,1.496,0.829c0.408,0.458,0.61,1.059,0.732,1.651
			c0.344,1.755,0.152,4.241,0.166,6.037c-0.017,3.4,0.645,9.896,0.902,13.357c0.698,9.67,0.419,21.579,0.332,31.322
			c-0.039,1.477-0.099,3.056-0.256,4.525c-0.134,1.278-0.348,2.577-0.65,3.826c-0.478,2.061-1.76,5.597-2.447,7.645
			c-0.262,0.708-1.457,4.639-1.72,5.447c-0.568,1.698-1.124,3.464-2.092,4.983c-0.277,0.42-0.604,0.816-1.009,1.119
			c-0.36,0.273-0.78,0.463-1.217,0.572c-0.879,0.218-1.811,0.171-2.71,0.145c-10.633-0.501-21.424-1.979-31.893-3.894
			c-3.142-0.614-6.645-1.326-9.715-2.208c-2.603-0.737-5.169-1.735-7.47-3.172c-2.124-1.312-4.092-2.912-5.937-4.59
			c-2.866-2.624-5.53-5.576-7.935-8.626c-2.32-2.948-4.649-6.225-6.716-9.357C314.13,491.016,313.806,490.458,313.541,489.895z"/>
	</g>
	<g id="POLYLINE_00000165936852283640936640000010572535632033516707_">

			<path fill="none" stroke="#000000" stroke-width="2.75" stroke-linecap="round" stroke-linejoin="round" stroke-miterlimit="10" d="
			M380.157,602.939c-0.421-0.183-0.803-0.462-1.092-0.819c-0.292-0.357-0.486-0.792-0.569-1.245
			c-0.118-0.643-0.021-1.307,0.148-1.933c0.286-1.031,0.768-2.009,1.278-2.946c1.223-2.206,2.784-4.434,4.241-6.498l6.788-9.26
			c1.415-1.969,2.714-4.067,3.588-6.336c0.767-1.953,1.295-4.032,1.739-6.08c0.738-3.445,1.279-7.221,1.73-10.722
			c0.524-4.176,1.491-14.277,2.307-18.249c0.215-1.056,0.469-2.139,0.829-3.156c0.316-0.88,0.719-1.759,1.365-2.449
			c0.41-0.439,0.928-0.777,1.498-0.969c0.986-0.334,2.059-0.306,3.073-0.125c1.922,0.351,3.693,1.277,5.269,2.406
			c2.45,1.767,4.59,3.997,6.652,6.194c6.632,7.23,15.384,17.805,22.897,23.96c1.464,1.182,4.941,3.936,6.286,5.125
			c1.552,1.369,3.033,2.876,4.114,4.652c1.522,2.499,2.257,5.391,2.753,8.249c0.409,2.419,0.709,5.134,0.969,7.577
			c0.216,2.255,0.425,4.635,0.37,6.898c-0.04,0.995-0.085,2.026-0.432,2.968c-0.124,0.324-0.296,0.632-0.525,0.894
			c-0.221,0.254-0.493,0.463-0.787,0.626c-0.75,0.409-1.604,0.59-2.442,0.724c-1.006,0.155-2.077,0.212-3.095,0.246
			c-1.426,0.096-20.868-0.262-22.832-0.273c-10.026,0.149-29.328,0.016-39.11,0.572c-1.577,0.099-4.092,0.439-5.643,0.295
			C381.058,603.218,380.589,603.127,380.157,602.939z"/>
	</g>
	<g id="POLYLINE_00000182530091037614488200000011719302206930459553_">

			<path fill="none" stroke="#000000" stroke-width="2.75" stroke-linecap="round" stroke-linejoin="round" stroke-miterlimit="10" d="
			M452.84,569.448c-1.271-0.411-2.408-1.158-3.45-1.979c-0.915-0.72-1.815-1.569-2.649-2.384
			c-5.713-5.713-18.751-20.389-24.47-26.364c-2.908-2.965-5.997-5.923-9.723-7.833c-1.985-1.017-4.163-1.636-6.345-2.067
			c-2.397-0.5-5.645-0.785-7.998-1.463c-1.189-0.344-2.365-0.832-3.336-1.613c-1.128-0.896-2.015-2.235-1.996-3.715
			c0.008-0.729,0.219-1.441,0.483-2.116c0.753-1.862,2.074-3.962,2.905-5.791c0.666-1.418,1.954-4.346,2.613-5.771
			c0.453-0.934,0.906-1.915,1.513-2.76c0.354-0.493,0.785-0.939,1.304-1.259c0.587-0.367,1.255-0.588,1.924-0.752
			c1.469-0.353,3.048-0.461,4.553-0.573c10.375-0.685,51.281-0.541,62.216-0.646c2.148,0.038,4.46,0.065,6.595,0.322
			c0.421,0.056,0.863,0.123,1.272,0.245c0.363,0.107,0.721,0.261,1.016,0.503c0.243,0.198,0.437,0.454,0.572,0.736
			c0.316,0.675,0.388,1.438,0.411,2.175c0.026,1.439-0.192,2.886-0.504,4.287c-0.746,3.54-2.738,7.196-4.125,10.522
			c-1.657,3.872-5.105,13.959-6.6,18.054c-2.102,5.646-8.45,21.528-10.023,27.052c-0.179,0.527-0.373,1.064-0.632,1.557
			c-0.244,0.466-0.563,0.903-0.987,1.22c-0.474,0.358-1.048,0.568-1.63,0.667C454.777,569.866,453.772,569.746,452.84,569.448z"/>
	</g>
	<g id="POLYLINE_00000110459319676391929320000017127854847904127372_">

			<path fill="none" stroke="#000000" stroke-width="2.75" stroke-linecap="round" stroke-linejoin="round" stroke-miterlimit="10" d="
			M514.145,601.751c-5.421-0.173-17.376-0.703-22.604-0.641c-6.132-0.015-14.961,0.362-21.156,0.611
			c-1.607,0.017-3.364,0.093-4.965-0.051c-0.833-0.083-1.687-0.238-2.423-0.656c-0.31-0.177-0.594-0.405-0.827-0.676
			c-0.316-0.366-0.547-0.801-0.73-1.247c-0.222-0.542-0.378-1.127-0.51-1.698c-0.167-0.543-1.889-10.487-2.063-11.337
			c-0.316-1.892-0.66-3.907-0.79-5.815c-0.084-1.241-0.084-2.507,0.144-3.733c0.406-2.388,2.084-4.692,3.201-6.799
			c1.384-2.56,2.584-5.461,3.673-8.167c3.739-9.199,11.411-32.352,15.093-41.773c0.334-0.713,0.7-1.442,1.247-2.019
			c0.286-0.299,0.648-0.544,1.063-0.609c0.375-0.062,0.761,0.009,1.117,0.132c0.439,0.15,0.853,0.379,1.25,0.618
			c4.435,2.903,12.313,9.466,16.602,12.771c2.774,2.128,5.709,4.283,8.759,5.99c2.107,1.227,5.155,2.407,7.425,3.349
			c1.771,0.761,3.544,1.629,4.995,2.918c2.701,2.425,4.19,5.867,5.501,9.179c2.843,7.509,5.558,17.075,8.804,24.393
			c1.832,4.176,3.917,8.348,6.366,12.198c0.992,1.617,2.458,3.369,3.446,4.945c0.395,0.653,0.722,1.362,0.856,2.117
			c0.218,1.244-0.019,2.562-0.629,3.666c-0.335,0.603-0.799,1.138-1.367,1.531c-0.727,0.509-1.581,0.81-2.441,1.007
			c-1.043,0.239-2.14,0.331-3.208,0.388C536.073,602.607,518.36,601.826,514.145,601.751z"/>
	</g>
	<g id="POLYLINE_00000032627321430344793050000001241205688850531253_">

			<path fill="none" stroke="#000000" stroke-width="2.75" stroke-linecap="round" stroke-linejoin="round" stroke-miterlimit="10" d="
			M545.676,444.971c0.694-1.411,0.981-3.008,1.261-4.544c0.612-3.557,1.32-11.32,1.807-14.955c0.602-4.657,1.487-9.556,2.483-14.145
			c1.182-5.397,2.608-10.945,4.285-16.209c0.883-2.892,2.372-6.439,3.173-9.354c0.294-1.195,0.523-2.493,0.174-3.7
			c-0.187-0.633-0.592-1.186-1.178-1.501c-0.422-0.232-0.895-0.358-1.367-0.443c-0.855-0.15-1.751-0.166-2.618-0.171
			c-3.937,0.063-8.222,0.036-12.117,0.599c-2.597,0.355-7.192,1.315-9.814,1.815c-3.404,0.657-7.35,1.248-10.796,1.695
			c-1.221,0.176-20.827,2.394-21.275,2.553c-0.852,0.143-1.721,0.311-2.543,0.579c-0.949,0.305-1.863,0.767-2.606,1.44
			c-0.712,0.637-1.261,1.439-1.721,2.271c-0.831,1.517-1.423,3.204-1.974,4.841c-1.642,5.376-6.297,18.328-7.264,23.674
			c-0.243,1.366-0.388,2.771-0.286,4.158c0.082,1.191,0.39,2.363,0.769,3.491c0.596,1.706,1.448,3.919,1.912,5.656
			c0.858,3.103,1.448,6.785,2.724,9.748c0.341,0.77,0.747,1.53,1.3,2.17c0.399,0.463,0.887,0.851,1.428,1.136
			c0.618,0.328,1.3,0.525,1.987,0.647c0.847,0.154,1.743,0.191,2.603,0.221c3.115,0.017,9.901,0.549,13.085,0.762
			c8.459,0.455,18.694,0.139,27.192,0.113c2.009-0.06,4.162-0.113,6.144-0.431c0.454-0.077,0.914-0.177,1.345-0.344
			c0.387-0.15,0.753-0.364,1.059-0.646C545.193,445.782,545.462,445.387,545.676,444.971z"/>
	</g>
	<g id="POLYLINE_00000071529448819332197410000012871785197935361716_">

			<path fill="none" stroke="#000000" stroke-width="2.75" stroke-linecap="round" stroke-linejoin="round" stroke-miterlimit="10" d="
			M203.563,524.099c-0.595-0.842-0.522-1.964-0.398-2.939c0.189-1.37,0.713-3.278,0.994-4.64c0.432-1.956,0.949-6.111,1.243-8.135
			c0.313-1.992,0.674-4.032,1.506-5.881c0.482-1.061,1.152-2.071,2.098-2.77c0.721-0.537,1.584-0.854,2.456-1.047
			c0.833-0.184,1.705-0.269,2.555-0.323c6.074-0.184,16.658-0.622,22.643-0.379c2.207,0.082,4.564,0.276,6.754,0.555
			c2.267,0.259,7.659,1.214,9.932,1.485c1.541,0.223,3.591,0.212,5.015,0.876c0.745,0.343,1.378,0.914,1.816,1.606
			c0.292,0.46,0.502,0.974,0.617,1.506c0.147,0.678,0.15,1.383,0.096,2.073c-0.11,1.494-0.816,4.645-1.092,6.158
			c-0.723,3.374-1.428,7.147-2.552,10.4c-0.276,0.738-0.642,1.458-1.18,2.04c-0.572,0.625-1.31,1.075-2.076,1.424
			c-1.435,0.644-3.004,0.971-4.567,1.099c-0.964,0.079-1.971,0.076-2.938,0.046c-7.317-0.406-23.302-1.294-30.707-1.471
			c-2.702-0.056-6.857,0.162-9.483-0.324c-0.623-0.121-1.25-0.29-1.812-0.59C204.131,524.68,203.8,524.428,203.563,524.099z"/>
	</g>
	<g id="POLYLINE_00000091693886566659639140000005170622698907789502_">

			<path fill="none" stroke="#000000" stroke-width="2.75" stroke-linecap="round" stroke-linejoin="round" stroke-miterlimit="10" d="
			M451.346,202.499c-1.139-0.387-2.376-0.324-3.556-0.209c-3.763,0.413-9.783,2.307-13.515,3.262
			c-3.052,0.803-6.224,1.461-9.346,1.907c-6.771,1.018-14.078,1.084-20.925,1.264c-1.703,0.085-3.456,0.217-5.106,0.667
			c-1.139,0.313-2.257,0.803-3.145,1.596c-1.155,1.032-1.846,2.479-2.294,3.939c-0.471,1.557-0.694,3.192-0.81,4.811
			c-0.078,1.111-0.094,2.306-0.078,3.421c0.216,7.344,0.368,20.535,1.036,27.721c0.457,5.894,1.428,14.977,1.269,20.833
			c-0.04,2.1-0.265,4.235-0.692,6.292l-0.615,2.888c-0.225,1.125-0.42,2.288-0.332,3.437c0.097,1.376,0.585,2.72,1.388,3.841
			c0.582,0.822,1.328,1.522,2.138,2.116c0.957,0.703,2.019,1.291,3.08,1.823c0.629,0.316,1.441,0.688,2.085,0.977
			c5.33,2.281,18.349,8.198,23.756,10.67c12.789,5.627,26.333,10.758,39.678,14.886c4.517,1.357,9.27,2.878,13.932,3.606
			c0.739,0.098,1.508,0.163,2.236-0.032c0.581-0.152,1.1-0.489,1.512-0.922c0.786-0.83,1.278-1.893,1.718-2.935
			c1.578-3.962,2.566-8.411,3.559-12.558c1.26-5.764,3.918-17.086,5.246-22.721c0.164-0.833,0.296-1.696,0.333-2.544
			c0.035-0.792-0.014-1.597-0.198-2.37c-0.209-0.885-0.582-1.728-1.027-2.518c-0.428-0.765-0.955-1.517-1.472-2.224
			c-2.057-2.693-4.576-5.965-6.526-8.729c-11.842-16.969-22.089-35.39-29.229-54.841c-0.579-1.57-1.338-4.415-2.224-5.802
			C452.78,203.343,452.144,202.772,451.346,202.499z"/>
	</g>
	<g id="POLYLINE_00000080894157826968475440000016447510207023289237_">

			<path fill="none" stroke="#000000" stroke-width="2.75" stroke-linecap="round" stroke-linejoin="round" stroke-miterlimit="10" d="
			M401.92,365.919c-0.341-0.648-0.423-1.403-0.352-2.124c0.104-1.045,0.46-2.052,0.857-3.018c0.716-1.706,1.665-3.415,2.576-5.026
			c6.975-12.02,17.387-27.637,25.018-39.37c0.46-0.655,0.916-1.371,1.607-1.805c0.647-0.398,1.427-0.495,2.173-0.494
			c0.907,0.006,1.82,0.157,2.706,0.343c2.627,0.541,8.954,2.717,11.619,3.546c5.505,1.662,17.996,5.187,23.428,6.736
			c4.692,1.298,9.668,2.587,14.465,3.389c2.074,0.346,4.247,0.601,6.348,0.696c1.777,0.104,4.573,0.073,6.338,0.236
			c0.756,0.071,1.525,0.174,2.246,0.423c0.52,0.179,1.016,0.46,1.382,0.876c0.755,0.851,0.942,2.046,0.921,3.149
			c-0.034,1.564-0.525,3.09-1.006,4.566c-0.504,1.526-13.064,37.745-13.391,38.542c-0.343,0.864-0.716,1.832-1.139,2.662
			c-0.539,1.082-1.194,2.131-2.075,2.968c-1.312,1.26-3.077,1.91-4.83,2.279c-1.838,0.396-3.809,0.529-5.685,0.646
			c-4.34,0.239-8.96,0.165-13.309,0.007c-5.32-0.245-10.89-0.611-16.135-1.521c-6.447-1.133-13.028-2.955-19.301-4.819
			c-4.13-1.293-8.378-2.669-12.269-4.579c-2.207-1.058-4.53-2.713-6.557-4.083c-1.39-0.946-3.096-1.747-4.409-2.801
			C402.662,366.943,402.212,366.48,401.92,365.919z"/>
	</g>
	<g id="POLYLINE_00000165221179843575366700000007842618620160660667_">

			<path fill="none" stroke="#000000" stroke-width="2.75" stroke-linecap="round" stroke-linejoin="round" stroke-miterlimit="10" d="
			M315.595,335.987c-1.024-1.23-2.259-2.5-2.744-4.063c-0.324-1.017-0.327-2.122-0.07-3.154c0.24-0.989,0.71-1.912,1.282-2.749
			c1.075-1.569,2.473-2.938,3.842-4.252c3.027-2.794,18.782-17.523,21.677-19.93c0.987-0.819,2.028-1.683,3.094-2.396
			c0.888-0.598,1.853-1.112,2.897-1.373c1.211-0.3,2.494-0.418,3.735-0.526c5.692-0.492,20.753,0.137,26.658,0.182
			c0.81,0.026,1.656,0.033,2.433,0.292c0.373,0.124,0.723,0.321,1.016,0.584c0.399,0.359,0.697,0.818,0.938,1.295
			c0.645,1.308,0.955,2.767,1.216,4.194c0.929,5.714,1.018,11.892,1.204,17.682c0.107,4.519,0.223,29.607,0.209,34.401
			c-0.043,1.977-0.051,4.354-0.217,6.322c-0.098,1.11-0.21,2.26-0.65,3.295c-0.208,0.482-0.513,0.934-0.934,1.255
			c-0.601,0.459-1.352,0.661-2.088,0.781c-1.037,0.161-2.239,0.179-3.293,0.21c-2.172,0.094-29.081-0.274-31.824-0.308
			c-0.898-0.039-1.828-0.072-2.696-0.324c-0.6-0.169-1.158-0.479-1.617-0.901c-0.459-0.412-0.85-0.908-1.22-1.399
			c-2.603-3.751-6.309-8.494-9.167-12.109C327.477,350.789,317.246,337.869,315.595,335.987z"/>
	</g>
	<g id="POLYLINE_00000061445145603629588400000013348753575035424155_">

			<path fill="none" stroke="#000000" stroke-width="2.75" stroke-linecap="round" stroke-linejoin="round" stroke-miterlimit="10" d="
			M391.902,293.908c-0.775-0.246-1.61-0.599-2.437-0.536c-0.402,0.029-0.791,0.16-1.15,0.341c-0.502,0.253-0.962,0.591-1.38,0.964
			c-0.859,0.778-1.587,1.733-1.995,2.825c-0.202,0.549-0.302,1.135-0.319,1.719c-0.019,0.598,0.041,1.205,0.132,1.796
			c0.164,1.141,0.706,3.304,0.949,4.453c0.887,4.149,1.252,8.556,1.58,12.783l1.362,24.576c0.37,4.717,0.672,9.652,1.786,14.258
			c0.259,0.957,0.54,1.968,1.206,2.729c0.718,0.824,1.887,1.021,2.924,0.863c0.779-0.117,1.527-0.428,2.17-0.882
			c0.744-0.527,1.355-1.225,1.892-1.956c0.707-0.966,1.327-2.066,1.895-3.122c0.78-1.464,3.042-5.979,3.824-7.401
			c1.392-2.582,3.392-6.066,4.909-8.579c2.307-3.797,4.99-7.971,7.556-11.585c2.129-3.036,5.869-7.857,7.897-10.949
			c0.716-1.128,1.454-2.296,1.863-3.576c0.171-0.557,0.257-1.155,0.147-1.733c-0.101-0.548-0.376-1.05-0.721-1.483
			c-0.898-1.101-2.133-1.878-3.327-2.622c-5.188-3.072-10.899-5.617-16.481-7.889C402.185,297.263,396.053,295.281,391.902,293.908z
			"/>
	</g>
	<g id="POLYLINE_00000057148741307282960770000006496612909108757127_">

			<path fill="none" stroke="#000000" stroke-width="2.75" stroke-linecap="round" stroke-linejoin="round" stroke-miterlimit="10" d="
			M293.955,326.9c-0.106-1.427,0.059-2.874,0.294-4.281c0.983-5.867,4.845-16.072,6.677-21.828
			c1.88-5.879,3.664-12.118,4.902-18.158c0.562-2.681,1.198-6.715,1.647-9.455c0.198-1.121,0.424-2.343,0.715-3.441
			c0.206-0.757,0.439-1.525,0.824-2.213c0.201-0.351,0.455-0.688,0.801-0.906c0.243-0.154,0.533-0.232,0.821-0.22
			c0.364,0.013,0.711,0.149,1.03,0.318c0.464,0.25,0.888,0.579,1.288,0.92c0.796,0.684,1.558,1.491,2.272,2.262
			c1.57,1.74,8.093,9.071,9.775,10.959c3.728,4.333,7.371,8.931,9.709,14.182c0.273,0.649,0.506,1.333,0.541,2.041
			c0.026,0.486-0.052,0.977-0.225,1.431c-0.306,0.796-0.84,1.485-1.4,2.12c-2.037,2.265-6.373,5.45-8.743,7.43
			c-4.69,3.883-9.371,8.164-13.56,12.581c-2.223,2.302-5.396,5.842-7.816,7.86c-1.128,0.947-2.334,1.849-3.674,2.474
			c-0.972,0.443-2.092,0.771-3.152,0.468C294.794,330.869,294.088,328.682,293.955,326.9z"/>
	</g>
</g>
<g id="_x32_D_x24_AG-OUTLINE">
	<g id="POLYLINE_00000129913829680972665710000016389406591176851850_">

			<path fill="none" stroke="#000000" stroke-width="3.5" stroke-linecap="round" stroke-linejoin="round" stroke-miterlimit="10" d="
			M598.423,156.379V606H154.311l0.072-2.772c-0.525-0.115-1.051-0.279-1.508-0.569c-0.391-0.246-0.716-0.588-0.971-0.971
			c-0.643-0.985-1.005-2.133-1.303-3.263c-0.481-1.914-0.716-3.9-0.769-5.871c-0.123-3.292,0.695-8.973,1.028-12.306
			c0.433-4.176,0.519-8.677,0.506-12.881c0.008-3.996-0.313-11.699-0.475-15.765c-0.013-0.473-0.021-1.042,0.003-1.516
			c0.028-0.596,0.103-1.2,0.263-1.776c0.307-1.132,0.961-2.139,1.702-3.035c1.146-1.377,2.522-2.567,3.945-3.65l0.166-4.306
			c-0.792,0.322-1.608,0.648-2.452,0.801c-0.343,0.057-0.703,0.089-1.044,0.004c-0.176-0.044-0.343-0.129-0.475-0.254
			c-0.178-0.167-0.294-0.389-0.377-0.616c-0.205-0.588-0.249-1.233-0.303-1.85c-0.266-3.986-0.418-8.085-0.087-12.069
			c0.214-3.026,1.194-6.174,1.499-9.139c0.402-4.05-0.962-8.3-1.935-12.193c-0.633-2.421-0.903-4.954-0.971-7.451
			c-0.108-3.538,0.001-7.276,0.251-10.808c0.199-2.501,0.651-7.413,0.688-9.874c0.037-4.614,0.167-13.442,0.312-18.114
			c0.01-1.339-0.017-2.772-0.121-4.106c-0.1-1.326-0.351-3.092-0.423-4.417c-0.045-1.119-0.063-2.367,0.638-3.306
			c0.433-0.582,1.144-0.999,1.884-0.937c0.292,0.023,0.576,0.117,0.842,0.237c0.935,0.442,2.021,1.255,3.069,1.754l-0.123-4.039
			l-1.864-0.611c-0.823-0.286-1.673-0.603-2.336-1.186c-0.583-0.51-0.975-1.204-1.24-1.925c-0.36-0.983-0.519-2.038-0.614-3.077
			c-0.407-4.56,0.581-14.319,0.795-18.986c0.274-5.267,0.777-21.326,1.328-26.292c0.094-0.829,0.195-1.696,0.401-2.504
			c0.129-0.501,0.312-0.996,0.595-1.432c0.337-0.523,0.811-0.945,1.32-1.298c0.757-0.521,1.606-0.919,2.45-1.28l0.125-2.889
			c-0.455,0.182-0.924,0.374-1.412,0.44c-0.338,0.047-0.69-0.003-0.979-0.19c-0.369-0.235-0.633-0.602-0.845-0.978
			c-0.449-0.819-0.697-1.739-0.885-2.649c-0.392-1.983-0.488-4.119-0.576-6.138c-0.46-19.561-0.318-42.438,0.194-61.991
			c0.086-2.02,0.143-4.163,0.612-6.132c0.228-0.897,0.55-1.827,1.228-2.487c0.445-0.434,1.027-0.7,1.625-0.849
			c0.85-0.212,1.75-0.245,2.623-0.271l0.004-3.023c-1.352-0.14-2.811-0.338-3.908-1.206c-0.767-0.605-1.186-1.537-1.39-2.472
			c-0.285-1.311-0.285-2.695-0.292-4.031c0.102-7.384,0.379-23.494,0.602-30.74l0.653-13.215c0.07-1.981,0.059-4.082-0.055-6.061
			c-0.14-2.814-0.687-7.629-0.429-10.386c0.059-0.556,0.147-1.123,0.373-1.638c0.138-0.315,0.34-0.606,0.606-0.825
			c0.374-0.311,0.846-0.473,1.314-0.58c0.953-0.209,1.946-0.222,2.918-0.213l0.048-3.006c-1.044-0.057-2.263-0.032-3.268-0.321
			c-0.548-0.157-1.052-0.462-1.437-0.883c-0.725-0.787-1.064-1.845-1.25-2.88c-0.446-2.64-0.268-6.717-0.339-9.419
			c-0.222-11.567-1.679-27.467-1.485-38.99c0.054-1.827,0.108-3.734,0.44-5.532c0.129-0.628,0.289-1.28,0.673-1.806
			c0.238-0.327,0.582-0.561,0.955-0.709c1.138-0.421,2.466-0.599,3.668-0.757c3.927-0.458,7.984-0.42,11.929-0.227
			c5.648,0.326,16.806,1.214,22.317,1.074c4.239-0.005,10.231-0.666,14.501-1.054c2.082-0.16,4.244-0.32,6.325-0.12
			c1.167,0.119,2.362,0.372,3.354,1.028c1.644,1.075,2.422,2.986,3.169,4.724l3.556-0.096c-0.352-0.776-0.744-1.595-0.709-2.467
			c0.05-1.122,0.867-2.067,1.837-2.559c1.059-0.537,2.265-0.7,3.434-0.809c2.171-0.205,7.734-0.049,9.981-0.059
			c15.916-0.218,35.007-0.95,50.9-1.945c1.162-0.092,6.392-0.579,7.443-0.616c0.542-0.022,1.108-0.03,1.649,0.014
			c0.554,0.047,1.119,0.143,1.618,0.397c0.354,0.178,0.657,0.455,0.861,0.794c0.248,0.405,0.379,0.871,0.462,1.335
			c0.243,1.522,0.12,3.141,0.074,4.676l2.851-0.017c0.123-1.419,0.145-3.068,0.624-4.414c0.146-0.397,0.346-0.783,0.635-1.095
			c0.506-0.549,1.245-0.8,1.965-0.918c1.792-0.288,5.033,0.074,6.867,0.125c7.837,0.159,22.294,0.473,30.192,0.783
			c9.485,0.17,19.256-0.498,28.666-1.682c0.945-0.103,1.928-0.203,2.877-0.167c0.839,0.036,1.728,0.174,2.41,0.698
			c0.665,0.506,0.981,1.33,1.142,2.125c0.169,0.856,0.178,1.742,0.099,2.609c-0.085,0.884-0.265,1.768-0.575,2.602l3.246,0.066
			l1.354-2.099c0.856-1.259,1.736-2.593,3.035-3.435c0.694-0.446,1.492-0.702,2.299-0.849c1.985-0.336,4.112-0.322,6.124-0.367
			c4.142-0.007,14.611,0.057,18.569-0.097c1.487-0.001,17.584-0.862,19.534-0.953c4.916-0.174,10.002-0.423,14.885,0.281
			c0.976,0.16,1.968,0.367,2.864,0.8c0.43,0.211,0.837,0.484,1.162,0.838c0.269,0.291,0.475,0.637,0.616,1.007
			c0.211,0.551,0.299,1.144,0.344,1.729c0.1,1.255-0.008,2.651-0.055,3.91l2.179-0.003c-0.049-1.206-0.123-2.455,0.14-3.641
			c0.1-0.439,0.257-0.872,0.509-1.248c0.217-0.326,0.504-0.604,0.828-0.823c0.442-0.299,0.949-0.494,1.46-0.64
			c0.765-0.216,1.572-0.336,2.362-0.422c5.456-0.549,15.265,0.323,20.828,0.509c4.185,0.158,8.884,0.22,13.07,0.148
			c3.24-0.035,10.693-0.396,13.991-0.535c1.091-0.022,2.364-0.067,3.446,0.004c0.27,0.02,0.548,0.051,0.812,0.111
			c0.337,0.077,0.685,0.203,0.92,0.467c0.326,0.367,0.311,0.9,0.247,1.358c-0.083,0.546-0.261,1.081-0.456,1.597
			c-0.387,1.003-0.889,2.006-1.387,2.958l2.275-0.007c0.789-1.562,1.712-3.119,3.051-4.275c0.692-0.597,1.512-1.041,2.379-1.327
			c1.15-0.382,2.374-0.514,3.58-0.552c2.356-0.069,5.517,0.265,7.879,0.298c5.657,0.117,13.458-0.871,19.147-1.376
			c13.43-1.194,28.603-1.48,42.107-1.695C594.516,156.003,596.522,155.997,598.423,156.379z"/>
	</g>
</g>
</svg>
