<?xml version="1.0" encoding="utf-8"?>
<!-- Generator: Adobe Illustrator 27.4.1, SVG Export Plug-In . SVG Version: 6.00 Build 0)  -->
<!DOCTYPE svg PUBLIC "-//W3C//DTD SVG 1.1//EN" "http://www.w3.org/Graphics/SVG/1.1/DTD/svg11.dtd" [
	<!ENTITY ns_extend "http://ns.adobe.com/Extensibility/1.0/">
	<!ENTITY ns_ai "http://ns.adobe.com/AdobeIllustrator/10.0/">
	<!ENTITY ns_graphs "http://ns.adobe.com/Graphs/1.0/">
	<!ENTITY ns_vars "http://ns.adobe.com/Variables/1.0/">
	<!ENTITY ns_imrep "http://ns.adobe.com/ImageReplacement/1.0/">
	<!ENTITY ns_sfw "http://ns.adobe.com/SaveForWeb/1.0/">
	<!ENTITY ns_custom "http://ns.adobe.com/GenericCustomNamespace/1.0/">
	<!ENTITY ns_adobe_xpath "http://ns.adobe.com/XPath/1.0/">
]>
<svg version="1.1" xmlns:x="&ns_extend;" xmlns:i="&ns_ai;" xmlns:graph="&ns_graphs;"
	 xmlns="http://www.w3.org/2000/svg" xmlns:xlink="http://www.w3.org/1999/xlink" x="0px" y="0px" width="750px" height="750px"
	 viewBox="0 0 750 750" enable-background="new 0 0 750 750" xml:space="preserve">
<metadata>
	<sfw  xmlns="&ns_sfw;">
		<slices></slices>
		<sliceSourceBounds  bottomLeftOrigin="true" height="4228.694" width="7841.417" x="-3649.417" y="1042"></sliceSourceBounds>
	</sfw>
</metadata>
<g id="FILL-BACKGROUND">
	<rect y="0" fill="transparent" width="750" height="750"/>
</g>
<g id="N-TEXT">
</g>
<g id="N-DIMENSIONS">
</g>
<g id="_x32_D_x24_AG-DIAGRAM">
</g>
<g id="_x32_D_x24_AG-DETAILS-DIAGRAM">
</g>
<g id="_x32_D_x24_AG-DETAILS">
	<g id="POLYLINE_00000139292305390755812250000005404443560299382660_">
		<path fill="none" stroke="#000000" stroke-width="2" stroke-linecap="round" stroke-linejoin="round" stroke-miterlimit="10" d="
			M539.363,535.863c4.009-16.517,6.93-34.045,9.051-50.904c1.533-12.11,2.889-25.141,3.335-37.324"/>
	</g>
	<g id="POLYLINE_00000008128208855674177390000003943830774866314928_">
		<path fill="none" stroke="#000000" stroke-width="2" stroke-linecap="round" stroke-linejoin="round" stroke-miterlimit="10" d="
			M557.767,569.975c3.511-38.758,11.034-86.877,11.538-125.687"/>
	</g>
	<g id="POLYLINE_00000074408217109929922930000004195740157480052157_">
		<path fill="none" stroke="#000000" stroke-width="2" stroke-linecap="round" stroke-linejoin="round" stroke-miterlimit="10" d="
			M551.817,429.596c-0.216-8.295-0.782-16.813-1.857-25.042c-1.17-9.075-3.047-18.415-5.257-27.302
			c-1.758-7.021-4.001-14.791-6.149-21.7c-9.072-28.342-20.713-62.318-27.25-91.15c-7.154-30.686-10.496-62.651-12.05-94.097"/>
	</g>
	<g id="POLYLINE_00000179646705643512320580000011950469777034544778_">
		<path fill="none" stroke="#000000" stroke-width="2" stroke-linecap="round" stroke-linejoin="round" stroke-miterlimit="10" d="
			M542.535,431.366c-1.499-9.764-4.276-19.415-7.671-28.68c-8.94-24.652-27.819-57.876-39.86-81.476
			c-4.985-9.91-10.13-20.719-14.353-30.938c-5.074-12.185-9.62-24.992-13.353-37.653c-7.907-26.727-12.752-54.62-15.737-82.315"/>
	</g>
	<g id="POLYLINE_00000114772460978220950020000009729178953452393654_">
		<path fill="none" stroke="#000000" stroke-width="2" stroke-linecap="round" stroke-linejoin="round" stroke-miterlimit="10" d="
			M511.961,383.607c-16.23-20.193-31.882-41.629-45.074-63.925c-27.457-46.327-48.617-96.879-60.821-149.377"/>
	</g>
	<g id="POLYLINE_00000030477730068620864940000008189379661256544900_">
		<path fill="none" stroke="#000000" stroke-width="2" stroke-linecap="round" stroke-linejoin="round" stroke-miterlimit="10" d="
			M569.317,426.259c-0.067-9.402-0.671-20.401-1.449-29.768c-1.791-21.101-6.593-77.841-7.653-98.188
			c-2.259-37.709-3.789-90.116-4.258-127.998"/>
	</g>
	<g id="POLYLINE_00000111174944472994585250000017093995765020597166_">
		<path fill="none" stroke="#000000" stroke-width="2" stroke-linecap="round" stroke-linejoin="round" stroke-miterlimit="10" d="
			M210.637,535.863c-4.009-16.517-6.93-34.045-9.051-50.904c-1.533-12.11-2.889-25.141-3.335-37.324"/>
	</g>
	<g id="POLYLINE_00000059992691424773260830000009760450354876116907_">
		<path fill="none" stroke="#000000" stroke-width="2" stroke-linecap="round" stroke-linejoin="round" stroke-miterlimit="10" d="
			M192.233,569.975c-3.511-38.758-11.034-86.877-11.538-125.687"/>
	</g>
	<g id="POLYLINE_00000135684598735124055050000005512721439985934741_">
		<path fill="none" stroke="#000000" stroke-width="2" stroke-linecap="round" stroke-linejoin="round" stroke-miterlimit="10" d="
			M198.183,429.596c0.216-8.295,0.782-16.813,1.857-25.042c1.17-9.075,3.047-18.415,5.257-27.302
			c1.758-7.021,4.001-14.791,6.149-21.7c9.072-28.342,20.713-62.318,27.249-91.15c7.154-30.686,10.496-62.651,12.05-94.097"/>
	</g>
	<g id="POLYLINE_00000142855041051770211590000014723854993157962429_">
		<path fill="none" stroke="#000000" stroke-width="2" stroke-linecap="round" stroke-linejoin="round" stroke-miterlimit="10" d="
			M207.465,431.366c1.499-9.764,4.276-19.415,7.671-28.68c8.94-24.652,27.819-57.876,39.86-81.476
			c4.985-9.91,10.13-20.719,14.353-30.938c5.074-12.185,9.62-24.992,13.353-37.653c7.907-26.727,12.752-54.62,15.737-82.315"/>
	</g>
	<g id="POLYLINE_00000135686762483568403100000008008353058406698682_">
		<path fill="none" stroke="#000000" stroke-width="2" stroke-linecap="round" stroke-linejoin="round" stroke-miterlimit="10" d="
			M238.039,383.607c16.23-20.193,31.882-41.629,45.074-63.925c27.457-46.327,48.617-96.879,60.821-149.377"/>
	</g>
	<g id="POLYLINE_00000042006192788143444210000009255739007668467868_">
		<path fill="none" stroke="#000000" stroke-width="2" stroke-linecap="round" stroke-linejoin="round" stroke-miterlimit="10" d="
			M180.683,426.259c0.067-9.402,0.671-20.401,1.449-29.768c1.791-21.101,6.593-77.841,7.653-98.188
			c2.259-37.709,3.789-90.116,4.258-127.998"/>
	</g>
</g>
<g id="_x32_D_x24_AG-BUILDINGS">
	<g id="POLYLINE_00000145740419875924575400000013351211776867665061_">

			<line fill="none" stroke="#000000" stroke-width="2.75" stroke-linecap="round" stroke-linejoin="round" stroke-miterlimit="10" x1="610.694" y1="142.446" x2="625.345" y2="142.446"/>
	</g>
	<g id="POLYLINE_00000052089927145508310840000014608580819552474243_">

			<line fill="none" stroke="#000000" stroke-width="2.75" stroke-linecap="round" stroke-linejoin="round" stroke-miterlimit="10" x1="610.712" y1="145.879" x2="625.345" y2="145.879"/>
	</g>
	<g id="POLYLINE_00000111171004506171867730000003189588451915641995_">

			<rect x="633.209" y="141.587" fill="none" stroke="#000000" stroke-width="2.75" stroke-linecap="round" stroke-linejoin="round" stroke-miterlimit="10" width="3.434" height="5.15"/>
	</g>
	<g id="POLYLINE_00000117643144819129194130000006808107210405130414_">

			<rect x="625.345" y="141.415" fill="none" stroke="#000000" stroke-width="2.75" stroke-linecap="round" stroke-linejoin="round" stroke-miterlimit="10" width="3.434" height="15.262"/>
	</g>
	<g id="POLYLINE_00000065778004437147915130000012956065878168175792_">

			<polyline fill="none" stroke="#000000" stroke-width="2.75" stroke-linecap="round" stroke-linejoin="round" stroke-miterlimit="10" points="
			628.778,145.879 633.209,145.879 633.209,142.446 628.778,142.446 		"/>
	</g>
	<g id="POLYLINE_00000141441197019076847380000017986731887965803399_">

			<rect x="625.345" y="142.102" fill="none" stroke="#000000" stroke-width="2.75" stroke-linecap="round" stroke-linejoin="round" stroke-miterlimit="10" width="3.434" height="4.12"/>
	</g>
	<g id="POLYLINE_00000165918732551241413550000002860952399532933528_">

			<path fill="none" stroke="#000000" stroke-width="2.75" stroke-linecap="round" stroke-linejoin="round" stroke-miterlimit="10" d="
			M537.386,450.341c-1.35,5.817-9.639,32.656-11.432,38.881c-7.088,25-14.221,52.206-19.305,77.628
			c-3.275,16.464-6.142,33.826-7.573,50.547c-0.022,0.351,0.121,0.697,0.348,0.961c0.376,0.437,0.932,0.683,1.491,0.786
			c0.323,0.059,0.655,0.07,0.981,0.036c7.728-0.807,15.613-0.566,23.342,0.105"/>
	</g>
	<g id="POLYLINE_00000104676533312534351230000000832950448723840175_">

			<path fill="none" stroke="#000000" stroke-width="2.75" stroke-linecap="round" stroke-linejoin="round" stroke-miterlimit="10" d="
			M593.896,439.599c-0.408,14.195-0.049,29.649,0.717,43.844c2.805,49.047,9.81,104.353,15.902,153.259
			c0.017,0.326-0.105,0.648-0.306,0.901c-0.367,0.46-0.93,0.72-1.498,0.831c-0.15,0.029-0.303,0.048-0.456,0.056
			c-1.499,0.046-3.241,0.143-4.743,0.268c-4.382,0.355-11.205,1.407-15.578,1.651c-3.284,0.211-6.657,0.219-9.944,0.07
			c-5.534-0.206-11.239-1.09-16.75-1.59c-2.623-0.227-5.573-0.391-8.205-0.426c-0.179-0.004-0.361-0.022-0.537-0.054
			c-0.776-0.141-1.622-0.598-1.813-1.418c-0.019-0.089-0.029-0.181-0.028-0.273c0.001-0.06,0.005-0.12,0.015-0.179
			c0.001-0.01,0.005-0.023,0.006-0.033c0,0,0.484-2.701,0.484-2.701c2.676-15.446,4.185-31.816,5.095-47.468"/>
	</g>
	<g id="POLYLINE_00000124845371777508121410000017591016903527800479_">

			<path fill="none" stroke="#000000" stroke-width="2.75" stroke-linecap="round" stroke-linejoin="round" stroke-miterlimit="10" d="
			M550.903,635.257c-2.677-1.263-5.636-1.87-8.543-2.342c-5.033-0.774-10.302-1.016-15.392-1.11
			c-0.153-0.002-0.307-0.015-0.458-0.038c-0.526-0.08-1.047-0.283-1.442-0.646c-0.306-0.279-0.521-0.681-0.5-1.103
			c0.378-3.538,0.601-9.338,0.763-12.95c0.284-7.128,0.699-15.929,1.282-23.013c1.202-14.856,3.405-29.968,6.596-44.524"/>
	</g>
	<g id="POLYLINE_00000143600764253686173580000013241030911750406285_">

			<line fill="none" stroke="#000000" stroke-width="2.75" stroke-linecap="round" stroke-linejoin="round" stroke-miterlimit="10" x1="610.744" y1="158.405" x2="375" y2="158.405"/>
	</g>
	<g id="POLYLINE_00000000184152574383848360000016888503706970603664_">

			<path fill="none" stroke="#000000" stroke-width="2.75" stroke-linecap="round" stroke-linejoin="round" stroke-miterlimit="10" d="
			M532.84,435.274c-0.115-0.724,0.212-1.454,0.779-1.905c0.252-0.204,0.546-0.356,0.856-0.451c0.093-0.028,0.187-0.052,0.282-0.07
			c0.025-0.017,59.224-11.285,59.256-11.298c0.076-0.012,0.16-0.023,0.237-0.029c0.36-0.028,0.727,0.015,1.069,0.129
			c0.582,0.19,1.103,0.595,1.382,1.146c0.09,0.178,0.155,0.37,0.189,0.566c0.02,0.119,0.031,0.242,0.028,0.363
			c0.013,0.023-0.446,13.653-0.437,13.68c-0.003,0.034-0.002,0.072-0.006,0.106c-0.065,0.788-0.622,1.459-1.331,1.774
			c-0.156,0.071-0.319,0.126-0.485,0.165c-0.263,0.062-56.706,10.813-56.976,10.864c-0.155,0.022-0.314,0.032-0.47,0.027
			c-0.368-0.01-0.736-0.094-1.07-0.251c-0.493-0.229-0.915-0.625-1.137-1.125c-0.061-0.137-0.108-0.282-0.136-0.429
			C534.82,448.481,532.877,435.342,532.84,435.274z"/>
	</g>
	<g id="POLYLINE_00000157279975428738184520000004350848115827098509_">

			<path fill="none" stroke="#000000" stroke-width="2.75" stroke-linecap="round" stroke-linejoin="round" stroke-miterlimit="10" d="
			M375,141.592c0,0,0,16.812,0,16.812c-0.008,0.357,0.019,0.873,0.03,1.232c0.067,1.415,0.232,2.874,0.438,4.275
			c1.285,8.27,3.858,16.533,6.469,24.475c5.979,17.728,13.715,35.881,21.613,52.852c18.167,38.786,40.61,76.115,65.867,110.689
			c11.917,16.336,25.248,32.581,38.953,47.457c5.601,6.199,17.835,18.822,22.739,25.523c1.794,2.419,3.45,4.998,4.708,7.74"/>
	</g>
	<g id="POLYLINE_00000002360489207150626320000005034911836822376576_">

			<polyline fill="none" stroke="#000000" stroke-width="2.75" stroke-linecap="round" stroke-linejoin="round" stroke-miterlimit="10" points="
			375,141.592 610.744,141.592 610.744,158.405 		"/>
	</g>
	<g id="POLYLINE_00000173876353993098812680000015237048013569611703_">

			<path fill="none" stroke="#000000" stroke-width="2.75" stroke-linecap="round" stroke-linejoin="round" stroke-miterlimit="10" d="
			M610.744,158.405c0.036,0.657-0.759,14.3-0.807,15.382c0,0-14.179,217.519-14.179,217.519l-1.37,30.208"/>
	</g>
	<g id="POLYLINE_00000145032756068828675310000012832028522069285297_">

			<path fill="none" stroke="#000000" stroke-width="2.75" stroke-linecap="round" stroke-linejoin="round" stroke-miterlimit="10" d="
			M212.614,450.341c1.35,5.817,9.639,32.656,11.431,38.881c7.088,25,14.221,52.206,19.305,77.628
			c3.275,16.464,6.142,33.826,7.573,50.547c0.022,0.351-0.121,0.697-0.348,0.961c-0.376,0.437-0.932,0.683-1.491,0.786
			c-0.323,0.059-0.655,0.07-0.981,0.036c-7.727-0.807-15.613-0.566-23.342,0.105"/>
	</g>
	<g id="POLYLINE_00000170239060895940028510000015057563215057973893_">

			<path fill="none" stroke="#000000" stroke-width="2.75" stroke-linecap="round" stroke-linejoin="round" stroke-miterlimit="10" d="
			M156.104,439.599c0.408,14.195,0.049,29.649-0.717,43.844c-2.805,49.047-9.81,104.353-15.902,153.259
			c-0.017,0.326,0.105,0.648,0.306,0.901c0.367,0.46,0.931,0.72,1.498,0.831c0.15,0.029,0.303,0.048,0.456,0.056
			c1.499,0.046,3.241,0.143,4.743,0.268c4.382,0.355,11.205,1.407,15.578,1.651c3.284,0.211,6.657,0.219,9.944,0.07
			c5.534-0.206,11.239-1.09,16.75-1.59c2.623-0.227,5.573-0.391,8.205-0.426c0.179-0.004,0.361-0.022,0.537-0.054
			c0.776-0.141,1.622-0.598,1.813-1.418c0.019-0.089,0.029-0.181,0.028-0.273c-0.001-0.06-0.005-0.12-0.015-0.179
			c-0.001-0.01-0.005-0.023-0.006-0.033c0,0-0.484-2.701-0.484-2.701c-2.676-15.446-4.185-31.816-5.095-47.468"/>
	</g>
	<g id="POLYLINE_00000062184022392610071810000014470744187416316069_">

			<path fill="none" stroke="#000000" stroke-width="2.75" stroke-linecap="round" stroke-linejoin="round" stroke-miterlimit="10" d="
			M199.097,635.257c2.677-1.263,5.636-1.87,8.543-2.342c5.033-0.774,10.302-1.016,15.392-1.11c0.153-0.002,0.307-0.015,0.458-0.038
			c0.526-0.08,1.047-0.283,1.442-0.646c0.306-0.279,0.521-0.681,0.5-1.103c-0.378-3.538-0.601-9.338-0.763-12.95
			c-0.283-7.128-0.699-15.929-1.282-23.013c-1.202-14.856-3.405-29.968-6.596-44.524"/>
	</g>
	<g id="POLYLINE_00000042001710347893585880000009343665408097803685_">

			<line fill="none" stroke="#000000" stroke-width="2.75" stroke-linecap="round" stroke-linejoin="round" stroke-miterlimit="10" x1="139.256" y1="158.405" x2="375" y2="158.405"/>
	</g>
	<g id="POLYLINE_00000134964987540971769520000006089365687653945478_">

			<path fill="none" stroke="#000000" stroke-width="2.75" stroke-linecap="round" stroke-linejoin="round" stroke-miterlimit="10" d="
			M217.16,435.274c0.115-0.724-0.212-1.454-0.779-1.905c-0.252-0.204-0.546-0.356-0.856-0.451c-0.093-0.028-0.187-0.052-0.282-0.07
			c-0.025-0.017-59.224-11.285-59.256-11.298c-0.076-0.012-0.16-0.023-0.237-0.029c-0.36-0.028-0.727,0.015-1.069,0.129
			c-0.582,0.19-1.103,0.595-1.382,1.146c-0.09,0.178-0.155,0.37-0.189,0.566c-0.02,0.119-0.031,0.242-0.028,0.363
			c-0.013,0.023,0.446,13.653,0.437,13.68c0.003,0.034,0.002,0.072,0.006,0.106c0.065,0.788,0.622,1.459,1.331,1.774
			c0.156,0.071,0.319,0.126,0.485,0.165c0.263,0.062,56.706,10.813,56.976,10.864c0.155,0.022,0.314,0.032,0.47,0.027
			c0.368-0.01,0.736-0.094,1.07-0.251c0.493-0.229,0.915-0.625,1.137-1.125c0.061-0.137,0.108-0.282,0.136-0.429
			C215.18,448.481,217.123,435.342,217.16,435.274z"/>
	</g>
	<g id="POLYLINE_00000129202554018029767280000003823455624298698428_">

			<path fill="none" stroke="#000000" stroke-width="2.75" stroke-linecap="round" stroke-linejoin="round" stroke-miterlimit="10" d="
			M375,141.592v16.812c0.008,0.357-0.019,0.873-0.03,1.232c-0.067,1.415-0.232,2.874-0.438,4.275
			c-1.285,8.27-3.858,16.533-6.469,24.475c-5.979,17.728-13.715,35.881-21.613,52.852c-18.167,38.786-40.61,76.115-65.867,110.689
			c-11.917,16.336-25.248,32.581-38.953,47.457c-5.601,6.199-17.835,18.822-22.739,25.523c-1.794,2.419-3.45,4.998-4.708,7.74"/>
	</g>
	<g id="POLYLINE_00000098908506700949575250000004508128917289122971_">

			<polyline fill="none" stroke="#000000" stroke-width="2.75" stroke-linecap="round" stroke-linejoin="round" stroke-miterlimit="10" points="
			375,141.592 139.256,141.592 139.256,158.405 		"/>
	</g>
	<g id="POLYLINE_00000105414166803344720780000018113168111353686682_">

			<path fill="none" stroke="#000000" stroke-width="2.75" stroke-linecap="round" stroke-linejoin="round" stroke-miterlimit="10" d="
			M139.256,158.405c-0.036,0.657,0.759,14.3,0.807,15.382c0,0,14.179,217.519,14.179,217.519l1.37,30.208"/>
	</g>
	<g id="POLYLINE_00000181777782494005974100000003358446747627930008_">

			<line fill="none" stroke="#000000" stroke-width="2.75" stroke-linecap="round" stroke-linejoin="round" stroke-miterlimit="10" x1="139.306" y1="142.446" x2="124.655" y2="142.446"/>
	</g>
	<g id="POLYLINE_00000072962030082473898770000003586460225516328861_">

			<line fill="none" stroke="#000000" stroke-width="2.75" stroke-linecap="round" stroke-linejoin="round" stroke-miterlimit="10" x1="139.288" y1="145.879" x2="124.655" y2="145.879"/>
	</g>
	<g id="POLYLINE_00000023962890038740739060000008596098281833797022_">

			<rect x="113.358" y="141.587" fill="none" stroke="#000000" stroke-width="2.75" stroke-linecap="round" stroke-linejoin="round" stroke-miterlimit="10" width="3.434" height="5.15"/>
	</g>
	<g id="POLYLINE_00000150809176959976036560000006632744281646621079_">

			<rect x="121.222" y="141.415" fill="none" stroke="#000000" stroke-width="2.75" stroke-linecap="round" stroke-linejoin="round" stroke-miterlimit="10" width="3.434" height="15.262"/>
	</g>
	<g id="POLYLINE_00000114764075787100278030000017346298757559509173_">

			<polyline fill="none" stroke="#000000" stroke-width="2.75" stroke-linecap="round" stroke-linejoin="round" stroke-miterlimit="10" points="
			121.222,145.879 116.791,145.879 116.791,142.446 121.222,142.446 		"/>
	</g>
	<g id="POLYLINE_00000036236635619781897450000014999320202796995242_">

			<rect x="121.222" y="142.102" fill="none" stroke="#000000" stroke-width="2.75" stroke-linecap="round" stroke-linejoin="round" stroke-miterlimit="10" width="3.434" height="4.12"/>
	</g>
</g>
<g id="_x32_D_x24_AG-OUTLINE">
	<g id="POLYLINE_00000171680740710672491840000010009304751151096241_">

			<path fill="none" stroke="#000000" stroke-width="3.5" stroke-linecap="round" stroke-linejoin="round" stroke-miterlimit="10" d="
			M633.209,142.446v-0.858h3.434v5.15h-3.434v-0.858h-4.43v0.343v10.455h-3.434v-10.455v-0.343h-14.601v12.526
			c0.036,0.657-0.759,14.3-0.807,15.382c0,0-14.179,217.519-14.179,217.519l-1.37,30.208c0.488-0.013,0.981,0.104,1.406,0.347
			c0.511,0.289,0.92,0.776,1.064,1.35c0.038,0.148,0.059,0.302,0.061,0.455c0,0.028,0,0.062-0.001,0.09
			c-0.001,0.021-0.436,13.651-0.437,13.671c-0.009,0.221-0.057,0.441-0.14,0.647c-0.207,0.52-0.629,0.938-1.129,1.18
			c-0.14,0.068-0.287,0.124-0.437,0.167c-0.177,0.057-0.694,0.137-0.879,0.178c-0.615,21.085,0.465,43.261,2.064,64.302
			c3.151,41.597,9.506,91.592,14.522,133.149c-0.133,0.544-0.592,0.942-1.086,1.167c-0.293,0.134-0.609,0.217-0.928,0.255
			c-2.54,0.102-5.264,0.272-7.796,0.561c-2.21,0.258-9.108,1.124-11.194,1.265c-2.465,0.196-5.063,0.3-7.533,0.283
			c-3.17-0.017-6.452-0.206-9.609-0.496c-2.884-0.266-6.346-0.726-9.222-1.021c-3.337-0.342-6.949-0.551-10.301-0.613
			c-0.325-0.028-0.647-0.102-0.948-0.227c-0.563-0.23-1.099-0.685-1.196-1.313c-0.012-0.079-0.016-0.159-0.012-0.238
			c0.003-0.044,0.006-0.09,0.014-0.134c0-0.01,0.005-0.023,0.006-0.033c0,0,0.227-1.248,0.227-1.248
			c-2.241-1.065-4.701-1.649-7.131-2.104c-4.793-0.861-9.813-1.155-14.678-1.303c-0.227-0.01-2.291-0.035-2.461-0.067
			c-0.262-0.03-0.523-0.09-0.77-0.184c-0.504-0.191-0.988-0.537-1.2-1.048c-0.063-0.155-0.097-0.322-0.096-0.489
			c0.311-2.982,0.534-7.736,0.672-10.776c-7.73-0.672-15.615-0.912-23.342-0.105c-0.326,0.035-0.658,0.023-0.981-0.036
			c-0.559-0.103-1.115-0.349-1.491-0.786c-0.227-0.264-0.37-0.61-0.348-0.961c1.43-16.717,4.298-34.088,7.573-50.547
			c5.079-25.401,12.224-52.662,19.305-77.628c1.845-6.402,10.04-32.92,11.432-38.881c-0.89,0.037-1.818-0.388-2.275-1.169
			c-0.106-0.18-0.185-0.377-0.231-0.581c-0.01-0.043-0.019-0.091-0.026-0.135c0,0-2.015-13.182-2.015-13.182
			c-0.011-0.069-0.018-0.142-0.021-0.211c-0.015-0.332,0.06-0.668,0.209-0.965c0.241-0.485,0.672-0.862,1.166-1.076
			c0.363-0.18,1.225-0.285,1.622-0.375c-1.259-2.744-2.912-5.319-4.708-7.74c-1.91-2.569-4.134-5.186-6.255-7.591
			c-9.166-10.142-21.841-23.48-30.573-33.834c-13.587-15.936-26.559-33.368-38.357-50.671
			c-14.508-21.342-28.326-44.253-40.283-67.128c-9.284-17.852-18.276-37.203-25.774-55.874c-4.254-10.742-8.512-22.21-11.602-33.339
			c-1.006-3.662-1.953-7.507-2.59-11.254c-0.352-2.156-0.657-4.422-0.674-6.613c-0.025,2.565-0.416,5.195-0.869,7.719
			c-0.789,4.303-1.991,8.806-3.213,13.017c-2.96,10.09-6.897,20.673-10.784,30.47c-7.501,18.675-16.487,38.02-25.774,55.874
			c-11.957,22.875-25.774,45.785-40.283,67.128c-11.798,17.302-24.77,34.736-38.357,50.671
			c-8.729,10.357-21.449,23.732-30.573,33.834c-2.116,2.396-4.346,5.023-6.255,7.591c-1.795,2.419-3.45,4.998-4.708,7.74
			c0.105,0.019,1.141,0.215,1.212,0.236c0.14,0.035,0.278,0.082,0.41,0.139c0.494,0.213,0.925,0.591,1.166,1.076
			c0.149,0.297,0.223,0.632,0.209,0.965c-0.003,0.07-0.01,0.142-0.021,0.211c0,0-2.015,13.182-2.015,13.182
			c-0.007,0.043-0.016,0.093-0.026,0.135c-0.048,0.213-0.133,0.419-0.246,0.606c-0.463,0.766-1.38,1.18-2.26,1.144
			c1.35,5.817,9.639,32.656,11.431,38.881c7.088,25,14.221,52.206,19.305,77.628c3.275,16.464,6.142,33.826,7.573,50.547
			c0.022,0.351-0.121,0.697-0.348,0.961c-0.376,0.437-0.932,0.683-1.491,0.786c-0.323,0.059-0.655,0.07-0.981,0.036
			c-7.727-0.807-15.613-0.566-23.342,0.105c0.137,3.065,0.359,7.777,0.672,10.776c0.002,0.167-0.033,0.335-0.096,0.489
			c-0.207,0.502-0.678,0.845-1.172,1.038c-0.36,0.14-0.747,0.21-1.133,0.216c-5.337,0.101-10.839,0.353-16.108,1.227
			c-2.665,0.465-5.37,1.063-7.826,2.226c0,0,0.227,1.248,0.227,1.248c0.003,0.009,0.003,0.024,0.006,0.033
			c0.004,0.029,0.009,0.06,0.011,0.089c0.009,0.11,0.003,0.221-0.017,0.329c-0.127,0.649-0.709,1.097-1.303,1.312
			c-0.298,0.109-0.613,0.171-0.929,0.189c-3.99,0.057-8.206,0.367-12.172,0.816c-6.151,0.77-12.482,1.41-18.684,1.299
			c-5.549,0-12.764-1.102-18.308-1.684c-1.95-0.19-4.135-0.337-6.092-0.394c-0.107-0.004-0.227-0.012-0.334-0.026
			c-0.318-0.041-0.633-0.127-0.924-0.263c-0.484-0.225-0.93-0.62-1.06-1.154c5.029-41.597,11.365-91.5,14.522-133.149
			c1.6-21.034,2.678-43.218,2.064-64.302c-0.183-0.04-0.71-0.126-0.879-0.178c-0.15-0.043-0.297-0.099-0.437-0.167
			c-0.5-0.243-0.923-0.66-1.129-1.18c-0.082-0.205-0.13-0.425-0.14-0.647c-0.003-0.004-0.435-13.661-0.437-13.671
			c-0.001-0.025-0.001-0.064-0.001-0.09c0.002-0.153,0.023-0.307,0.061-0.455c0.147-0.583,0.566-1.075,1.087-1.363
			c0.419-0.234,0.903-0.347,1.383-0.334l-1.37-30.208c0,0-14.763-227.805-14.763-227.805c-0.053-1.151-0.209-3.952-0.223-5.096
			v-12.526h-14.601v0.343v10.455h-3.434v-10.455v-0.343h-4.43v0.858h-3.434v-5.15h3.434v0.858h4.43c0-0.218,0-0.805,0-1.03h3.434
			c0,0.228,0,0.81,0,1.03h14.601v-0.853c117.517,0,354.001,0,471.488,0v0.853h14.601c0-0.218,0-0.805,0-1.03h3.434
			c0,0.228,0,0.81,0,1.03H633.209z"/>
	</g>
</g>
</svg>
