<?xml version="1.0" encoding="utf-8"?>
<!-- Generator: Adobe Illustrator 27.4.1, SVG Export Plug-In . SVG Version: 6.00 Build 0)  -->
<!DOCTYPE svg PUBLIC "-//W3C//DTD SVG 1.1//EN" "http://www.w3.org/Graphics/SVG/1.1/DTD/svg11.dtd" [
	<!ENTITY ns_extend "http://ns.adobe.com/Extensibility/1.0/">
	<!ENTITY ns_ai "http://ns.adobe.com/AdobeIllustrator/10.0/">
	<!ENTITY ns_graphs "http://ns.adobe.com/Graphs/1.0/">
	<!ENTITY ns_vars "http://ns.adobe.com/Variables/1.0/">
	<!ENTITY ns_imrep "http://ns.adobe.com/ImageReplacement/1.0/">
	<!ENTITY ns_sfw "http://ns.adobe.com/SaveForWeb/1.0/">
	<!ENTITY ns_custom "http://ns.adobe.com/GenericCustomNamespace/1.0/">
	<!ENTITY ns_adobe_xpath "http://ns.adobe.com/XPath/1.0/">
]>
<svg version="1.1" xmlns:x="&ns_extend;" xmlns:i="&ns_ai;" xmlns:graph="&ns_graphs;"
	 xmlns="http://www.w3.org/2000/svg" xmlns:xlink="http://www.w3.org/1999/xlink" x="0px" y="0px" width="750px" height="750px"
	 viewBox="0 0 750 750" enable-background="new 0 0 750 750" xml:space="preserve">
<metadata>
	<sfw  xmlns="&ns_sfw;">
		<slices></slices>
		<sliceSourceBounds  bottomLeftOrigin="true" height="9123.504" width="6221" x="-2000" y="-958"></sliceSourceBounds>
	</sfw>
</metadata>
<g id="FILL-BACKGROUND">
	<rect fill="transparent" width="750" height="750"/>
</g>
<g id="N-TEXT">
</g>
<g id="N-DIMENSIONS">
</g>
<g id="_x32_D_x24_AG-DIAGRAM">
</g>
<g id="_x32_D_x24_AG-DETAILS-DIAGRAM">
</g>
<g id="_x32_D_x24_AG-DETAILS">
	<g id="POLYLINE_00000045578509325454431250000013196619661551745428_">
		<path fill="none" stroke="#000000" stroke-width="2" stroke-linecap="round" stroke-linejoin="round" stroke-miterlimit="10" d="
			M502.917,464.562c2.509,1.108,3.993,3.623,5.037,6.045c1.251,2.962,2.022,6.182,2.726,9.312
			c1.671,7.767,3.162,17.039,6.189,24.352c2.642,6.493,6.764,12.6,12.667,16.528c2.59,1.74,5.482,3.038,8.49,3.865
			c3.154,0.871,6.446,1.243,9.714,1.242c3.385,0.001,6.794-0.398,10.051-1.337c2.989-0.858,5.857-2.187,8.42-3.951
			c5.765-3.934,9.796-9.953,12.399-16.347c3.046-7.289,4.508-16.625,6.189-24.352c0.705-3.132,1.475-6.35,2.726-9.312
			c1.044-2.421,2.528-4.937,5.037-6.045"/>
	</g>
	<g id="POLYLINE_00000051355775044701260010000000425670390636956080_">
		<path fill="none" stroke="#000000" stroke-width="2" stroke-linecap="round" stroke-linejoin="round" stroke-miterlimit="10" d="
			M502.917,419.839c2.509,1.108,3.993,3.623,5.037,6.045c1.251,2.962,2.022,6.182,2.726,9.312
			c1.671,7.767,3.162,17.039,6.189,24.352c2.642,6.493,6.764,12.6,12.667,16.528c2.59,1.74,5.482,3.038,8.49,3.865
			c3.154,0.871,6.446,1.243,9.714,1.242c3.385,0.001,6.794-0.398,10.051-1.337c2.989-0.858,5.857-2.187,8.42-3.951
			c5.765-3.934,9.796-9.953,12.399-16.347c3.046-7.289,4.508-16.625,6.189-24.352c0.705-3.132,1.475-6.35,2.726-9.312
			c1.044-2.421,2.528-4.937,5.037-6.045"/>
	</g>
	<g id="POLYLINE_00000122710358526504860690000013254025432245428379_">
		<path fill="none" stroke="#000000" stroke-width="2" stroke-linecap="round" stroke-linejoin="round" stroke-miterlimit="10" d="
			M502.917,375.116c2.509,1.108,3.993,3.623,5.037,6.045c1.251,2.962,2.022,6.182,2.726,9.312
			c1.671,7.767,3.162,17.039,6.189,24.352c2.642,6.493,6.764,12.6,12.667,16.528c2.59,1.74,5.482,3.038,8.49,3.865
			c3.154,0.871,6.446,1.243,9.714,1.242c3.385,0.001,6.794-0.398,10.051-1.337c2.989-0.858,5.857-2.187,8.42-3.951
			c5.765-3.934,9.796-9.953,12.399-16.347c3.046-7.289,4.508-16.625,6.189-24.352c0.705-3.132,1.475-6.35,2.726-9.312
			c1.044-2.421,2.528-4.937,5.037-6.045"/>
	</g>
	<g id="POLYLINE_00000098900755872746520020000012238272343037869217_">
		<path fill="none" stroke="#000000" stroke-width="2" stroke-linecap="round" stroke-linejoin="round" stroke-miterlimit="10" d="
			M502.917,330.393c2.509,1.108,3.993,3.623,5.037,6.045c1.251,2.962,2.022,6.182,2.726,9.312
			c1.671,7.767,3.162,17.039,6.189,24.352c2.642,6.493,6.764,12.6,12.667,16.528c2.59,1.74,5.482,3.038,8.49,3.865
			c3.154,0.871,6.446,1.243,9.714,1.242c3.385,0.001,6.794-0.399,10.051-1.337c2.989-0.858,5.857-2.187,8.42-3.951
			c5.765-3.934,9.796-9.953,12.399-16.347c3.046-7.289,4.508-16.625,6.189-24.352c0.705-3.132,1.475-6.35,2.726-9.312
			c1.044-2.421,2.528-4.937,5.037-6.045"/>
	</g>
	<g id="POLYLINE_00000080892296507007256160000002411289396216879294_">
		<path fill="none" stroke="#000000" stroke-width="2" stroke-linecap="round" stroke-linejoin="round" stroke-miterlimit="10" d="
			M502.917,285.669c2.509,1.108,3.993,3.623,5.037,6.045c1.251,2.962,2.022,6.182,2.726,9.312
			c1.671,7.767,3.162,17.039,6.189,24.352c2.642,6.493,6.764,12.6,12.667,16.528c2.59,1.74,5.482,3.038,8.49,3.865
			c3.154,0.871,6.446,1.243,9.714,1.242c3.385,0.001,6.794-0.399,10.051-1.337c2.989-0.858,5.857-2.187,8.42-3.951
			c5.765-3.934,9.796-9.953,12.399-16.347c3.046-7.289,4.508-16.625,6.189-24.352c0.705-3.132,1.475-6.35,2.726-9.312
			c1.044-2.421,2.528-4.937,5.037-6.045"/>
	</g>
	<g id="POLYLINE_00000103256707932506207430000013063982349176055733_">
		<path fill="none" stroke="#000000" stroke-width="2" stroke-linecap="round" stroke-linejoin="round" stroke-miterlimit="10" d="
			M502.917,240.946c2.509,1.108,3.993,3.623,5.037,6.045c1.251,2.962,2.022,6.182,2.726,9.312
			c1.671,7.767,3.162,17.039,6.189,24.352c2.642,6.493,6.764,12.6,12.667,16.528c2.59,1.74,5.482,3.038,8.49,3.864
			c3.154,0.871,6.446,1.243,9.714,1.242c3.385,0.001,6.794-0.399,10.051-1.337c2.989-0.858,5.857-2.187,8.42-3.951
			c5.765-3.934,9.796-9.953,12.399-16.347c3.046-7.289,4.508-16.625,6.189-24.352c0.705-3.132,1.475-6.35,2.726-9.312
			c1.044-2.421,2.528-4.937,5.037-6.045"/>
	</g>
	<g id="POLYLINE_00000006703321384994650470000011934943503879521957_">
		<path fill="none" stroke="#000000" stroke-width="2" stroke-linecap="round" stroke-linejoin="round" stroke-miterlimit="10" d="
			M502.917,509.285c2.509,1.108,3.993,3.623,5.037,6.045c1.251,2.962,2.022,6.182,2.726,9.312
			c1.671,7.767,3.162,17.039,6.189,24.352c2.642,6.493,6.764,12.6,12.667,16.528c2.59,1.74,5.482,3.038,8.49,3.865
			c3.154,0.871,6.446,1.243,9.714,1.242c3.385,0.001,6.794-0.398,10.051-1.337c2.989-0.858,5.857-2.187,8.42-3.951
			c5.765-3.934,9.796-9.953,12.399-16.347c3.046-7.289,4.508-16.625,6.189-24.352c0.705-3.132,1.475-6.35,2.726-9.312
			c1.044-2.421,2.528-4.937,5.037-6.045"/>
	</g>
	<g id="POLYLINE_00000044879205437686819310000004947486114217928077_">
		<path fill="none" stroke="#000000" stroke-width="2" stroke-linecap="round" stroke-linejoin="round" stroke-miterlimit="10" d="
			M387.757,464.562c2.509,1.108,3.993,3.623,5.037,6.045c1.251,2.962,2.022,6.182,2.726,9.312
			c1.671,7.767,3.162,17.039,6.189,24.352c2.642,6.493,6.764,12.6,12.667,16.528c2.59,1.74,5.482,3.038,8.49,3.865
			c3.154,0.871,6.446,1.243,9.714,1.242c3.385,0.001,6.794-0.398,10.051-1.337c2.989-0.858,5.857-2.187,8.42-3.951
			c5.765-3.934,9.796-9.953,12.399-16.347c3.046-7.289,4.508-16.625,6.189-24.352c0.705-3.132,1.475-6.35,2.726-9.312
			c1.044-2.421,2.528-4.937,5.037-6.045"/>
	</g>
	<g id="POLYLINE_00000132788065696325732340000015216962748167691411_">
		<path fill="none" stroke="#000000" stroke-width="2" stroke-linecap="round" stroke-linejoin="round" stroke-miterlimit="10" d="
			M387.757,419.839c2.509,1.108,3.993,3.623,5.037,6.045c1.251,2.962,2.022,6.182,2.726,9.312
			c1.671,7.767,3.162,17.039,6.189,24.352c2.642,6.493,6.764,12.6,12.667,16.528c2.59,1.74,5.482,3.038,8.49,3.865
			c3.154,0.871,6.446,1.243,9.714,1.242c3.385,0.001,6.794-0.398,10.051-1.337c2.989-0.858,5.857-2.187,8.42-3.951
			c5.765-3.934,9.796-9.953,12.399-16.347c3.046-7.289,4.508-16.625,6.189-24.352c0.705-3.132,1.475-6.35,2.726-9.312
			c1.044-2.421,2.528-4.937,5.037-6.045"/>
	</g>
	<g id="POLYLINE_00000179622984076249390960000011461594207126559126_">
		<path fill="none" stroke="#000000" stroke-width="2" stroke-linecap="round" stroke-linejoin="round" stroke-miterlimit="10" d="
			M387.757,375.116c2.509,1.108,3.993,3.623,5.037,6.045c1.251,2.962,2.022,6.182,2.726,9.312
			c1.671,7.767,3.162,17.039,6.189,24.352c2.642,6.493,6.764,12.6,12.667,16.528c2.59,1.74,5.482,3.038,8.49,3.865
			c3.154,0.871,6.446,1.243,9.714,1.242c3.385,0.001,6.794-0.398,10.051-1.337c2.989-0.858,5.857-2.187,8.42-3.951
			c5.765-3.934,9.796-9.953,12.399-16.347c3.046-7.289,4.508-16.625,6.189-24.352c0.705-3.132,1.475-6.35,2.726-9.312
			c1.044-2.421,2.528-4.937,5.037-6.045"/>
	</g>
	<g id="POLYLINE_00000060024767338608282010000012899591576503299716_">
		<path fill="none" stroke="#000000" stroke-width="2" stroke-linecap="round" stroke-linejoin="round" stroke-miterlimit="10" d="
			M387.757,330.393c2.509,1.108,3.993,3.623,5.037,6.045c1.251,2.962,2.022,6.182,2.726,9.312
			c1.671,7.767,3.162,17.039,6.189,24.352c2.642,6.493,6.764,12.6,12.667,16.528c2.59,1.74,5.482,3.038,8.49,3.865
			c3.154,0.871,6.446,1.243,9.714,1.242c3.385,0.001,6.794-0.399,10.051-1.337c2.989-0.858,5.857-2.187,8.42-3.951
			c5.765-3.934,9.796-9.953,12.399-16.347c3.046-7.289,4.508-16.625,6.189-24.352c0.705-3.132,1.475-6.35,2.726-9.312
			c1.044-2.421,2.528-4.937,5.037-6.045"/>
	</g>
	<g id="POLYLINE_00000051359872263902316260000015391992905185806006_">
		<path fill="none" stroke="#000000" stroke-width="2" stroke-linecap="round" stroke-linejoin="round" stroke-miterlimit="10" d="
			M387.757,285.669c2.509,1.108,3.993,3.623,5.037,6.045c1.251,2.962,2.022,6.182,2.726,9.312
			c1.671,7.767,3.162,17.039,6.189,24.352c2.642,6.493,6.764,12.6,12.667,16.528c2.59,1.74,5.482,3.038,8.49,3.865
			c3.154,0.871,6.446,1.243,9.714,1.242c3.385,0.001,6.794-0.399,10.051-1.337c2.989-0.858,5.857-2.187,8.42-3.951
			c5.765-3.934,9.796-9.953,12.399-16.347c3.046-7.289,4.508-16.625,6.189-24.352c0.705-3.132,1.475-6.35,2.726-9.312
			c1.044-2.421,2.528-4.937,5.037-6.045"/>
	</g>
	<g id="POLYLINE_00000165214384861961140000000009191859680695331253_">
		<path fill="none" stroke="#000000" stroke-width="2" stroke-linecap="round" stroke-linejoin="round" stroke-miterlimit="10" d="
			M387.757,240.946c2.509,1.108,3.993,3.623,5.037,6.045c1.251,2.962,2.022,6.182,2.726,9.312
			c1.671,7.767,3.162,17.039,6.189,24.352c2.642,6.493,6.764,12.6,12.667,16.528c2.59,1.74,5.482,3.038,8.49,3.864
			c3.154,0.871,6.446,1.243,9.714,1.242c3.385,0.001,6.794-0.399,10.051-1.337c2.989-0.858,5.857-2.187,8.42-3.951
			c5.765-3.934,9.796-9.953,12.399-16.347c3.046-7.289,4.508-16.625,6.189-24.352c0.705-3.132,1.475-6.35,2.726-9.312
			c1.044-2.421,2.528-4.937,5.037-6.045"/>
	</g>
	<g id="POLYLINE_00000111896824890661046640000010695406277188378295_">
		<path fill="none" stroke="#000000" stroke-width="2" stroke-linecap="round" stroke-linejoin="round" stroke-miterlimit="10" d="
			M387.757,509.285c2.509,1.108,3.993,3.623,5.037,6.045c1.251,2.962,2.022,6.182,2.726,9.312
			c1.671,7.767,3.162,17.039,6.189,24.352c2.642,6.493,6.764,12.6,12.667,16.528c2.59,1.74,5.482,3.038,8.49,3.865
			c3.154,0.871,6.446,1.243,9.714,1.242c3.385,0.001,6.794-0.398,10.051-1.337c2.989-0.858,5.857-2.187,8.42-3.951
			c5.765-3.934,9.796-9.953,12.399-16.347c3.046-7.289,4.508-16.625,6.189-24.352c0.705-3.132,1.475-6.35,2.726-9.312
			c1.044-2.421,2.528-4.937,5.037-6.045"/>
	</g>
	<g id="POLYLINE_00000160149989405331270480000001252782449433642122_">
		<path fill="none" stroke="#000000" stroke-width="2" stroke-linecap="round" stroke-linejoin="round" stroke-miterlimit="10" d="
			M272.597,464.562c2.509,1.108,3.993,3.623,5.037,6.045c1.251,2.962,2.022,6.182,2.726,9.312
			c1.671,7.767,3.162,17.039,6.189,24.352c2.642,6.493,6.764,12.6,12.667,16.528c2.59,1.74,5.482,3.038,8.49,3.865
			c3.154,0.871,6.446,1.243,9.714,1.242c3.385,0.001,6.794-0.398,10.051-1.337c2.989-0.858,5.857-2.187,8.42-3.951
			c5.765-3.934,9.796-9.953,12.399-16.347c3.046-7.289,4.508-16.625,6.189-24.352c0.705-3.132,1.475-6.35,2.726-9.312
			c1.044-2.421,2.528-4.937,5.037-6.045"/>
	</g>
	<g id="POLYLINE_00000003797122566273542250000013894172432469908111_">
		<path fill="none" stroke="#000000" stroke-width="2" stroke-linecap="round" stroke-linejoin="round" stroke-miterlimit="10" d="
			M272.597,419.839c2.509,1.108,3.993,3.623,5.037,6.045c1.251,2.962,2.022,6.182,2.726,9.312
			c1.671,7.767,3.162,17.039,6.189,24.352c2.642,6.493,6.764,12.6,12.667,16.528c2.59,1.74,5.482,3.038,8.49,3.865
			c3.154,0.871,6.446,1.243,9.714,1.242c3.385,0.001,6.794-0.398,10.051-1.337c2.989-0.858,5.857-2.187,8.42-3.951
			c5.765-3.934,9.796-9.953,12.399-16.347c3.046-7.289,4.508-16.625,6.189-24.352c0.705-3.132,1.475-6.35,2.726-9.312
			c1.044-2.421,2.528-4.937,5.037-6.045"/>
	</g>
	<g id="POLYLINE_00000081645158386341951200000004147521941383690166_">
		<path fill="none" stroke="#000000" stroke-width="2" stroke-linecap="round" stroke-linejoin="round" stroke-miterlimit="10" d="
			M272.597,375.116c2.509,1.108,3.993,3.623,5.037,6.045c1.251,2.962,2.022,6.182,2.726,9.312
			c1.671,7.767,3.162,17.039,6.189,24.352c2.642,6.493,6.764,12.6,12.667,16.528c2.59,1.74,5.482,3.038,8.49,3.865
			c3.154,0.871,6.446,1.243,9.714,1.242c3.385,0.001,6.794-0.398,10.051-1.337c2.989-0.858,5.857-2.187,8.42-3.951
			c5.765-3.934,9.796-9.953,12.399-16.347c3.046-7.289,4.508-16.625,6.189-24.352c0.705-3.132,1.475-6.35,2.726-9.312
			c1.044-2.421,2.528-4.937,5.037-6.045"/>
	</g>
	<g id="POLYLINE_00000085964066924846934610000004187443352210684039_">
		<path fill="none" stroke="#000000" stroke-width="2" stroke-linecap="round" stroke-linejoin="round" stroke-miterlimit="10" d="
			M272.597,330.393c2.509,1.108,3.993,3.623,5.037,6.045c1.251,2.962,2.022,6.182,2.726,9.312
			c1.671,7.767,3.162,17.039,6.189,24.352c2.642,6.493,6.764,12.6,12.667,16.528c2.59,1.74,5.482,3.038,8.49,3.865
			c3.154,0.871,6.446,1.243,9.714,1.242c3.385,0.001,6.794-0.399,10.051-1.337c2.989-0.858,5.857-2.187,8.42-3.951
			c5.765-3.934,9.796-9.953,12.399-16.347c3.046-7.289,4.508-16.625,6.189-24.352c0.705-3.132,1.475-6.35,2.726-9.312
			c1.044-2.421,2.528-4.937,5.037-6.045"/>
	</g>
	<g id="POLYLINE_00000001626950959640336140000016878265131062543007_">
		<path fill="none" stroke="#000000" stroke-width="2" stroke-linecap="round" stroke-linejoin="round" stroke-miterlimit="10" d="
			M272.597,285.669c2.509,1.108,3.993,3.623,5.037,6.045c1.251,2.962,2.022,6.182,2.726,9.312
			c1.671,7.767,3.162,17.039,6.189,24.352c2.642,6.493,6.764,12.6,12.667,16.528c2.59,1.74,5.482,3.038,8.49,3.865
			c3.154,0.871,6.446,1.243,9.714,1.242c3.385,0.001,6.794-0.399,10.051-1.337c2.989-0.858,5.857-2.187,8.42-3.951
			c5.765-3.934,9.796-9.953,12.399-16.347c3.046-7.289,4.508-16.625,6.189-24.352c0.705-3.132,1.475-6.35,2.726-9.312
			c1.044-2.421,2.528-4.937,5.037-6.045"/>
	</g>
	<g id="POLYLINE_00000054980767095296428750000014610123448317893297_">
		<path fill="none" stroke="#000000" stroke-width="2" stroke-linecap="round" stroke-linejoin="round" stroke-miterlimit="10" d="
			M272.597,240.946c2.509,1.108,3.993,3.623,5.037,6.045c1.251,2.962,2.022,6.182,2.726,9.312
			c1.671,7.767,3.162,17.039,6.189,24.352c2.642,6.493,6.764,12.6,12.667,16.528c2.59,1.74,5.482,3.038,8.49,3.864
			c3.154,0.871,6.446,1.243,9.714,1.242c3.385,0.001,6.794-0.399,10.051-1.337c2.989-0.858,5.857-2.187,8.42-3.951
			c5.765-3.934,9.796-9.953,12.399-16.347c3.046-7.289,4.508-16.625,6.189-24.352c0.705-3.132,1.475-6.35,2.726-9.312
			c1.044-2.421,2.528-4.937,5.037-6.045"/>
	</g>
	<g id="POLYLINE_00000178898279942397711170000007254188636365295500_">
		<path fill="none" stroke="#000000" stroke-width="2" stroke-linecap="round" stroke-linejoin="round" stroke-miterlimit="10" d="
			M272.597,509.285c2.509,1.108,3.993,3.623,5.037,6.045c1.251,2.962,2.022,6.182,2.726,9.312
			c1.671,7.767,3.162,17.039,6.189,24.352c2.642,6.493,6.764,12.6,12.667,16.528c2.59,1.74,5.482,3.038,8.49,3.865
			c3.154,0.871,6.446,1.243,9.714,1.242c3.385,0.001,6.794-0.398,10.051-1.337c2.989-0.858,5.857-2.187,8.42-3.951
			c5.765-3.934,9.796-9.953,12.399-16.347c3.046-7.289,4.508-16.625,6.189-24.352c0.705-3.132,1.475-6.35,2.726-9.312
			c1.044-2.421,2.528-4.937,5.037-6.045"/>
	</g>
	<g id="POLYLINE_00000085953261010773608600000008077498891702624698_">
		<path fill="none" stroke="#000000" stroke-width="2" stroke-linecap="round" stroke-linejoin="round" stroke-miterlimit="10" d="
			M157.437,464.562c2.509,1.108,3.993,3.623,5.037,6.045c1.251,2.962,2.022,6.182,2.726,9.312
			c1.671,7.767,3.162,17.039,6.189,24.352c2.642,6.493,6.764,12.6,12.667,16.528c2.59,1.74,5.482,3.038,8.49,3.865
			c3.154,0.871,6.446,1.243,9.714,1.242c3.385,0.001,6.794-0.398,10.051-1.337c2.989-0.858,5.857-2.187,8.42-3.951
			c5.765-3.934,9.796-9.953,12.399-16.347c3.046-7.289,4.508-16.625,6.189-24.352c0.705-3.132,1.475-6.35,2.726-9.312
			c1.044-2.421,2.528-4.937,5.037-6.045"/>
	</g>
	<g id="POLYLINE_00000170988102361987523140000008903976901987418257_">
		<path fill="none" stroke="#000000" stroke-width="2" stroke-linecap="round" stroke-linejoin="round" stroke-miterlimit="10" d="
			M157.437,419.839c2.509,1.108,3.993,3.623,5.037,6.045c1.251,2.962,2.022,6.182,2.726,9.312
			c1.671,7.767,3.162,17.039,6.189,24.352c2.642,6.493,6.764,12.6,12.667,16.528c2.59,1.74,5.482,3.038,8.49,3.865
			c3.154,0.871,6.446,1.243,9.714,1.242c3.385,0.001,6.794-0.398,10.051-1.337c2.989-0.858,5.857-2.187,8.42-3.951
			c5.765-3.934,9.796-9.953,12.399-16.347c3.046-7.289,4.508-16.625,6.189-24.352c0.705-3.132,1.475-6.35,2.726-9.312
			c1.044-2.421,2.528-4.937,5.037-6.045"/>
	</g>
	<g id="POLYLINE_00000133515499331554867350000017497950491943274644_">
		<path fill="none" stroke="#000000" stroke-width="2" stroke-linecap="round" stroke-linejoin="round" stroke-miterlimit="10" d="
			M157.437,375.116c2.509,1.108,3.993,3.623,5.037,6.045c1.251,2.962,2.022,6.182,2.726,9.312
			c1.671,7.767,3.162,17.039,6.189,24.352c2.642,6.493,6.764,12.6,12.667,16.528c2.59,1.74,5.482,3.038,8.49,3.865
			c3.154,0.871,6.446,1.243,9.714,1.242c3.385,0.001,6.794-0.398,10.051-1.337c2.989-0.858,5.857-2.187,8.42-3.951
			c5.765-3.934,9.796-9.953,12.399-16.347c3.046-7.289,4.508-16.625,6.189-24.352c0.705-3.132,1.475-6.35,2.726-9.312
			c1.044-2.421,2.528-4.937,5.037-6.045"/>
	</g>
	<g id="POLYLINE_00000090263196591538170230000002534529791449137315_">
		<path fill="none" stroke="#000000" stroke-width="2" stroke-linecap="round" stroke-linejoin="round" stroke-miterlimit="10" d="
			M157.437,330.393c2.509,1.108,3.993,3.623,5.037,6.045c1.251,2.962,2.022,6.182,2.726,9.312
			c1.671,7.767,3.162,17.039,6.189,24.352c2.642,6.493,6.764,12.6,12.667,16.528c2.59,1.74,5.482,3.038,8.49,3.865
			c3.154,0.871,6.446,1.243,9.714,1.242c3.385,0.001,6.794-0.399,10.051-1.337c2.989-0.858,5.857-2.187,8.42-3.951
			c5.765-3.934,9.796-9.953,12.399-16.347c3.046-7.289,4.508-16.625,6.189-24.352c0.705-3.132,1.475-6.35,2.726-9.312
			c1.044-2.421,2.528-4.937,5.037-6.045"/>
	</g>
	<g id="POLYLINE_00000134210306480535526770000005987006896778279554_">
		<path fill="none" stroke="#000000" stroke-width="2" stroke-linecap="round" stroke-linejoin="round" stroke-miterlimit="10" d="
			M157.437,285.669c2.509,1.108,3.993,3.623,5.037,6.045c1.251,2.962,2.022,6.182,2.726,9.312
			c1.671,7.767,3.162,17.039,6.189,24.352c2.642,6.493,6.764,12.6,12.667,16.528c2.59,1.74,5.482,3.038,8.49,3.865
			c3.154,0.871,6.446,1.243,9.714,1.242c3.385,0.001,6.794-0.399,10.051-1.337c2.989-0.858,5.857-2.187,8.42-3.951
			c5.765-3.934,9.796-9.953,12.399-16.347c3.046-7.289,4.508-16.625,6.189-24.352c0.705-3.132,1.475-6.35,2.726-9.312
			c1.044-2.421,2.528-4.937,5.037-6.045"/>
	</g>
	<g id="POLYLINE_00000111193515261160894150000002353563341909377185_">
		<path fill="none" stroke="#000000" stroke-width="2" stroke-linecap="round" stroke-linejoin="round" stroke-miterlimit="10" d="
			M157.437,240.946c2.509,1.108,3.993,3.623,5.037,6.045c1.251,2.962,2.022,6.182,2.726,9.312
			c1.671,7.767,3.162,17.039,6.189,24.352c2.642,6.493,6.764,12.6,12.667,16.528c2.59,1.74,5.482,3.038,8.49,3.864
			c3.154,0.871,6.446,1.243,9.714,1.242c3.385,0.001,6.794-0.399,10.051-1.337c2.989-0.858,5.857-2.187,8.42-3.951
			c5.765-3.934,9.796-9.953,12.399-16.347c3.046-7.289,4.508-16.625,6.189-24.352c0.705-3.132,1.475-6.35,2.726-9.312
			c1.044-2.421,2.528-4.937,5.037-6.045"/>
	</g>
	<g id="POLYLINE_00000020391375998776738620000008955012578827398041_">
		<path fill="none" stroke="#000000" stroke-width="2" stroke-linecap="round" stroke-linejoin="round" stroke-miterlimit="10" d="
			M157.437,509.285c2.509,1.108,3.993,3.623,5.037,6.045c1.251,2.962,2.022,6.182,2.726,9.312
			c1.671,7.767,3.162,17.039,6.189,24.352c2.642,6.493,6.764,12.6,12.667,16.528c2.59,1.74,5.482,3.038,8.49,3.865
			c3.154,0.871,6.446,1.243,9.714,1.242c3.385,0.001,6.794-0.398,10.051-1.337c2.989-0.858,5.857-2.187,8.42-3.951
			c5.765-3.934,9.796-9.953,12.399-16.347c3.046-7.289,4.508-16.625,6.189-24.352c0.705-3.132,1.475-6.35,2.726-9.312
			c1.044-2.421,2.528-4.937,5.037-6.045"/>
	</g>
	<g id="POLYLINE_00000103249785268089092340000006941920008183728268_">

			<line fill="none" stroke="#000000" stroke-width="2" stroke-linecap="round" stroke-linejoin="round" stroke-miterlimit="10" x1="490.16" y1="541.881" x2="490.16" y2="196.223"/>
	</g>
	<g id="POLYLINE_00000129178203021764976340000003304836482238866073_">

			<line fill="none" stroke="#000000" stroke-width="2" stroke-linecap="round" stroke-linejoin="round" stroke-miterlimit="10" x1="375" y1="541.881" x2="375" y2="196.223"/>
	</g>
	<g id="POLYLINE_00000112612927460196049500000011847898552253207436_">

			<line fill="none" stroke="#000000" stroke-width="2" stroke-linecap="round" stroke-linejoin="round" stroke-miterlimit="10" x1="259.84" y1="541.881" x2="259.84" y2="196.223"/>
	</g>
	<g id="POLYLINE_00000062909563329247501130000005886783504659597994_">
		<path fill="none" stroke="#000000" stroke-width="2" stroke-linecap="round" stroke-linejoin="round" stroke-miterlimit="10" d="
			M502.917,196.223c2.509,1.108,3.993,3.623,5.037,6.045c1.251,2.962,2.022,6.182,2.726,9.312
			c1.671,7.767,3.162,17.039,6.189,24.352c2.642,6.493,6.764,12.6,12.667,16.528c2.59,1.74,5.482,3.038,8.49,3.864
			c3.154,0.871,6.446,1.243,9.714,1.242c3.385,0.001,6.794-0.399,10.051-1.337c2.989-0.858,5.857-2.187,8.42-3.951
			c5.765-3.934,9.796-9.953,12.399-16.347c3.046-7.289,4.508-16.625,6.189-24.352c0.705-3.132,1.475-6.35,2.726-9.312
			c1.044-2.421,2.528-4.937,5.037-6.045"/>
	</g>
	<g id="POLYLINE_00000175310511591127454890000017640801383307328147_">
		<path fill="none" stroke="#000000" stroke-width="2" stroke-linecap="round" stroke-linejoin="round" stroke-miterlimit="10" d="
			M387.757,196.223c2.509,1.108,3.993,3.623,5.037,6.045c1.251,2.962,2.022,6.182,2.726,9.312
			c1.671,7.767,3.162,17.039,6.189,24.352c2.642,6.493,6.764,12.6,12.667,16.528c2.59,1.74,5.482,3.038,8.49,3.864
			c3.154,0.871,6.446,1.243,9.714,1.242c3.385,0.001,6.794-0.399,10.051-1.337c2.989-0.858,5.857-2.187,8.42-3.951
			c5.765-3.934,9.796-9.953,12.399-16.347c3.046-7.289,4.508-16.625,6.189-24.352c0.705-3.132,1.475-6.35,2.726-9.312
			c1.044-2.421,2.528-4.937,5.037-6.045"/>
	</g>
	<g id="POLYLINE_00000031183137363709538410000011242212638902561703_">
		<path fill="none" stroke="#000000" stroke-width="2" stroke-linecap="round" stroke-linejoin="round" stroke-miterlimit="10" d="
			M272.597,196.223c2.509,1.108,3.993,3.623,5.037,6.045c1.251,2.962,2.022,6.182,2.726,9.312
			c1.671,7.767,3.162,17.039,6.189,24.352c2.642,6.493,6.764,12.6,12.667,16.528c2.59,1.74,5.482,3.038,8.49,3.864
			c3.154,0.871,6.446,1.243,9.714,1.242c3.385,0.001,6.794-0.399,10.051-1.337c2.989-0.858,5.857-2.187,8.42-3.951
			c5.765-3.934,9.796-9.953,12.399-16.347c3.046-7.289,4.508-16.625,6.189-24.352c0.705-3.132,1.475-6.35,2.726-9.312
			c1.044-2.421,2.528-4.937,5.037-6.045"/>
	</g>
	<g id="POLYLINE_00000011032222396612621890000015422303602278509217_">
		<path fill="none" stroke="#000000" stroke-width="2" stroke-linecap="round" stroke-linejoin="round" stroke-miterlimit="10" d="
			M157.437,196.223c2.509,1.108,3.993,3.623,5.037,6.045c1.251,2.962,2.022,6.182,2.726,9.312
			c1.671,7.767,3.162,17.039,6.189,24.352c2.642,6.493,6.764,12.6,12.667,16.528c2.59,1.74,5.482,3.038,8.49,3.864
			c3.154,0.871,6.446,1.243,9.714,1.242c3.385,0.001,6.794-0.399,10.051-1.337c2.989-0.858,5.857-2.187,8.42-3.951
			c5.765-3.934,9.796-9.953,12.399-16.347c3.046-7.289,4.508-16.625,6.189-24.352c0.705-3.132,1.475-6.35,2.726-9.312
			c1.044-2.421,2.528-4.937,5.037-6.045"/>
	</g>
</g>
<g id="_x32_D_x24_AG-BUILDINGS">
	<g id="POLYLINE_00000049217721747057201360000016485847885960688053_">

			<path fill="none" stroke="#000000" stroke-width="2.75" stroke-linecap="round" stroke-linejoin="round" stroke-miterlimit="10" d="
			M144.68,177.673c0.035,0.58-0.067,378.808,0.035,379.338c0.066,0.543,0.225,1.075,0.468,1.563
			c0.376,0.757,0.957,1.411,1.664,1.874c0.254,0.167,0.526,0.31,0.807,0.425c0.326,0.129,0.678,0.236,1.001,0.375
			c1.453,0.596,2.791,1.464,4.033,2.418c3.315,2.561,7.292,6.952,10.289,9.932c3.164,3.14,6.517,6.183,10.195,8.705
			c3.396,2.347,7.097,4.298,10.98,5.705c5.779,2.108,11.97,3.017,18.108,3.011c5.281,0.002,10.61-0.664,15.67-2.2
			c5.673-1.702,10.985-4.549,15.672-8.156c3.051-2.334,5.963-5.059,8.666-7.791c2.53-2.531,5.647-5.917,8.314-8.188
			c1.559-1.324,3.237-2.563,5.127-3.371c3.866-1.657,7.459-0.864,10.84,1.417c1.787,1.2,3.439,2.692,4.986,4.188
			c2.981,2.88,6.505,6.746,9.558,9.523c4.183,3.88,8.842,7.342,14.008,9.798c8.414,4.063,17.978,5.318,27.236,4.584
			c4.075-0.33,8.157-1.114,12.036-2.413c3.733-1.245,7.326-2.986,10.637-5.111c3.988-2.547,7.624-5.694,10.992-9.007
			c3.346-3.24,7.022-7.442,10.642-10.353c2.38-1.906,5.225-3.531,8.358-3.509c3.132-0.022,5.977,1.602,8.358,3.509
			c3.617,2.904,7.304,7.117,10.642,10.353c3.368,3.313,7.004,6.46,10.992,9.007c3.31,2.125,6.904,3.866,10.637,5.111
			c3.879,1.298,7.961,2.083,12.036,2.413c8.843,0.696,17.962-0.403,26.097-4.058c5.616-2.485,10.662-6.157,15.147-10.324
			c2.823-2.577,6.221-6.225,8.937-8.916c1.419-1.409,2.96-2.841,4.556-4.05c1.516-1.139,3.186-2.137,5.021-2.658
			c1.15-0.328,2.366-0.454,3.558-0.352c1.138,0.095,2.262,0.399,3.311,0.848c1.889,0.808,3.569,2.046,5.127,3.371
			c2.724,2.32,5.795,5.665,8.314,8.188c2.557,2.597,5.349,5.202,8.222,7.448c4.622,3.626,9.859,6.526,15.47,8.298
			c5.252,1.677,10.81,2.403,16.315,2.4c6.137,0.006,12.331-0.903,18.108-3.011c3.881-1.407,7.586-3.358,10.98-5.705
			c3.675-2.522,7.041-5.566,10.195-8.705c3.019-3.002,6.962-7.358,10.289-9.932c1.242-0.954,2.58-1.822,4.033-2.418
			c0.337-0.145,0.703-0.253,1.042-0.392c0.266-0.112,0.524-0.25,0.765-0.408c0.707-0.463,1.288-1.117,1.664-1.874
			c0.243-0.488,0.403-1.02,0.468-1.562c0.113-0.69-0.008-378.647,0.035-379.339H144.68z"/>
	</g>
	<g id="POLYLINE_00000041277349515648334940000016164535457908439743_">

			<polyline fill="none" stroke="#000000" stroke-width="2.75" stroke-linecap="round" stroke-linejoin="round" stroke-miterlimit="10" points="
			605.32,177.673 605.32,159.174 144.68,159.174 144.68,177.673 		"/>
	</g>
	<g id="POLYLINE_00000042013824429837545550000007602488804120291494_">

			<line fill="none" stroke="#000000" stroke-width="2.75" stroke-linecap="round" stroke-linejoin="round" stroke-miterlimit="10" x1="144.735" y1="160.112" x2="128.614" y2="160.112"/>
	</g>
	<g id="POLYLINE_00000093883473521696792950000010809479800370144136_">

			<line fill="none" stroke="#000000" stroke-width="2.75" stroke-linecap="round" stroke-linejoin="round" stroke-miterlimit="10" x1="144.715" y1="163.89" x2="128.614" y2="163.89"/>
	</g>
	<g id="POLYLINE_00000150780716719532008520000017562879150189095317_">

			<rect x="116.182" y="159.168" fill="none" stroke="#000000" stroke-width="2.75" stroke-linecap="round" stroke-linejoin="round" stroke-miterlimit="10" width="3.778" height="5.667"/>
	</g>
	<g id="POLYLINE_00000054967927662486585790000001600756806837364610_">

			<rect x="124.835" y="158.979" fill="none" stroke="#000000" stroke-width="2.75" stroke-linecap="round" stroke-linejoin="round" stroke-miterlimit="10" width="3.778" height="16.794"/>
	</g>
	<g id="POLYLINE_00000136379994616823271500000016462697427854987442_">

			<polyline fill="none" stroke="#000000" stroke-width="2.75" stroke-linecap="round" stroke-linejoin="round" stroke-miterlimit="10" points="
			124.835,163.89 119.961,163.89 119.961,160.112 124.835,160.112 		"/>
	</g>
	<g id="POLYLINE_00000168820465999346785060000002117022292916866993_">

			<rect x="124.835" y="159.734" fill="none" stroke="#000000" stroke-width="2.75" stroke-linecap="round" stroke-linejoin="round" stroke-miterlimit="10" width="3.778" height="4.534"/>
	</g>
	<g id="POLYLINE_00000078026962445319423420000011931558829661079175_">

			<line fill="none" stroke="#000000" stroke-width="2.75" stroke-linecap="round" stroke-linejoin="round" stroke-miterlimit="10" x1="144.68" y1="177.673" x2="605.32" y2="177.673"/>
	</g>
	<g id="POLYLINE_00000021803999481413807240000002530794939303998909_">

			<line fill="none" stroke="#000000" stroke-width="2.75" stroke-linecap="round" stroke-linejoin="round" stroke-miterlimit="10" x1="605.265" y1="160.112" x2="621.386" y2="160.112"/>
	</g>
	<g id="POLYLINE_00000056390480537881856120000005732259996428202423_">

			<line fill="none" stroke="#000000" stroke-width="2.75" stroke-linecap="round" stroke-linejoin="round" stroke-miterlimit="10" x1="605.285" y1="163.89" x2="621.386" y2="163.89"/>
	</g>
	<g id="POLYLINE_00000026126565825253357360000013705953378155963809_">

			<rect x="630.039" y="159.168" fill="none" stroke="#000000" stroke-width="2.75" stroke-linecap="round" stroke-linejoin="round" stroke-miterlimit="10" width="3.778" height="5.667"/>
	</g>
	<g id="POLYLINE_00000164479361935409258220000013343626638415413127_">

			<rect x="621.386" y="158.979" fill="none" stroke="#000000" stroke-width="2.75" stroke-linecap="round" stroke-linejoin="round" stroke-miterlimit="10" width="3.778" height="16.794"/>
	</g>
	<g id="POLYLINE_00000005246187833280788140000005591926923205753791_">

			<polyline fill="none" stroke="#000000" stroke-width="2.75" stroke-linecap="round" stroke-linejoin="round" stroke-miterlimit="10" points="
			625.164,163.89 630.039,163.89 630.039,160.112 625.164,160.112 		"/>
	</g>
	<g id="POLYLINE_00000064340891106496936520000003471723250348135299_">

			<rect x="621.386" y="159.734" fill="none" stroke="#000000" stroke-width="2.75" stroke-linecap="round" stroke-linejoin="round" stroke-miterlimit="10" width="3.778" height="4.534"/>
	</g>
</g>
<g id="_x32_D_x24_AG-OUTLINE">
	<g id="POLYLINE_00000121967636190130965440000001385206744069562550_">

			<path fill="none" stroke="#000000" stroke-width="3.5" stroke-linecap="round" stroke-linejoin="round" stroke-miterlimit="10" d="
			M116.182,164.835v-5.667h3.778v0.945h4.875c0-0.24,0-0.886,0-1.133h3.778c0,0.251,0,0.891,0,1.133h16.066v-0.939H605.32v0.939
			h16.066c0-0.24,0-0.886,0-1.133h3.778c0,0.251,0,0.891,0,1.133h4.875v-0.945h3.778v5.667h-3.778v-0.945h-4.875v0.378v11.505
			h-3.778v-11.505v-0.378H605.32c0,0,0,13.783,0,13.783c-0.03,0.535,0.057,378.804-0.03,379.293
			c-0.06,0.543-0.214,1.075-0.452,1.565c-0.368,0.761-0.943,1.421-1.646,1.891c-0.253,0.169-0.524,0.316-0.804,0.434
			c-0.291,0.122-0.609,0.214-0.9,0.335c-1.508,0.598-2.893,1.49-4.175,2.475c-3.315,2.565-7.292,6.949-10.289,9.932
			c-3.164,3.14-6.517,6.183-10.195,8.705c-3.396,2.347-7.097,4.298-10.98,5.705c-5.779,2.108-11.97,3.017-18.108,3.011
			c-5.281,0.002-10.61-0.664-15.67-2.2c-5.674-1.702-10.985-4.549-15.672-8.156c-3.051-2.334-5.963-5.059-8.665-7.791
			c-2.53-2.531-5.647-5.917-8.314-8.188c-1.559-1.324-3.237-2.563-5.127-3.371c-3.866-1.657-7.459-0.864-10.84,1.417
			c-1.787,1.2-3.439,2.692-4.986,4.188c-2.981,2.88-6.505,6.746-9.558,9.523c-4.183,3.88-8.842,7.342-14.008,9.798
			c-8.414,4.063-17.978,5.318-27.236,4.584c-4.075-0.33-8.157-1.114-12.036-2.413c-3.733-1.245-7.326-2.986-10.637-5.111
			c-3.988-2.547-7.624-5.694-10.992-9.007c-3.346-3.24-7.022-7.442-10.642-10.353c-2.38-1.906-5.225-3.531-8.358-3.509
			c-3.132-0.022-5.977,1.602-8.358,3.509c-3.617,2.904-7.304,7.117-10.642,10.353c-3.368,3.313-7.004,6.46-10.992,9.007
			c-3.31,2.125-6.904,3.866-10.637,5.111c-3.879,1.298-7.961,2.083-12.036,2.413c-8.843,0.696-17.962-0.403-26.097-4.058
			c-5.616-2.485-10.662-6.157-15.147-10.324c-2.823-2.577-6.221-6.225-8.937-8.916c-1.419-1.409-2.96-2.841-4.556-4.05
			c-1.516-1.139-3.186-2.137-5.021-2.658c-1.15-0.328-2.366-0.454-3.558-0.352c-1.138,0.095-2.262,0.399-3.311,0.848
			c-1.889,0.808-3.569,2.046-5.127,3.371c-2.724,2.32-5.795,5.665-8.314,8.188c-2.557,2.597-5.349,5.202-8.222,7.448
			c-4.622,3.626-9.859,6.526-15.47,8.298c-5.252,1.677-10.81,2.403-16.315,2.4c-6.137,0.006-12.331-0.903-18.108-3.011
			c-3.881-1.407-7.586-3.358-10.98-5.705c-3.675-2.522-7.041-5.566-10.195-8.705c-3.021-3.004-6.961-7.357-10.289-9.932
			c-1.282-0.985-2.667-1.878-4.175-2.475c-0.292-0.121-0.61-0.213-0.9-0.335c-0.28-0.118-0.551-0.265-0.804-0.434
			c-0.703-0.47-1.278-1.13-1.646-1.891c-0.238-0.49-0.392-1.022-0.452-1.563c-0.097-0.644,0.008-378.65-0.03-379.295
			c0,0,0-13.783,0-13.783h-16.066v0.378v11.505h-3.778v-11.505v-0.378h-4.875v0.945H116.182z"/>
	</g>
</g>
</svg>
