<?xml version="1.0" standalone="no"?>
<!DOCTYPE svg PUBLIC "-//W3C//DTD SVG 20010904//EN"
 "http://www.w3.org/TR/2001/REC-SVG-20010904/DTD/svg10.dtd">
<svg version="1.0" xmlns="http://www.w3.org/2000/svg"
 width="356.000000pt" height="307.000000pt" viewBox="0 0 356.000000 307.000000"
 preserveAspectRatio="xMidYMid meet">

<g transform="translate(0.000000,307.000000) scale(0.100000,-0.100000)"
fill="#56bcbf" stroke="none">
<path d="M523 2698 c-68 -68 -126 -133 -130 -146 -5 -21 14 -43 123 -153 131
-131 160 -149 192 -117 28 28 13 62 -53 128 -36 35 -65 68 -65 72 0 4 123 8
273 8 259 0 275 1 292 20 23 26 13 68 -21 80 -14 6 -143 10 -286 10 l-261 0
66 69 c70 72 82 104 51 135 -31 32 -55 18 -181 -106z"/>
<path d="M2306 2807 c-37 -27 -23 -64 50 -138 l68 -69 -270 0 c-293 0 -314 -4
-314 -55 0 -53 8 -55 306 -55 151 0 274 -4 274 -8 0 -4 -29 -36 -64 -71 -36
-35 -67 -72 -69 -82 -7 -27 20 -59 52 -59 21 0 53 26 155 129 110 111 127 133
121 153 -10 33 -247 268 -271 268 -11 0 -28 -6 -38 -13z"/>
<path d="M1460 2478 c-62 -11 -119 -54 -149 -113 l-26 -49 -5 -497 -5 -497
-113 84 c-151 112 -218 132 -329 99 -100 -30 -172 -109 -173 -189 0 -66 36
-108 467 -537 462 -459 478 -472 614 -504 87 -20 407 -20 502 0 207 44 385
205 454 410 l27 80 4 366 c2 239 0 381 -7 406 -35 130 -181 201 -304 150 -37
-16 -38 -16 -47 7 -11 29 -64 82 -104 103 -41 23 -140 23 -184 1 -32 -16 -32
-16 -46 10 -35 67 -126 123 -200 122 -17 -1 -48 -7 -68 -14 l-38 -14 0 179 c0
98 -5 200 -11 227 -25 119 -136 192 -259 170z m118 -130 c40 -33 42 -61 42
-512 l0 -436 24 -15 c28 -19 58 -9 76 25 6 10 10 88 10 177 0 173 4 189 60
218 37 19 63 19 100 0 52 -27 60 -57 60 -233 0 -174 6 -194 55 -194 46 0 55
23 55 140 0 119 12 151 68 178 44 21 101 6 131 -33 18 -22 21 -40 21 -130 0
-109 7 -135 41 -153 16 -9 26 -8 43 4 19 12 24 27 29 76 6 72 26 106 74 126
42 18 88 6 124 -32 l24 -26 3 -336 c2 -221 -1 -361 -9 -405 -24 -144 -126
-286 -255 -354 -102 -54 -172 -65 -395 -61 l-195 3 -75 37 c-69 34 -103 66
-496 460 -291 291 -423 430 -423 445 0 11 16 35 35 51 41 37 106 50 160 32 19
-6 108 -65 196 -131 88 -65 168 -119 177 -119 8 0 24 7 34 17 17 15 18 46 18
568 l0 552 23 34 c37 55 115 68 165 27z"/>
</g>
</svg>
