<svg xmlns="http://www.w3.org/2000/svg" viewBox="0 0 24 24"><path fill="#1f2a44" d="M12 2c2.7 0 3 0 4.1.1 1.1 0 1.7.2 2.1.4.5.2.9.5 1.3.9.4.4.7.8.9 1.3.2.4.4 1 .4 2.1.1 1.1.1 1.4.1 4.1s0 3-.1 4.1c0 1.1-.2 1.7-.4 2.1a3.5 3.5 0 0 1-.9 1.3c-.4.4-.8.7-1.3.9-.4.2-1 .4-2.1.4-1.1.1-1.4.1-4.1.1s-3 0-4.1-.1c-1.1 0-1.7-.2-2.1-.4a3.5 3.5 0 0 1-1.3-.9 3.5 3.5 0 0 1-.9-1.3c-.2-.4-.4-1-.4-2.1C2 15 2 14.7 2 12s0-3 .1-4.1c0-1.1.2-1.7.4-2.1.2-.5.5-.9.9-1.3.4-.4.8-.7 1.3-.9.4-.2 1-.4 2.1-.4C9 2 9.3 2 12 2zm0 2.7c-2.7 0-3 0-4 .1-1 0-1.5.2-1.8.3-.5.2-.8.4-1.1.7-.3.3-.5.6-.7 1.1-.1.3-.3.8-.3 1.8-.1 1-.1 1.3-.1 4s0 3 .1 4c0 1 .2 1.5.3 1.8.2.5.4.8.7 1.1.3.3.6.5 1.1.7.3.1.8.3 1.8.3 1 .1 1.3.1 4 .1s3 0 4-.1c1 0 1.5-.2 1.8-.3.5-.2.8-.4 1.1-.7.3-.3.5-.6.7-1.1.1-.3.3-.8.3-1.8.1-1 .1-1.3.1-4s0-3-.1-4c0-1-.2-1.5-.3-1.8a2.9 2.9 0 0 0-.7-1.1 2.9 2.9 0 0 0-1.1-.7c-.3-.1-.8-.3-1.8-.3-1-.1-1.3-.1-4-.1zm0 2.6a4.7 4.7 0 1 1 0 9.4 4.7 4.7 0 0 1 0-9.4zm0 1.7a3 3 0 1 0 0 6 3 3 0 0 0 0-6zm4.9-1.9a1.1 1.1 0 1 1 0 2.2 1.1 1.1 0 0 1 0-2.2z"/></svg>
