<svg xmlns="http://www.w3.org/2000/svg" viewBox="0 0 24 24"><path fill="#1f2a44" d="M12 2a10 10 0 1 0 0 20 10 10 0 0 0 0-20zm6.9 6h-2.5a14 14 0 0 0-1-3.1A8 8 0 0 1 18.9 8zM12 4.2c.7 1 1.3 2.2 1.6 3.8h-3.2c.3-1.6.9-2.8 1.6-3.8zM4.3 14a8 8 0 0 1 0-4h2.9c-.1.7-.1 1.3-.1 2s0 1.3.1 2zm.8 2h2.5c.3 1.2.6 2.2 1 3.1A8 8 0 0 1 5.1 16zM7.6 8H5.1a8 8 0 0 1 3.5-3.1c-.4.9-.7 1.9-1 3.1zM12 19.8c-.7-1-1.3-2.2-1.6-3.8h3.2c-.3 1.6-.9 2.8-1.6 3.8zm2-5.8h-4c-.1-.7-.1-1.3-.1-2s0-1.3.1-2h4c.1.7.1 1.3.1 2s0 1.3-.1 2zm.4 5.1c.4-.9.7-1.9 1-3.1h2.5a8 8 0 0 1-3.5 3.1zm1.4-5.1c.1-.7.1-1.3.1-2s0-1.3-.1-2h2.9a8 8 0 0 1 0 4z"/></svg>
